<svg xmlns="http://www.w3.org/2000/svg" viewBox="0 0 205.14 205.92"><g style="fill:#272265" id="Layer_2" data-name="Layer 2"><g id="Layer_2-2" data-name="Layer 2"><path d="M36.29,119.17H74.72a3.2,3.2,0,0,0,0-6.4H36.29a5.54,5.54,0,0,1-5.53-5.53V11.93A5.54,5.54,0,0,1,36.29,6.4h135a5.54,5.54,0,0,1,5.53,5.53v95.31a5.54,5.54,0,0,1-5.53,5.53H133.77a3.2,3.2,0,0,0,0,6.4h37.49a11.94,11.94,0,0,0,11.93-11.93V11.93A11.94,11.94,0,0,0,171.26,0h-135A12,12,0,0,0,24.36,11.93v95.31A12,12,0,0,0,36.29,119.17Z"/><path d="M195.35,185.65a30.8,30.8,0,0,0-28.21-26.09,18,18,0,0,0-33.78-.95,12.41,12.41,0,0,0-5.5,2.3,8.47,8.47,0,0,1-2.15-5.64V113.19a3.2,3.2,0,1,0-6.4,0v42.08a14.86,14.86,0,0,0,4.53,10.66,1.51,1.51,0,0,0-.09.18,18,18,0,0,0-10.17,22.29,18.31,18.31,0,0,0-9.94,10.22,3.2,3.2,0,0,0,1.83,4.14,3.33,3.33,0,0,0,1.15.21,3.2,3.2,0,0,0,3-2.05,11.92,11.92,0,0,1,11-7.58,11.79,11.79,0,0,1,10.61,6.56A3.2,3.2,0,1,0,137,197a18.17,18.17,0,0,0-16.34-10.1l-.79,0a11.39,11.39,0,0,1-.8-4.22,11.57,11.57,0,0,1,8.16-11.1,3.21,3.21,0,0,0,2.14-2.25,6.07,6.07,0,0,1,5.83-4.53,5.08,5.08,0,0,1,2.77,1.76l0-.06,5.48-3.31a10.55,10.55,0,0,0-3.59-3.35,11.63,11.63,0,0,1,21.5,2.52,11.15,11.15,0,0,1-.27,4.93,3.19,3.19,0,0,0,1.72,4.18,3.2,3.2,0,0,0,4.19-1.71,12.34,12.34,0,0,0,.84-3.76,24.32,24.32,0,0,1,20.53,17.42,21.08,21.08,0,0,0-7.82.49,3.2,3.2,0,1,0,1.61,6.19,15.46,15.46,0,0,1,9,.52h0a13.21,13.21,0,0,1,7.61,12,3.2,3.2,0,0,0,6.4,0A19.67,19.67,0,0,0,195.35,185.65Z"/><path d="M97.75,129.06a3.2,3.2,0,0,0-3.2,3.2v18.3a3.2,3.2,0,1,0,6.4,0v-18.3A3.2,3.2,0,0,0,97.75,129.06Z"/><path d="M113.63,144.07a3.2,3.2,0,0,0-6.4,0v14.36a3.2,3.2,0,1,0,6.4,0Z"/><path d="M110.43,164.54a3.2,3.2,0,0,0-3.2,3.2v1.38a3.2,3.2,0,1,0,6.4,0v-1.38A3.2,3.2,0,0,0,110.43,164.54Z"/><path d="M88.55,172.78a18,18,0,0,0-6.44-1.16,9,9,0,0,0-.15-3.81v0h0c0-.05,0-.09,0-.13a15,15,0,0,0,6.63-12.38V113.19a3.2,3.2,0,0,0-6.4,0v42.08a8.54,8.54,0,0,1-3.48,6.82,12.47,12.47,0,0,0-6.89-3.48,18,18,0,0,0-33.78.95A30.8,30.8,0,0,0,9.79,185.65,19.67,19.67,0,0,0,0,202.72a3.2,3.2,0,0,0,6.4,0,13.21,13.21,0,0,1,7.61-12h0a15.41,15.41,0,0,1,9-.52A3.2,3.2,0,1,0,24.63,184a21.12,21.12,0,0,0-7.83-.49,24.4,24.4,0,0,1,23.44-17.61h.24a3.2,3.2,0,0,0,3.15-2.62,11.63,11.63,0,0,1,21.69-3.36,10.55,10.55,0,0,0-3.59,3.35,3.2,3.2,0,0,0,5.48,3.31,5.1,5.1,0,0,1,2.73-1.7,6.07,6.07,0,0,1,5.82,4.52,3.83,3.83,0,0,1-1.2,3.38l.3.34a18,18,0,0,0-6.37,4.55,3.2,3.2,0,1,0,4.76,4.27,11.92,11.92,0,0,1,13-3.16,11.76,11.76,0,0,1,7.58,9.89A3.2,3.2,0,0,0,97,191.54h.33a3.2,3.2,0,0,0,2.86-3.51A18.14,18.14,0,0,0,88.55,172.78Z"/><path d="M162.1,57.88V21.41a3.2,3.2,0,0,0-3.2-3.2h-111a3.2,3.2,0,0,0-3.2,3.2V57.88a3.2,3.2,0,0,0,3.2,3.2h111A3.2,3.2,0,0,0,162.1,57.88Zm-6.4-3.2H51.11V24.61H155.7Z"/><path d="M113,79.21a3.2,3.2,0,0,0,0-6.4H98.94a3.2,3.2,0,0,0,0,6.4Z"/><path d="M91.9,76a3.2,3.2,0,0,0-3.2-3.2h-41a3.2,3.2,0,0,0,0,6.4h41A3.2,3.2,0,0,0,91.9,76Z"/><path d="M159.11,89.45H142a3.2,3.2,0,0,0,0,6.4h17.07a3.2,3.2,0,0,0,0-6.4Z"/><path d="M127.53,95.85h5.12a3.2,3.2,0,0,0,0-6.4h-5.12a3.2,3.2,0,0,0,0,6.4Z"/><path d="M119.21,92.65a3.2,3.2,0,0,0-3.2-3.2H80.59a3.2,3.2,0,0,0,0,6.4H116A3.2,3.2,0,0,0,119.21,92.65Z"/><path d="M47.73,89.45a3.2,3.2,0,0,0,0,6.4H70.35a3.2,3.2,0,1,0,0-6.4Z"/></g></g></svg>