<svg xmlns="http://www.w3.org/2000/svg" viewBox="0 0 194.35 194.01"><g style="fill:#272265" id="Layer_2" data-name="Layer 2"><g id="Layer_2-2" data-name="Layer 2"><path d="M46.44,18.69a3.09,3.09,0,0,0,3.09-3.09,9.42,9.42,0,0,1,9.41-9.41H130a9.42,9.42,0,0,1,9.4,9.41V52.16a3.1,3.1,0,0,0,6.19,0V15.6A15.61,15.61,0,0,0,130,0H58.94a15.62,15.62,0,0,0-15.6,15.6A3.09,3.09,0,0,0,46.44,18.69Z"/><path d="M142.5,139.11a3.1,3.1,0,0,0-3.1,3.1v18.61H49.53V104a3.1,3.1,0,0,0-6.19,0v74.4A15.61,15.61,0,0,0,58.94,194H130a15.6,15.6,0,0,0,15.59-15.59V142.21A3.09,3.09,0,0,0,142.5,139.11ZM130,187.82H58.94a9.42,9.42,0,0,1-9.41-9.4V167H139.4v11.41A9.41,9.41,0,0,1,130,187.82Z"/><path d="M99.26,174.14H89.67a3.1,3.1,0,0,0,0,6.19h9.59a3.1,3.1,0,1,0,0-6.19Z"/><path d="M60.59,102.09a3.09,3.09,0,0,0,3-3.94l-2.63-9.22H74.45A11.51,11.51,0,0,0,86,77.44V35.06a11.51,11.51,0,0,0-11.5-11.49H11.5A11.51,11.51,0,0,0,0,35.06V77.44A11.51,11.51,0,0,0,11.5,88.93H40.86l18,12.6A3.15,3.15,0,0,0,60.59,102.09Zm-6.73-15.4,1.36,4.76L43.62,83.3a3.13,3.13,0,0,0-1.78-.56H11.5a5.31,5.31,0,0,1-5.31-5.3V35.06a5.31,5.31,0,0,1,5.31-5.3h63a5.31,5.31,0,0,1,5.31,5.3V77.44a5.31,5.31,0,0,1-5.31,5.3H56.84a3.1,3.1,0,0,0-3,4Z"/><path d="M182.85,60.85H112.21a11.51,11.51,0,0,0-11.5,11.5v40.91a11.51,11.51,0,0,0,11.5,11.5h17.44V135a3.1,3.1,0,0,0,1.76,2.79,3.14,3.14,0,0,0,1.33.3,3.11,3.11,0,0,0,2-.69l15.59-12.65h32.56a11.51,11.51,0,0,0,11.5-11.5V72.35A11.51,11.51,0,0,0,182.85,60.85Zm5.31,52.41a5.31,5.31,0,0,1-5.31,5.31H149.19a3.08,3.08,0,0,0-1.95.69l-11.4,9.25v-6.85a3.09,3.09,0,0,0-3.1-3.09H112.21a5.31,5.31,0,0,1-5.31-5.31V72.35A5.31,5.31,0,0,1,112.21,67h70.64a5.31,5.31,0,0,1,5.31,5.31Z"/><path d="M92.11,11.93a3.1,3.1,0,0,0,0,6.19h4.71a3.1,3.1,0,0,0,0-6.19Z"/><path d="M25.31,50.82A5.19,5.19,0,1,0,30.5,56,5.2,5.2,0,0,0,25.31,50.82Z"/><path d="M43,50.82A5.19,5.19,0,1,0,48.16,56,5.19,5.19,0,0,0,43,50.82Z"/><path d="M60.64,61.2A5.19,5.19,0,1,0,55.45,56,5.2,5.2,0,0,0,60.64,61.2Z"/><path d="M130.31,88.82A5.19,5.19,0,1,0,135.5,94,5.2,5.2,0,0,0,130.31,88.82Z"/><path d="M148,88.82A5.19,5.19,0,1,0,153.16,94,5.19,5.19,0,0,0,148,88.82Z"/><path d="M165.64,99.2A5.19,5.19,0,1,0,160.45,94,5.2,5.2,0,0,0,165.64,99.2Z"/></g></g></svg>