<svg xmlns="http://www.w3.org/2000/svg" viewBox="0 0 213.98 185.07">
<g id="Layer_2" data-name="Layer 2" style="fill:#272265">
<g id="Layer_2-2" data-name="Layer 2" style="fill:#272265">
<path d="M166.31,154.41a3.24,3.24,0,0,1-3.24-3.24v0c0-8.29-2.87-30.31-29.54-55.57A47.71,47.71,0,0,1,166,13.28h.35a47.68,47.68,0,0,1,32.79,82.27c-21.8,20.66-29.56,42.28-29.56,55.62A3.24,3.24,0,0,1,166.31,154.41Zm0-134.65H166a41.2,41.2,0,0,0-28,71.1c7.28,6.9,22,22.56,28.42,41.85,5.54-16.12,17.18-31.36,28.26-41.86a41.2,41.2,0,0,0-28.34-71.09Z" stroke="#272265"/>
<path d="M166.32,76.48a15.39,15.39,0,1,1,15.39-15.39A15.42,15.42,0,0,1,166.32,76.48Zm0-24.31a8.92,8.92,0,1,0,8.91,8.92A8.93,8.93,0,0,0,166.32,52.17Z" stroke="#272265"/>
<path d="M199.64,185.07H18.08A18.1,18.1,0,0,1,0,167V18.08A18.1,18.1,0,0,1,18.08,0H28.75A3.24,3.24,0,0,1,32,3.24V152.15a3.23,3.23,0,0,1-3.24,3.23H18.08a11.61,11.61,0,0,0,0,23.22H196.41V108.84a3.24,3.24,0,1,1,6.47,0v73A3.24,3.24,0,0,1,199.64,185.07ZM18.08,6.47A11.63,11.63,0,0,0,6.47,18.08V153.14a18,18,0,0,1,11.61-4.23h7.43V6.47Z" stroke="#272265"/>
<path d="M118.25,33.38H28.75a3.24,3.24,0,1,1,0-6.47h89.5a3.24,3.24,0,0,1,0,6.47Z" stroke="#272265"/>
<path d="M70.63,115.06H42.1a3.24,3.24,0,1,1,0-6.47H67.4V70.64L41.46,50.44a3.24,3.24,0,0,1,4-5.11L72.62,66.51a3.22,3.22,0,0,1,1.25,2.55v42.76A3.24,3.24,0,0,1,70.63,115.06Z" stroke="#272265"/>
<path d="M70.63,172.84a3.23,3.23,0,0,1-3.23-3.23V129H42.1a3.24,3.24,0,0,1,0-6.48H70.63a3.24,3.24,0,0,1,3.24,3.24v43.85A3.24,3.24,0,0,1,70.63,172.84Z" stroke="#272265"/>
<path d="M131.59,115.06H85.33a3.24,3.24,0,0,1-3.23-3.24V72.12a3.24,3.24,0,0,1,3.23-3.24h22.26a3.24,3.24,0,0,1,0,6.48h-19v33.23h43a3.24,3.24,0,1,1,0,6.47Z" stroke="#272265"/>
<path d="M137.78,172.84a3.22,3.22,0,0,1-2.92-1.85L115,129H88.57v40.61a3.24,3.24,0,0,1-6.47,0V125.76a3.24,3.24,0,0,1,3.23-3.24h31.76a3.26,3.26,0,0,1,2.93,1.86l20.69,43.85a3.23,3.23,0,0,1-1.55,4.3A3.19,3.19,0,0,1,137.78,172.84Z" stroke="#272265"/>
<path d="M152.28,172.84a3.25,3.25,0,0,1-2.93-1.85l-20.69-43.85a3.24,3.24,0,0,1,2.93-4.62h10.35a3.24,3.24,0,0,1,0,6.48H136.7l18.51,39.23a3.23,3.23,0,0,1-1.55,4.3A3.19,3.19,0,0,1,152.28,172.84Z" stroke="#272265"/>
<path d="M103.58,59.77H80.94A3.23,3.23,0,0,1,78.81,59L64.13,46.08a3.23,3.23,0,1,1,4.27-4.86L82.16,53.29h21.42a3.24,3.24,0,0,1,0,6.48Z" stroke="#272265"/>
</g>
</g>
</svg>