<svg xmlns="http://www.w3.org/2000/svg" viewBox="0 0 170.17 201.27"><g style="fill:#272265" id="Layer_2" data-name="Layer 2"><g id="Layer_2-2" data-name="Layer 2"><path d="M126.56,151.93c0-.05,0-.1,0-.14a2.91,2.91,0,0,0-.16-.5l-.06-.13a3.72,3.72,0,0,0-.19-.34c0-.06-.07-.1-.1-.15a3.11,3.11,0,0,0-.23-.28l-.12-.13-.06-.06L113.4,139.09a3,3,0,0,0-4.07,4.47l6.43,5.85H54.9l6.87-5.77A3,3,0,1,0,57.88,139L44.65,150.12a.63.63,0,0,0-.12.11l-.13.13a3.07,3.07,0,0,0-.24.29,1.47,1.47,0,0,1-.1.13,4.09,4.09,0,0,0-.25.46l0,.11a1.87,1.87,0,0,0-.13.4l0,.18a1.81,1.81,0,0,0,0,.4.41.41,0,0,0,0,.11V167a3,3,0,0,0,3,3h3.19v28.21a3,3,0,0,0,3,3H117a3,3,0,0,0,3-3V170h3.55a3,3,0,0,0,3-3V152.44s0-.06,0-.09A2.85,2.85,0,0,0,126.56,151.93ZM79.41,164v-8.53H90.76V164Zm11.35,6v25.19H79.41V170ZM49.61,155.46H73.36V164H49.61ZM55.83,170H73.36v25.19H55.83ZM114,195.23H96.81V170H114ZM96.81,164v-8.53h23.75V164Z"/><path d="M85.05,146.94h8.46a11.41,11.41,0,1,0-8.42-19.08,11.4,11.4,0,1,0-8.42,19.08Zm3.1-11.41a5.36,5.36,0,1,1,5.36,5.36H88.15Zm-16.85,0a5.37,5.37,0,0,1,10.73,0v5.36H76.67A5.37,5.37,0,0,1,71.3,135.53Z"/><path d="M170.17,77a22.72,22.72,0,0,0-1-6.58,85,85,0,0,0-28.26-49.7A85.84,85.84,0,0,0,85,0,84.47,84.47,0,0,0,30.23,20.64,89.4,89.4,0,0,0,.69,70.51a3,3,0,0,0,0,1A22.78,22.78,0,0,0,0,77a3,3,0,0,0,.05.52s0,.08,0,.12a16.13,16.13,0,0,0,14.74,16l36.39,38.51a3,3,0,1,0,4.4-4.16L22.08,92.55A16.27,16.27,0,0,0,26,90.36a16.08,16.08,0,0,0,13.18,6.85,3,3,0,0,0,0-6,10,10,0,0,1-9.53-6.85,3,3,0,0,0-5.31-.81,10.06,10.06,0,0,1-18.2-5.91,3,3,0,0,0,0-.52s0-.08,0-.12a16.66,16.66,0,0,1,29.76-10.3l29.64,52.63a3,3,0,1,0,5.27-3L42,65.29a16.64,16.64,0,0,1,24.8,1.12l15.44,50.52a3,3,0,0,0,2.89,2.14h0a3.06,3.06,0,0,0,2.9-2.15l15.37-50.51a16.63,16.63,0,0,1,24.76-1.15L98.43,115.8a3,3,0,0,0,1.07,4.14,2.94,2.94,0,0,0,1.53.42,3,3,0,0,0,2.61-1.49l30.7-52.2a16.66,16.66,0,0,1,29,5.17c.07.41.15.82.22,1.23a3,3,0,0,0,.31.94,16.83,16.83,0,0,1,.28,2.94s0,.08,0,.12a3,3,0,0,0,0,.52,10.06,10.06,0,0,1-18.2,5.91,3,3,0,0,0-5.31.81,10,10,0,0,1-9.53,6.85,3,3,0,1,0,0,6,16.1,16.1,0,0,0,13.18-6.85A16,16,0,0,0,148,92.51l-35.14,36.14a3,3,0,0,0,4.34,4.22l38.15-39.24a16.12,16.12,0,0,0,14.76-16s0-.08,0-.12A3,3,0,0,0,170.17,77Zm-85,28.73L72.88,65.63a16.61,16.61,0,0,1,24.42,0Zm62.33-51.45a22.55,22.55,0,0,0-15.59,6.19,22.73,22.73,0,0,0-31.18,0,22.73,22.73,0,0,0-31.18,0,22.74,22.74,0,0,0-31.19,0,22.71,22.71,0,0,0-27.42-2.86A84.08,84.08,0,0,1,34.16,25.23,78.44,78.44,0,0,1,85,6.05a79.21,79.21,0,0,1,74.58,51.68A22.62,22.62,0,0,0,147.45,54.23Z"/></g></g></svg>