<svg xmlns="http://www.w3.org/2000/svg" viewBox="0 0 199.62 171.42"><g style="fill:#272265" id="Layer_2" data-name="Layer 2"><g id="Layer_2-2" data-name="Layer 2"><path d="M196.42,52.21H3.2A3.2,3.2,0,0,0,0,55.41v59.91a3.2,3.2,0,0,0,3.2,3.2H196.42a3.2,3.2,0,0,0,3.2-3.2V55.41A3.2,3.2,0,0,0,196.42,52.21Zm-3.2,59.91H6.4V58.61H193.22Z"/><path d="M179.56,127.12a3.21,3.21,0,0,0-3.2,3.2v12.3H23.26v-12.3a3.2,3.2,0,0,0-6.4,0v15.5a3.2,3.2,0,0,0,3.2,3.2h159.5a3.21,3.21,0,0,0,3.21-3.2v-15.5A3.21,3.21,0,0,0,179.56,127.12Z"/><path d="M166.3,153.36a3.2,3.2,0,0,0-3.2,3.2V165H36.53v-8.46a3.2,3.2,0,0,0-6.4,0v11.66a3.2,3.2,0,0,0,3.2,3.2h133a3.2,3.2,0,0,0,3.2-3.2V156.56A3.2,3.2,0,0,0,166.3,153.36Z"/><path d="M20.06,44.3a3.21,3.21,0,0,0,3.2-3.21V28.8h153.1V41.09a3.21,3.21,0,1,0,6.41,0V25.6a3.21,3.21,0,0,0-3.21-3.21H20.06a3.21,3.21,0,0,0-3.2,3.21V41.09A3.21,3.21,0,0,0,20.06,44.3Z"/><path d="M33.33,18.06a3.2,3.2,0,0,0,3.2-3.2V6.4H163.1v8.46a3.2,3.2,0,1,0,6.4,0V3.2A3.2,3.2,0,0,0,166.3,0h-133a3.2,3.2,0,0,0-3.2,3.2V14.86A3.2,3.2,0,0,0,33.33,18.06Z"/><path d="M16.6,105.82H51.1a3.2,3.2,0,0,0,3.2-3.2V68.12a3.2,3.2,0,0,0-3.2-3.2H16.6a3.2,3.2,0,0,0-3.2,3.2v34.5A3.2,3.2,0,0,0,16.6,105.82Zm3.2-34.5H47.9v28.1H19.8Z"/><path d="M66.53,75.78H179.61a3.2,3.2,0,0,0,0-6.4H66.53a3.2,3.2,0,0,0,0,6.4Z"/><path d="M66.53,88.58h95.58a3.2,3.2,0,0,0,0-6.4H66.53a3.2,3.2,0,0,0,0,6.4Z"/><path d="M66.53,103.09h37.12a3.2,3.2,0,0,0,0-6.4H66.53a3.2,3.2,0,0,0,0,6.4Z"/></g></g></svg>