<svg xmlns="http://www.w3.org/2000/svg" xmlns:xlink="http://www.w3.org/1999/xlink" viewBox="0 0 335.44 424.49"><defs><linearGradient id="linear-gradient" x1="30.54" y1="268.37" x2="249.34" y2="49.57" gradientUnits="userSpaceOnUse"><stop offset="0" stop-color="#eb1f3b"/><stop offset="0.21" stop-color="#e51f39"/><stop offset="0.49" stop-color="#d51f33"/><stop offset="0.8" stop-color="#ba1e2a"/><stop offset="1" stop-color="#a51e23"/></linearGradient><linearGradient id="linear-gradient-2" x1="137.14" y1="123.92" x2="150.36" y2="123.92" gradientUnits="userSpaceOnUse"><stop offset="0" stop-color="#eb1f3b" stop-opacity="0"/><stop offset="0.06" stop-color="#e31e38" stop-opacity="0.09"/><stop offset="0.34" stop-color="#be1c2d" stop-opacity="0.48"/><stop offset="0.59" stop-color="#a31a25" stop-opacity="0.76"/><stop offset="0.78" stop-color="#921920" stop-opacity="0.94"/><stop offset="0.9" stop-color="#8c191e"/></linearGradient><linearGradient id="linear-gradient-3" x1="1120.23" y1="-129.17" x2="1159.02" y2="-98.86" gradientTransform="translate(127.47 -1107.13) rotate(90)" gradientUnits="userSpaceOnUse"><stop offset="0" stop-color="#eb1f3b"/><stop offset="0.01" stop-color="#e91f3a"/><stop offset="0.1" stop-color="#d01f32"/><stop offset="0.2" stop-color="#bd1e2b"/><stop offset="0.32" stop-color="#af1e27"/><stop offset="0.47" stop-color="#a71e24"/><stop offset="0.75" stop-color="#a51e23"/></linearGradient><linearGradient id="linear-gradient-4" x1="298.51" y1="245.3" x2="183.84" y2="103.71" gradientUnits="userSpaceOnUse"><stop offset="0" stop-color="#eb1f3b"/><stop offset="0.18" stop-color="#e41f39"/><stop offset="0.45" stop-color="#d11f32"/><stop offset="0.77" stop-color="#b11e27"/><stop offset="0.88" stop-color="#a51e23"/></linearGradient></defs><g style="isolation:isolate"><g id="Layer_2" data-name="Layer 2"><g id="Layer_1-2" data-name="Layer 1"><path d="M150.2,49.57V99.14H100.64a99.16,99.16,0,1,0,99.13,99.13V0A49.57,49.57,0,0,0,150.2,49.57ZM113,246.28a49.57,49.57,0,1,1-12.38-97.58H150.2v49.57A49.6,49.6,0,0,1,113,246.28Z" style="fill:url(#linear-gradient)"/><rect x="137.14" y="99.14" width="13.22" height="49.57" style="fill:url(#linear-gradient-2)"/><path d="M272.33,49.22H222.91V.05a49.4,49.4,0,0,1,49.42,49.17Z" style="fill:url(#linear-gradient-3)"/><path d="M272.3,72.25V242.87a49.56,49.56,0,0,1-49.56,49.57V121.81c0-.7,0-1.4,0-2.1V72.17h49.43v.08Z" style="fill:url(#linear-gradient-4)"/><path d="M311.2,48.58a24.24,24.24,0,1,1,24.24-24.24A24.23,24.23,0,0,1,311.2,48.58ZM288.58,24.34A22.63,22.63,0,1,0,311.2,1.72,22.61,22.61,0,0,0,288.58,24.34ZM302.45,12a57.71,57.71,0,0,1,7.76-.58c8.81,0,10.64,3.86,10.64,7,0,3.34-2.24,6-6,6.52v.15a6.16,6.16,0,0,1,4.54,4.59c1,3.91,1.77,6.36,2.55,7.61H318.4c-.42-.68-1-2.4-2-6.36-.78-3.18-2.24-4.59-5.74-4.9h-5.05V37.32h-3.18Zm3.18,11.57h5.42c4.27,0,6.51-1.93,6.51-4.74,0-3.29-2.6-4.9-7.24-4.9a22.1,22.1,0,0,0-4.69.36Z" style="fill:#a61e23"/><path d="M40.09,318.85a4,4,0,0,0-6.78,2.81,19.88,19.88,0,1,0,0,31.81,4,4,0,0,0,7.95,0V321.66A4,4,0,0,0,40.09,318.85ZM21.38,349.49a11.93,11.93,0,1,1,11.93-11.92A11.93,11.93,0,0,1,21.38,349.49Z" style="fill:#261d5e"/><path d="M201.22,318.85a4,4,0,0,0-6.78,2.81,19.88,19.88,0,1,0,0,31.81,4,4,0,0,0,7.95,0V321.66A4,4,0,0,0,201.22,318.85Zm-18.71,30.64a11.93,11.93,0,1,1,11.93-11.92A11.93,11.93,0,0,1,182.51,349.49Z" style="fill:#261d5e"/><path d="M76.32,353.47a4,4,0,0,1-4,4h-4a19.88,19.88,0,1,1,0-39.75h4a4,4,0,1,1,0,7.95h-4a11.93,11.93,0,1,0,0,23.85h4A4,4,0,0,1,76.32,353.47Z" style="fill:#261d5e"/><path d="M120.42,321.64v31.81a4,4,0,0,1-8,0V321.64a4,4,0,0,1,8,0Z" style="fill:#261d5e"/><circle cx="116.44" cy="309.32" r="3.98" style="fill:#261d5e"/><path d="M246.16,321.64v31.81a4,4,0,0,1-7.95,0V321.64a4,4,0,1,1,7.95,0Z" style="fill:#261d5e"/><circle cx="242.19" cy="309.32" r="3.98" style="fill:#261d5e"/><path d="M271.53,317.69a19.88,19.88,0,1,0,19.88,19.88A19.87,19.87,0,0,0,271.53,317.69Zm0,31.8a11.93,11.93,0,1,1,11.93-11.92A11.92,11.92,0,0,1,271.53,349.49Z" style="fill:#261d5e"/><path d="M108.65,353.47a4,4,0,0,1-4,4,2.68,2.68,0,0,1-.4,0h-.2l-.1,0h0a12,12,0,0,1-2-.56l-.45-.17a19.85,19.85,0,0,1-12.7-18.41v-9.49h0v-3.14H84.43a4,4,0,0,1,0-7.95h4.39v-8.89a4,4,0,0,1,3.58-3.45h.75a4,4,0,0,1,3.62,4v8.36h4.39a4,4,0,1,1,0,7.95H96.77v4.67h0v8.17h0a11.79,11.79,0,0,0,2.08,6.41h0s.14.21.37.5l0,.07a12.32,12.32,0,0,0,2.4,2.33h0a5,5,0,0,0,1,.68,11.15,11.15,0,0,0,2.82,1.21h0l.3.08a4.32,4.32,0,0,1,1,.4l.24.16.07,0,0,0,.18.16,0,0,.17.18a3.78,3.78,0,0,1,.74,1.11l.06.12a.49.49,0,0,0,0,.11,4.56,4.56,0,0,1,.22.9h0A3.87,3.87,0,0,1,108.65,353.47Z" style="fill:#261d5e"/><path d="M234.4,353.47a4,4,0,0,1-4,4,2.82,2.82,0,0,1-.41,0h-.2l-.09,0h0a12.38,12.38,0,0,1-2-.56l-.44-.17a19.85,19.85,0,0,1-12.7-18.41v-9.49h0v-3.14h-4.38a4,4,0,1,1,0-7.95h4.38v-8.89a4,4,0,0,1,3.59-3.45h.74a4,4,0,0,1,3.63,4v8.36h4.38a4,4,0,1,1,0,7.95h-4.38v4.67h0v8.17h0a11.88,11.88,0,0,0,2.09,6.41h0s.14.21.36.5l.06.07a11.79,11.79,0,0,0,2.4,2.33h0a5.28,5.28,0,0,0,1,.68,11.08,11.08,0,0,0,2.81,1.21h0l.29.08a4.56,4.56,0,0,1,1,.4l.24.16.07,0,0,0,.18.16,0,0,.18.18a3.78,3.78,0,0,1,.74,1.11.61.61,0,0,1,0,.12.49.49,0,0,1,0,.11,4,4,0,0,1,.22.9h0A3.87,3.87,0,0,1,234.4,353.47Z" style="fill:#261d5e"/><path d="M335.44,337.57v15.9a4,4,0,0,1-7.95,0v-15.9a11.93,11.93,0,1,0-23.85,0v15.9a4,4,0,0,1-7.95,0v-15.9a20.09,20.09,0,0,1,.12-2.22,19.88,19.88,0,0,1,39.51,0A20.09,20.09,0,0,1,335.44,337.57Z" style="fill:#261d5e"/><path d="M161.49,323.34l-14.8,31.74,0,.08-.06.12v0l-.06.12a.75.75,0,0,0-.07.12h0l-.06.1,0,.07a1,1,0,0,1-.15.2v0l-.08.09a4.07,4.07,0,0,1-1.36,1.05,4,4,0,0,1-5.28-1.93l-.07-.14-14.77-31.67a4,4,0,0,1,1.92-5.29,4,4,0,0,1,1.68-.37,4,4,0,0,1,3.61,2.3l11.23,24.09L154.28,320a4,4,0,0,1,3.61-2.3,3.84,3.84,0,0,1,1.67.38A4,4,0,0,1,161.49,323.34Z" style="fill:#261d5e"/><path d="M77.71,388.24A19.77,19.77,0,1,0,58.34,412h7.9a4,4,0,0,0,0-7.91h-7.9a11.87,11.87,0,0,1-11.19-7.9h27a4,4,0,0,0,3.95-4A20.59,20.59,0,0,0,77.71,388.24Zm-30.56,0a11.86,11.86,0,0,1,22.37,0Z" style="fill:#261d5e"/><path d="M206.41,388.24A19.77,19.77,0,1,0,187,412H195a4,4,0,0,0,0-7.91H187a11.87,11.87,0,0,1-11.18-7.9h27a4,4,0,0,0,4-4A19.82,19.82,0,0,0,206.41,388.24Zm-30.55,0a11.86,11.86,0,0,1,22.37,0Z" style="fill:#261d5e"/><path d="M139.93,372.47a19.77,19.77,0,0,0-19.77,19.77v28.3a4,4,0,0,0,7.91,0V408.05a19.77,19.77,0,1,0,11.86-35.58Zm0,31.63a11.86,11.86,0,0,1-11.86-11.84v0a11.86,11.86,0,1,1,11.86,11.86Z" style="fill:#261d5e"/><path d="M238.11,376.43a4,4,0,0,1-4,4,11.85,11.85,0,0,0-11.86,11.86v15.82a4,4,0,0,1-7.91,0V376.42a4,4,0,0,1,6.75-2.79,3.9,3.9,0,0,1,1.16,2.79h0a19.68,19.68,0,0,1,11.86-3.95A4,4,0,0,1,238.11,376.43Z" style="fill:#261d5e"/><path d="M296.78,400.13A11.86,11.86,0,0,1,284.92,412v0H277a4,4,0,1,1,0-7.9h7.9v0a4,4,0,1,0,0-7.9,11.86,11.86,0,0,1,0-23.72h7.91a3.95,3.95,0,0,1,0,7.9h-7.91a4,4,0,0,0,0,7.91A11.85,11.85,0,0,1,296.78,400.13Z" style="fill:#261d5e"/><path d="M269.6,408a4,4,0,0,1-4,4l-.4,0H265a12.85,12.85,0,0,1-2-.56l-.45-.17a19.76,19.76,0,0,1-12.62-18.31v-9.43h0v-3.12h-4.37a4,4,0,0,1,0-7.91h4.37v-8.84a4,4,0,0,1,3.56-3.43h.74a4,4,0,0,1,3.6,4v8.31h4.36a4,4,0,1,1,0,7.91h-4.36V385h0v8.13h0a11.72,11.72,0,0,0,2.07,6.36h0s.14.21.36.49l.06.07a12,12,0,0,0,2.39,2.32h0a5.11,5.11,0,0,0,1,.67,11,11,0,0,0,2.8,1.21h0l.3.08a5,5,0,0,1,1,.39l.24.17.06,0,0,0,.18.15.05.05a1.37,1.37,0,0,1,.17.17,3.87,3.87,0,0,1,.74,1.1.5.5,0,0,1,.05.13.42.42,0,0,1,0,.1,4,4,0,0,1,.22.9h0A3.71,3.71,0,0,1,269.6,408Z" style="fill:#261d5e"/><path d="M115,411.05a4,4,0,0,1-5.57-.48L99.13,398.34,88.88,410.55a3.95,3.95,0,1,1-6-5.08L94,392.19,82.82,378.9a3.95,3.95,0,1,1,6.05-5.08L99.13,386l10.25-12.21a3.95,3.95,0,1,1,6.05,5.08l-11.14,13.28,11.16,13.29A4,4,0,0,1,115,411.05Z" style="fill:#261d5e"/><path d="M305,411.58l25.38-11.22a5.8,5.8,0,0,0,2.54-8.42,5.81,5.81,0,0,0-7.22-2.17L305,398.92" style="fill:#261d5e"/><path d="M332.92,391.94a5.81,5.81,0,0,0-7.22-2.17L305,398.92v6.41l25.38-11.21A5.81,5.81,0,0,0,332.92,391.94Z" style="fill:#bac6de;mix-blend-mode:multiply"/><path d="M305,398.92l20.7-9.15a5.79,5.79,0,0,1,8.13,5.3h0a5.77,5.77,0,0,1-3.45,5.29L305,411.58Z" style="fill:none;stroke:#27235e;stroke-linecap:round;stroke-linejoin:round;stroke-width:3px"/><path d="M305,373.6l25.38,11.22a5.78,5.78,0,0,1,3.45,5.29v5.08a2.49,2.49,0,0,1-3.49,2.27L305,386.26" style="fill:#261d5e"/><path d="M330.34,397.46,305,386.26v-3.2l23.94,10.58a1.83,1.83,0,0,0,2.57-1.67v-6.08c0-.14,0-.27,0-.41a5.78,5.78,0,0,1,2.35,4.63v5.08A2.49,2.49,0,0,1,330.34,397.46Z" style="fill:#fff"/><path d="M305,386.26l25.34,11.2a2.49,2.49,0,0,0,3.49-2.27v-5.08a5.78,5.78,0,0,0-3.45-5.29L305,373.6" style="fill:none;stroke:#27235e;stroke-linecap:round;stroke-linejoin:round;stroke-width:3px"/><path d="M30.33,373.61,5,384.82a5.79,5.79,0,0,0-3.45,5.3,5.72,5.72,0,0,0,.91,3.12,5.78,5.78,0,0,0,7.22,2.17l20.7-9.15" style="fill:#261d5e"/><path d="M2.41,393.24a5.78,5.78,0,0,0,7.22,2.17l20.7-9.15v-6.41L5,391.06A5.76,5.76,0,0,0,2.41,393.24Z" style="fill:#bac6de;mix-blend-mode:multiply"/><path d="M30.33,386.26l-20.7,9.15a5.79,5.79,0,0,1-8.13-5.3h0A5.78,5.78,0,0,1,5,384.82L30.33,373.6Z" style="fill:none;stroke:#27235e;stroke-linecap:round;stroke-linejoin:round;stroke-width:3px"/><path d="M30.33,411.58,5,400.36a5.77,5.77,0,0,1-3.45-5.29V390A2.48,2.48,0,0,1,5,387.72l25.35,11.2" style="fill:#261d5e"/><path d="M5,387.72l25.35,11.2v3.2L6.39,391.54a1.83,1.83,0,0,0-2.57,1.68v6.07c0,.14,0,.28,0,.41a5.77,5.77,0,0,1-2.35-4.63V390A2.48,2.48,0,0,1,5,387.72Z" style="fill:#fff"/><path d="M30.33,398.92,5,387.72A2.48,2.48,0,0,0,1.5,390v5.08A5.77,5.77,0,0,0,5,400.36l25.38,11.22" style="fill:none;stroke:#27235e;stroke-linecap:round;stroke-linejoin:round;stroke-width:3px"/></g></g></g></svg>