<svg id="Layer_1" data-name="Layer 1" xmlns="http://www.w3.org/2000/svg" xmlns:xlink="http://www.w3.org/1999/xlink" viewBox="0 0 2000 2000"><defs><linearGradient id="linear-gradient" x1="925.32" y1="1871.72" x2="925.93" y2="1871.72" gradientUnits="userSpaceOnUse"><stop offset="0" stop-color="#ec1a3a"/><stop offset="0.32" stop-color="#e91a39"/><stop offset="0.53" stop-color="#e11b36"/><stop offset="0.71" stop-color="#d21b31"/><stop offset="0.86" stop-color="#bd1d2a"/><stop offset="1" stop-color="#a41e22"/></linearGradient><linearGradient id="linear-gradient-2" x1="288.93" y1="1411.14" x2="1432.1" y2="267.97" gradientUnits="userSpaceOnUse"><stop offset="0" stop-color="#ec1a3a"/><stop offset="0.21" stop-color="#e61a38"/><stop offset="0.48" stop-color="#d61b33"/><stop offset="0.79" stop-color="#bb1d2a"/><stop offset="1" stop-color="#a41e22"/></linearGradient><linearGradient id="linear-gradient-3" x1="845.93" y1="656.44" x2="914.99" y2="656.44" gradientUnits="userSpaceOnUse"><stop offset="0" stop-color="#ec1a3a" stop-opacity="0"/><stop offset="0.06" stop-color="#e41a38" stop-opacity="0.08"/><stop offset="0.34" stop-color="#be192d" stop-opacity="0.47"/><stop offset="0.59" stop-color="#a21825" stop-opacity="0.76"/><stop offset="0.78" stop-color="#911820" stop-opacity="0.94"/><stop offset="0.9" stop-color="#8b181e"/></linearGradient><linearGradient id="linear-gradient-4" x1="1012.92" y1="476.29" x2="1215.59" y2="634.63" gradientTransform="translate(1946.51 -935.49) rotate(90)" gradientUnits="userSpaceOnUse"><stop offset="0" stop-color="#ec1a3a"/><stop offset="0.01" stop-color="#e81a39"/><stop offset="0.1" stop-color="#cf1c30"/><stop offset="0.21" stop-color="#bc1d2a"/><stop offset="0.32" stop-color="#ae1d25"/><stop offset="0.47" stop-color="#a61e23"/><stop offset="0.75" stop-color="#a41e22"/></linearGradient><linearGradient id="linear-gradient-5" x1="1688.99" y1="1290.63" x2="1089.91" y2="550.83" gradientUnits="userSpaceOnUse"><stop offset="0" stop-color="#ec1a3a"/><stop offset="0.18" stop-color="#e51a38"/><stop offset="0.44" stop-color="#d21b31"/><stop offset="0.76" stop-color="#b21d27"/><stop offset="0.88" stop-color="#a41e22"/></linearGradient><linearGradient id="linear-gradient-6" x1="311.55" y1="1895.56" x2="210.54" y2="1678.94" xlink:href="#linear-gradient"/><linearGradient id="linear-gradient-7" x1="390.43" y1="1835" x2="601.63" y2="1835" xlink:href="#linear-gradient"/><linearGradient id="linear-gradient-8" x1="855.06" y1="1780.53" x2="643.87" y2="1780.53" xlink:href="#linear-gradient"/><linearGradient id="linear-gradient-9" x1="1002.9" y1="1886.13" x2="1002.9" y2="1674.94" xlink:href="#linear-gradient"/><linearGradient id="linear-gradient-10" x1="1287.95" y1="1677.64" x2="1198.25" y2="1869.99" xlink:href="#linear-gradient"/><linearGradient id="linear-gradient-11" x1="1468.57" y1="1993.54" x2="1440.09" y2="1668.02" gradientUnits="userSpaceOnUse"><stop offset="0" stop-color="#ec1a3a"/><stop offset="0.21" stop-color="#e61a38"/><stop offset="0.48" stop-color="#d61b33"/><stop offset="0.78" stop-color="#bc1d2a"/><stop offset="1" stop-color="#a41e22"/></linearGradient></defs><path d="M925.32,1871.72h0Z" style="fill:url(#linear-gradient)"/><path d="M914.15,268V527h-259c-286,0-517.95,231.9-517.95,518s231.91,517.95,517.95,517.95a517.66,517.66,0,0,0,517.95-517.95V9C1030.1,9,914.15,125,914.15,268ZM719.88,1295.73a259.41,259.41,0,0,1-64.71,8.15c-143,0-259-116-259-259s116-259,259-259h259v259C914.15,1165.58,831.59,1267,719.88,1295.73Z" style="fill:url(#linear-gradient-2)"/><rect x="845.93" y="526.95" width="69.06" height="258.98" style="fill:url(#linear-gradient-3)"/><path d="M1552.23,266.15H1294V9.24a258.21,258.21,0,0,1,258.21,256.91Z" style="fill:url(#linear-gradient-4)"/><path d="M1552.09,386.46v891.47c0,143-115.93,259-258.95,259V645.42c0-3.67.08-7.32.22-10.95V386.08h258.22v.38Z" style="fill:url(#linear-gradient-5)"/><path d="M342,1681.12A21.12,21.12,0,0,0,306,1696.05a105.6,105.6,0,1,0,0,169,21.12,21.12,0,1,0,42.23,0v-169A21.05,21.05,0,0,0,342,1681.12ZM242.6,1843.89A63.36,63.36,0,1,1,306,1780.53,63.36,63.36,0,0,1,242.6,1843.89Z" style="fill:url(#linear-gradient-6)"/><path d="M580.51,1674.94a21.12,21.12,0,0,0-21.12,21.11,105.6,105.6,0,1,0,0,169v24.45A63.36,63.36,0,0,1,496,1952.83a21.12,21.12,0,1,0,0,42.23,105.59,105.59,0,0,0,105.6-105.59V1696.06A21.12,21.12,0,0,0,580.51,1674.94Zm-84.48,169a63.36,63.36,0,1,1,63.36-63.36A63.36,63.36,0,0,1,496,1843.89Z" style="fill:url(#linear-gradient-7)"/><path d="M853,1759.41a105.62,105.62,0,1,0-103.49,126.72H791.7a21.12,21.12,0,0,0,0-42.24H749.46a63.39,63.39,0,0,1-59.75-42.24H833.94a21.12,21.12,0,0,0,21.12-21.12A106.54,106.54,0,0,0,853,1759.41Zm-103.49-42.24a63.4,63.4,0,0,1,59.76,42.24H689.71A63.4,63.4,0,0,1,749.46,1717.17Z" style="fill:url(#linear-gradient-8)"/><path d="M1108.49,1780.53V1865a21.12,21.12,0,0,1-42.24,0v-84.48a63.36,63.36,0,1,0-126.71,0V1865a21.12,21.12,0,1,1-42.24,0v-84.48a106.82,106.82,0,0,1,.65-11.79,105.61,105.61,0,0,1,209.89,0A106.82,106.82,0,0,1,1108.49,1780.53Z" style="fill:url(#linear-gradient-9)"/><path d="M1298.57,1865a21.12,21.12,0,0,1-21.12,21.12h-21.12a105.6,105.6,0,1,1,0-211.19h21.12a21.12,21.12,0,1,1,0,42.23h-21.12a63.36,63.36,0,1,0,0,126.72h21.12A21.13,21.13,0,0,1,1298.57,1865Z" style="fill:url(#linear-gradient-10)"/><path d="M1552,1696.06v195.53a105.59,105.59,0,0,1-105.57,103.47h-1.88a21.12,21.12,0,1,1,0-42.23l.94,0h.94a63.36,63.36,0,0,0,63.32-61.26h0V1865a105.59,105.59,0,0,1-169-84.49v-84.47a21.12,21.12,0,1,1,42.23,0v84.51a63.36,63.36,0,1,0,126.72,0v-84.51a21.12,21.12,0,0,1,19.63-21.07h3A21.12,21.12,0,0,1,1552,1696.06Z" style="fill:url(#linear-gradient-11)"/><path d="M1755.33,262.82A126.65,126.65,0,1,1,1882,136.18,126.58,126.58,0,0,1,1755.33,262.82Zm-118.2-126.64A118.21,118.21,0,1,0,1755.33,18,118.1,118.1,0,0,0,1637.13,136.18Zm72.45-64.55a308.86,308.86,0,0,1,40.58-3c46,0,55.56,20.16,55.56,36.77,0,17.43-11.71,31.32-31.32,34v.81c12.8,2.73,20.7,13.08,23.69,24,5.45,20.43,9.26,33.23,13.35,39.76h-18.52c-2.18-3.54-5.18-12.52-10.35-33.22-4.09-16.62-11.71-24-30-25.6h-26.42V204h-16.61Zm16.61,60.46h28.33c22.33,0,34-10.08,34-24.78,0-17.16-13.62-25.6-37.86-25.6-12.25,0-19.61.81-24.51,1.9Z" style="fill:#a51e22"/></svg>