<svg xmlns="http://www.w3.org/2000/svg" xmlns:xlink="http://www.w3.org/1999/xlink" viewBox="0 0 1589.29 536.7"><defs><linearGradient id="linear-gradient" x1="49.32" y1="455.84" x2="420.97" y2="84.19" gradientUnits="userSpaceOnUse"><stop offset="0" stop-color="#eb1f3b"/><stop offset="0.21" stop-color="#e51f39"/><stop offset="0.49" stop-color="#d51f33"/><stop offset="0.8" stop-color="#ba1e2a"/><stop offset="1" stop-color="#a51e23"/></linearGradient><linearGradient id="linear-gradient-2" x1="230.4" y1="210.48" x2="252.85" y2="210.48" gradientUnits="userSpaceOnUse"><stop offset="0" stop-color="#eb1f3b" stop-opacity="0"/><stop offset="0.06" stop-color="#e31e38" stop-opacity="0.09"/><stop offset="0.34" stop-color="#be1c2d" stop-opacity="0.48"/><stop offset="0.59" stop-color="#a31a25" stop-opacity="0.76"/><stop offset="0.78" stop-color="#921920" stop-opacity="0.94"/><stop offset="0.9" stop-color="#8c191e"/></linearGradient><linearGradient id="linear-gradient-3" x1="395.7" y1="-2402.01" x2="461.59" y2="-2350.53" gradientTransform="translate(-1968.65 -373.46) rotate(90)" gradientUnits="userSpaceOnUse"><stop offset="0" stop-color="#eb1f3b"/><stop offset="0.01" stop-color="#e91f3a"/><stop offset="0.1" stop-color="#d01f32"/><stop offset="0.2" stop-color="#bd1e2b"/><stop offset="0.32" stop-color="#af1e27"/><stop offset="0.47" stop-color="#a71e24"/><stop offset="0.75" stop-color="#a51e23"/></linearGradient><linearGradient id="linear-gradient-4" x1="504.48" y1="416.66" x2="309.72" y2="176.15" gradientUnits="userSpaceOnUse"><stop offset="0" stop-color="#eb1f3b"/><stop offset="0.18" stop-color="#e41f39"/><stop offset="0.45" stop-color="#d11f32"/><stop offset="0.77" stop-color="#b11e27"/><stop offset="0.88" stop-color="#a51e23"/></linearGradient></defs><g style="isolation:isolate"><g id="Layer_2" data-name="Layer 2"><g id="Layer_1-2" data-name="Layer 1"><path d="M252.58,84.19v84.2H168.39A168.45,168.45,0,1,0,336.77,336.77V0A84.2,84.2,0,0,0,252.58,84.19ZM189.42,418.32a84.2,84.2,0,1,1-21-165.74h84.19v84.19A84.24,84.24,0,0,1,189.42,418.32Z" style="fill:url(#linear-gradient)"/><rect x="230.4" y="168.39" width="22.45" height="84.19" style="fill:url(#linear-gradient-2)"/><path d="M460,83.6H376.08V.08A83.94,83.94,0,0,1,460,83.6Z" style="fill:url(#linear-gradient-3)"/><path d="M460,122.71V412.53a84.19,84.19,0,0,1-84.19,84.2V206.9c0-1.19,0-2.38.07-3.56V122.59h83.95v.12Z" style="fill:url(#linear-gradient-4)"/><path d="M526.05,82.52a41.18,41.18,0,1,1,41.17-41.17A41.15,41.15,0,0,1,526.05,82.52ZM487.62,41.35A38.43,38.43,0,1,0,526.05,2.92,38.39,38.39,0,0,0,487.62,41.35Zm23.56-21a100.38,100.38,0,0,1,13.19-1c15,0,18.06,6.55,18.06,12,0,5.67-3.8,10.18-10.18,11.07v.26a10.45,10.45,0,0,1,7.7,7.8c1.77,6.64,3,10.8,4.34,12.92h-6c-.71-1.15-1.68-4.07-3.36-10.8-1.33-5.4-3.81-7.79-9.74-8.32h-8.59V63.39h-5.4ZM516.58,40h9.21c7.26,0,11.06-3.28,11.06-8.06,0-5.58-4.42-8.32-12.3-8.32a37.27,37.27,0,0,0-8,.62Z" style="fill:#a61e23"/><path d="M614.08,172.35a13,13,0,0,0-22.24,9.2,65.14,65.14,0,1,0,0,104.23,13,13,0,1,0,26,0V181.56A13,13,0,0,0,614.08,172.35Zm-61.32,100.4a39.08,39.08,0,1,1,39.08-39.08A39.08,39.08,0,0,1,552.76,272.75Z" style="fill:#ec1d3b"/><path d="M1142,172.35a13,13,0,0,0-22.24,9.2,65.14,65.14,0,1,0,0,104.23,13,13,0,0,0,26,0V181.56A13,13,0,0,0,1142,172.35Zm-61.32,100.4a39.08,39.08,0,1,1,39.08-39.08A39.08,39.08,0,0,1,1080.71,272.75Z" style="fill:#ec1d3b"/><path d="M732.77,285.77a13,13,0,0,1-13,13h-13a65.14,65.14,0,1,1,0-130.27h13a13,13,0,0,1,0,26.06h-13a39.08,39.08,0,0,0,0,78.16h13A13,13,0,0,1,732.77,285.77Z" style="fill:#ec1d3b"/><path d="M877.27,181.49V285.71a13,13,0,0,1-26.06,0V181.49a13,13,0,0,1,26.06,0Z" style="fill:#ec1d3b"/><circle cx="864.24" cy="141.11" r="13.03" style="fill:#ec1d3b"/><path d="M1289.27,181.49V285.71a13,13,0,0,1-26,0V181.49a13,13,0,1,1,26,0Z" style="fill:#ec1d3b"/><circle cx="1276.25" cy="141.11" r="13.03" style="fill:#ec1d3b"/><path d="M1372.41,168.53a65.14,65.14,0,1,0,65.13,65.14A65.13,65.13,0,0,0,1372.41,168.53Zm0,104.22a39.08,39.08,0,1,1,39.08-39.08A39.08,39.08,0,0,1,1372.41,272.75Z" style="fill:#ec1d3b"/><path d="M838.7,285.77a13,13,0,0,1-13,13,11.9,11.9,0,0,1-1.34-.07l-.24,0-.11,0h-.09l-.21,0-.31,0h0a42,42,0,0,1-6.56-1.83c-.9-.33-1.47-.56-1.47-.56a65.17,65.17,0,0,1-41.61-60.35V204.78h0V194.5H759.35a13,13,0,0,1,0-26.06h14.38V139.3A13.08,13.08,0,0,1,785.48,128h2.43a13.08,13.08,0,0,1,11.87,13v27.39h14.37a13,13,0,1,1,0,26.06H799.78v15.31h0v26.77h0a38.79,38.79,0,0,0,6.82,21h0c.05.08.45.69,1.19,1.64l.18.23a39.32,39.32,0,0,0,7.88,7.63h0a17.77,17.77,0,0,0,3.3,2.21,36.69,36.69,0,0,0,9.21,4h0l1,.25a16,16,0,0,1,3.33,1.3c.27.17.53.36.79.55l.21.16.1.08c.19.15.39.32.59.5l.16.15c.19.18.39.37.58.58a12.94,12.94,0,0,1,2.42,3.63c.06.13.12.26.17.4s.1.23.14.34a13.41,13.41,0,0,1,.72,3v0A13.47,13.47,0,0,1,838.7,285.77Z" style="fill:#ec1d3b"/><path d="M1250.72,285.77a13,13,0,0,1-13,13,11.85,11.85,0,0,1-1.33-.07l-.24,0-.11,0h-.1l-.2,0-.31,0h0a41.69,41.69,0,0,1-6.56-1.83c-.9-.33-1.47-.56-1.47-.56a65.17,65.17,0,0,1-41.61-60.35V204.78h0V194.5h-14.38a13,13,0,1,1,0-26.06h14.38V139.3A13.08,13.08,0,0,1,1197.5,128h2.43a13.08,13.08,0,0,1,11.87,13v27.39h14.37a13,13,0,0,1,0,26.06H1211.8v15.31h0v26.77h0a38.89,38.89,0,0,0,6.83,21h0c0,.08.45.69,1.18,1.64l.18.23a39.85,39.85,0,0,0,7.88,7.63h0a17.77,17.77,0,0,0,3.3,2.21,36.69,36.69,0,0,0,9.21,4h0l1,.25a16.16,16.16,0,0,1,3.33,1.3c.26.17.53.36.79.55a1,1,0,0,0,.21.16l.09.08a6.8,6.8,0,0,1,.59.5l.16.15a8,8,0,0,1,.59.58,12.94,12.94,0,0,1,2.42,3.63c.06.13.12.26.17.4s.09.23.14.34a14,14,0,0,1,.72,3v0A13.47,13.47,0,0,1,1250.72,285.77Z" style="fill:#ec1d3b"/><path d="M1581.81,233.67v52.1a13,13,0,1,1-26,0v-52.1a39.08,39.08,0,1,0-78.16,0v52.1a13,13,0,0,1-26.06,0v-52.1a65.14,65.14,0,1,1,130.27,0Z" style="fill:#ec1d3b"/><path d="M1011.83,187.06l-48.49,104-.12.26c-.06.14-.13.28-.2.42a.05.05,0,0,0,0,0l-.22.4c-.07.13-.15.26-.23.39l0,0-.2.31-.15.23c-.16.23-.32.45-.49.67l0,.05c-.09.11-.17.22-.26.32a13,13,0,0,1-21.77-2.88l-.23-.49L891,187.05a13,13,0,1,1,23.62-11L951.42,255l36.8-78.91a13,13,0,0,1,23.61,11Z" style="fill:#ec1d3b"/><path d="M745.88,417.53a65,65,0,1,0-63.67,78h26a13,13,0,0,0,0-26h-26a39,39,0,0,1-36.77-26h88.75a13,13,0,0,0,13-13A65.41,65.41,0,0,0,745.88,417.53Zm-100.44,0a39,39,0,0,1,73.54,0Z" style="fill:#261d5e"/><path d="M1169,417.53a65,65,0,1,0-63.68,78h26a13,13,0,1,0,0-26h-26a39,39,0,0,1-36.76-26h88.74a13,13,0,0,0,13-13A65.41,65.41,0,0,0,1169,417.53Zm-100.44,0a39,39,0,0,1,73.53,0Z" style="fill:#261d5e"/><path d="M950.41,365.7a65,65,0,0,0-65,65v93a13,13,0,0,0,26,0V482.65a65,65,0,1,0,39-116.95Zm0,104a39,39,0,0,1-39-38.89v-.09a39,39,0,1,1,39,39Z" style="fill:#261d5e"/><path d="M1273.15,378.72a13,13,0,0,1-13,13,39,39,0,0,0-39,39v52a13,13,0,1,1-26,0v-104a13,13,0,1,1,26,0v0a64.73,64.73,0,0,1,39-13A13,13,0,0,1,1273.15,378.72Z" style="fill:#261d5e"/><path d="M1466,456.6a39,39,0,0,1-39,39v.13h-26a13,13,0,1,1,0-26h26v0a13,13,0,0,0,0-26,39,39,0,1,1,0-78v0h26a13,13,0,1,1,0,26h-26v0a13,13,0,1,0,0,26A39,39,0,0,1,1466,456.6Z" style="fill:#261d5e"/><path d="M1376.67,482.5a13,13,0,0,1-13,13c-.45,0-.89,0-1.33-.06l-.24,0H1362l-.1,0-.2,0-.31,0h0a40.35,40.35,0,0,1-6.54-1.83c-.9-.32-1.47-.55-1.47-.55a65,65,0,0,1-41.51-60.2v-31h0V391.45h-14.34a13,13,0,0,1,0-26h14.34V336.4a13.06,13.06,0,0,1,11.72-11.26H1326a13.05,13.05,0,0,1,11.84,13v27.33h14.33a13,13,0,1,1,0,26h-14.33v15.28h0v26.7h0a38.72,38.72,0,0,0,6.8,20.93h0c0,.08.45.69,1.18,1.63l.18.23a39.37,39.37,0,0,0,7.86,7.61h0a18.89,18.89,0,0,0,3.29,2.2,36.52,36.52,0,0,0,9.19,4h0l1,.25a15.74,15.74,0,0,1,3.31,1.29c.27.18.54.36.79.55l.22.17.09.07c.19.15.39.32.59.5l.16.15c.19.18.39.37.58.58a12.75,12.75,0,0,1,2.42,3.62c.06.13.12.26.17.39s.09.24.13.35a13.32,13.32,0,0,1,.72,2.94v.05A13.34,13.34,0,0,1,1376.67,482.5Z" style="fill:#261d5e"/><path d="M868.34,492.53A13,13,0,0,1,850,490.92L816.3,450.73l-33.68,40.14a13,13,0,0,1-19.91-16.7l36.63-43.66-36.65-43.68a13,13,0,1,1,19.9-16.71L816.3,410.3,850,370.16a13,13,0,0,1,19.91,16.7l-36.63,43.65,36.67,43.71A13,13,0,0,1,868.34,492.53Z" style="fill:#261d5e"/><path d="M1493,494.24l83.42-36.87a19.08,19.08,0,0,0,8.37-27.68,19.25,19.25,0,0,0-16-8.76,18.85,18.85,0,0,0-7.69,1.64L1493,452.64" style="fill:#261d5e"/><path d="M1584.81,429.69a19.25,19.25,0,0,0-16-8.76,18.85,18.85,0,0,0-7.69,1.64L1493,452.64v21.08l83.42-36.85A19.06,19.06,0,0,0,1584.81,429.69Z" style="fill:#bac6de;mix-blend-mode:multiply"/><path d="M1493,452.64l68-30.07A19,19,0,0,1,1587.79,440h0a19,19,0,0,1-11.34,17.4L1493,494.24Z" style="fill:none;stroke:#27235e;stroke-linecap:round;stroke-linejoin:round;stroke-width:3px"/><path d="M1493,369.42l83.42,36.86a19,19,0,0,1,11.34,17.41v16.69a8.16,8.16,0,0,1-11.45,7.46L1493,411" style="fill:#261d5e"/><path d="M1576.34,447.84,1493,411V400.51l78.7,34.78a6,6,0,0,0,8.45-5.51v-20c0-.46-.07-.91-.1-1.36a19,19,0,0,1,7.71,15.24v16.69A8.16,8.16,0,0,1,1576.34,447.84Z" style="fill:#fff"/><path d="M1493,411l83.31,36.81a8.16,8.16,0,0,0,11.45-7.46V423.69a19,19,0,0,0-11.34-17.41L1493,369.42" style="fill:none;stroke:#27235e;stroke-linecap:round;stroke-linejoin:round;stroke-width:3px"/><path d="M590.16,369.43l-83.43,36.86A19.09,19.09,0,0,0,498.37,434a19.24,19.24,0,0,0,16,8.75,19,19,0,0,0,7.7-1.63L590.16,411" style="fill:#261d5e"/><path d="M498.37,434a19.24,19.24,0,0,0,16,8.75,19,19,0,0,0,7.7-1.63L590.16,411V390L506.73,426.8A19,19,0,0,0,498.37,434Z" style="fill:#bac6de;mix-blend-mode:multiply"/><path d="M590.15,411l-68,30.06a19,19,0,0,1-26.72-17.4h0a19,19,0,0,1,11.34-17.41l83.43-36.86Z" style="fill:none;stroke:#27235e;stroke-linecap:round;stroke-linejoin:round;stroke-width:3px"/><path d="M590.15,494.24l-83.43-36.86A19,19,0,0,1,495.38,440V423.29a8.16,8.16,0,0,1,11.46-7.46l83.31,36.81" style="fill:#261d5e"/><path d="M506.84,415.83l83.31,36.81v10.52l-78.71-34.78a6,6,0,0,0-8.44,5.5v20c0,.46.06.9.1,1.36A19,19,0,0,1,495.38,440V423.29A8.16,8.16,0,0,1,506.84,415.83Z" style="fill:#fff"/><path d="M590.15,452.64l-83.31-36.81a8.16,8.16,0,0,0-11.46,7.46V440a19,19,0,0,0,11.34,17.4l83.43,36.86" style="fill:none;stroke:#27235e;stroke-linecap:round;stroke-linejoin:round;stroke-width:3px"/></g></g></g></svg>