<?xml version="1.0" encoding="utf-8"?>
<!-- Generator: Adobe Illustrator 27.1.1, SVG Export Plug-In . SVG Version: 6.00 Build 0)  -->
<svg version="1.1" id="svg1059" xmlns:svg="http://www.w3.org/2000/svg"
	 xmlns="http://www.w3.org/2000/svg" xmlns:xlink="http://www.w3.org/1999/xlink" x="0px" y="0px" viewBox="0 0 512 512"
	 style="enable-background:new 0 0 512 512;" xml:space="preserve">
<style type="text/css">
	.st0{fill:url(#rect4176_00000062168786087379313520000007652064494321655941_);}
</style>
<g id="layer1" transform="translate(169.333 -118.746)">
	
		<linearGradient id="rect4176_00000157281664524828560390000013504802189476398228_" gradientUnits="userSpaceOnUse" x1="-148.0344" y1="374.7638" x2="321.3406" y2="374.7638">
		<stop  offset="0" style="stop-color:#EC1D3B;stop-opacity:0.933"/>
		<stop  offset="1" style="stop-color:#27235E"/>
	</linearGradient>
	<path id="rect4176" vector-effect="none" style="fill:url(#rect4176_00000157281664524828560390000013504802189476398228_);" d="
		M172,225.4V268h106.7v106.7h42.7c0-49.8,0-99.5,0-149.3H172z M193.3,310.7v42.7H236v-42.7H193.3z M193.3,353.4h-42.7v42.7h42.7
		V353.4z M150.6,396.1h-42.7v42.7h42.7V396.1z M107.9,438.7H65.4v42.7h42.6V438.7z M65.4,438.7v-42.7H22.7v42.7H65.4z M22.7,396.1
		v-42.7H-20v42.7H22.7z M-20,396.1h-42.7v42.7H-20V396.1z M-62.7,438.7h-42.7v42.7h42.7V438.7z M-105.3,481.4H-148v42.7h42.7V481.4z
		"/>
</g>
</svg>
