<?xml version="1.0" encoding="UTF-8"?>
<svg id="b" data-name="Layer 2" xmlns="http://www.w3.org/2000/svg" width="3724.049" height="3647.994" viewBox="0 0 3724.049 3647.994">
  <g id="c" data-name="CALENDAR WITH ORDER BOX">
    <g>
      <path d="m6.226,767.994v-384c16.429-12.108,36.808-.841,54.745-9.346,5.34-13.022,4.026-26.53.983-40.615-17.556-10.089-39.041,2.515-55.728-10.039-21.324,0,20.724,0-.6,0-.454-1.497-.075-2.888,1.381-3.294,1.794-.5,54.935-1.262-.052-1.262,17.663-.047-16.329.556,1.333.556,1.939-1.613-2.003-2.936.289-3.992,21.108-3.956,42.404-1.435,63.632-1.848,118.893-1.268,237.775-.432,356.656-.418,7.291,0,14.708.256,20.735,5.431-.962,13.473-12.066,10.335-19.516,10.755-22.581,1.272-45.237.341-67.862.543-8.553.076-17.28-.692-25.064,3.376-6.465,10.2-4.529,21.101-4.542,31.529-.148,122.506-.032,245.012-.172,367.517-.013,11.827,1.562,24.095-5.617,34.737-8.441,7.421-18.692,6.689-28.557,6.709-88.511.176-177.023.159-265.534.02-9.269-.015-18.809.479-26.51-6.36Z" fill="#699acb"/>
      <path d="m3718.247,323.994c-20.992,0,20.336,0,0,0-.978,1.507-1.609,2.027-1.61,2.548-.051,19.15-.042,38.301-.042,57.452-2.388.903-4.238.26-5.549-1.916-8.9-15.071.316-33.114-7.939-49.028-13.243-5.217-26.716-4.157-41.069-.682-5.454,14.31-5.3,28.218-.496,41.478,16.855,10.989,38.974-4.396,52.933,13.496.104,126.584.034,253.114.062,378.119-8.567,9.675-18.268,8.854-27.4,8.879-88.597.245-177.194.206-265.791.045-8.622-.016-17.428.272-25.052-5.028-6.551-7.866-5.891-17.448-5.903-26.682-.161-130.531-.173-261.062-.002-391.593.012-9.252-.386-18.754,5.841-26.97,8.324-7.223,18.669-5.638,28.465-5.668,63.239-.192,126.479-.025,189.719-.161,8.448-.018,17.566,1.966,24.213-5.754,5.869-14.306,4.992-28.38-.111-42.018-10.091-5.628-20.267-4.146-30.127-4.157-102.537-.112-205.073.022-307.609-.184-11.063-.022-22.87,2.268-32.468-6.21,3.143-11.524,13.206-10.008,21.189-10.051,114.217-.622,228.436-.52,342.655-.173,7.379.022,14.635.937,20.466,6.258,20.302,0,40.603-.003,60.905.005,1.711,0,2.619,1.215,3.067,3.995-16.439,12.106-36.807.863-54.758,9.302-5.316,13.037-4.015,26.548-.981,40.632,17.557,10.115,39.051-2.488,55.739,10.065,20.302,0-21.716-.003-1.414.005,1.711,0,2.619,1.215,3.067,3.995Z" fill="#699acb"/>
      <path d="m1541.551,67.994c0,40.651,0,81.302,0,121.954,1.04.683,2.05,1.889,3.128,1.952,3.983.236,7.988.094,11.984.094h622.344c1.281-1.158,2.202-1.602,2.202-2.047.066-40.651.061-81.302.061-121.953,20.778-4.265,41.695-.758,64.429-2.148,10.06,21.492,4.601,43.948,5.525,65.675.476,41.193.728,82.389-.115,123.581.508,21.592.603,43.187-.017,64.784-1.374,21.58,5.248,43.833-5.398,64.65-21.676,8.612-43.344,8.788-64.999-.13-6.302-7.962-5.474-17.507-5.716-26.751-.61-23.292,1.232-46.568.619-69.861-.189-7.184,1.388-14.751-3.233-20.492-6.927-7.368-15.318-5.602-23.109-5.605-191.594-.09-383.188-.083-574.782-.009-7.824.003-16.146-1.655-22.661,4.682-8.733,17.7-2.205,36.613-4.48,54.797-1.278,21.198,5.233,43.049-5.406,63.447-21.662,8.455-43.303,8.711-64.925-.209-6.712-8.625-5.685-18.892-5.683-28.775.006-33.294,1.087-66.584.573-99.886.905-62.444-1.522-124.979,1.06-189.029,25.608-.298,47.08-2.548,68.6,1.28Z"/>
      <path d="m2437.157,67.994c0,40.65,0,81.299,0,121.95,1.039.684,2.048,1.892,3.124,1.956,3.983.236,7.988.094,11.984.094h558.354c1.3-1.166,2.223-1.608,2.224-2.051.066-40.65.061-81.299.061-121.949,20.778-4.265,41.695-.758,64.429-2.148,10.06,21.492,4.601,43.948,5.525,65.675.476,41.193.728,82.389-.115,123.581.508,21.592.603,43.186-.017,64.784-1.371,21.578,5.243,43.827-5.391,64.644-21.656,8.64-43.31,8.748-64.959-.074-6.342-7.946-5.505-17.495-5.748-26.739-.613-23.295,1.223-46.575.596-69.87-.193-7.172,1.51-14.762-3.738-21.169-6.302-6.795-14.707-4.975-22.483-4.979-170.326-.096-340.652-.089-510.978-.011-7.821.004-16.15-1.675-22.651,4.701-8.668,17.696-2.112,36.616-4.527,54.784-1.188,21.2,5.383,43.04-5.314,63.442-21.662,8.454-43.303,8.711-64.925-.21-6.713-8.624-5.685-18.892-5.683-28.775.006-33.295,1.087-66.584.573-99.886.899-62.444-1.511-124.979,1.058-189.029,25.61-.298,47.083-2.548,68.602,1.28Z"/>
      <path d="m709.916,67.994c0,40.65,0,81.299,0,121.95,1.039.684,2.048,1.892,3.124,1.956,3.983.236,7.988.094,11.984.094,181.844,0,363.688.005,545.532-.03,4.575,0,9.2.628,13.39-.481.731-.656,1.655-1.097,1.655-1.54.066-40.649.061-81.299.061-121.949,20.778-4.265,41.696-.759,64.429-2.148,10.06,21.493,4.601,43.949,5.525,65.676.476,41.201.726,82.405-.114,123.605.518,21.635.597,43.273-.011,64.914-1.367,21.625,5.529,43.98-5.675,64.747-21.291,9.196-42.592,4.315-65.011,2.247-12.99-41.032,1.868-82.404-7.426-119.421-8.392-7.548-16.032-5.912-23.189-5.916-170.433-.09-340.867-.086-511.3-.01-7.831.003-16.156-1.647-22.687,4.668-8.788,17.696-2.22,36.622-4.507,54.809-1.278,21.198,5.232,43.05-5.406,63.449-21.662,8.456-43.303,8.711-64.925-.209-6.712-8.625-5.685-18.892-5.683-28.775.006-33.294,1.087-66.584.573-99.885.886-62.444-1.488-124.978,1.055-189.029,25.613-.298,47.086-2.548,68.605,1.28Z"/>
      <path d="m70.197,195.994c-.471-1.527-.058-3.141,1.423-3.32,3.881-.47,7.818-.654,11.732-.655,117.869-.03,235.738-.025,353.606-.025h15.108c1.059-1.124,1.905-1.602,1.906-2.082.061-40.639.056-81.279.056-121.918,20.778-4.265,41.695-.759,64.429-2.148,10.06,21.493,4.601,43.949,5.525,65.676.476,41.198.726,82.399-.114,123.596.514,21.625.598,43.253-.013,64.885-1.426,21.678,5.635,44.121-5.819,64.911-21.054,9.052-42.203,3.801-63.939,2.799-9.682-23.591-7.689-45.377-2.574-67.304-7.886-16.865.022-35.912-7.013-52.979-9.584-7.091-20.579-4.948-30.986-4.966-103.244-.171-206.489-.036-309.734-.178-11.184-.015-22.774,1.464-34.957-6.59-.196-19.074-2.579-39.353,1.364-59.702Z"/>
      <path d="m3652.623,255.994c-123.571,0-247.143-.008-370.714.037-3.899.001-7.887-.759-11.699.594-1.484.526-1.886,1.846-1.418,3.369,11.356,19.064,4.387,39.906,5.845,59.935-1.369,21.556,5.225,43.781-5.369,64.583-21.677,8.651-43.35,8.77-65.018-.102-6.719-8.622-5.693-18.89-5.691-28.774.006-33.297,1.087-66.589.573-99.893.881-62.445-1.48-124.978,1.052-189.029,25.616-.299,47.089-2.548,68.608,1.28,0,40.642,0,81.284-.001,121.928,1.031.692,2.045,1.945,3.098,1.979,5.988.192,11.985.093,17.978.093,115.213,0,230.426-.013,345.64.041,5.238.003,10.527-.674,15.375.387.768.71,1.679,1.158,1.681,1.61.07,20.654.06,41.309.06,61.963Z"/>
      <path d="m70.197,195.994c0,19.32,0,38.64,0,57.962,1.042.68,2.068,1.913,3.132,1.947,5.987.19,11.984.092,17.977.092,115.204,0,230.409-.013,345.614.041,5.238.002,10.526-.678,15.338.381.794.726,1.709,1.171,1.71,1.62.07,20.652.061,41.305.061,61.958-1.333,1.898-2.665,1.898-3.998,0H70.197c-10.224-20.777-6.279-42.441-3.998-64,0-18.979-.003-37.959.005-56.938,0-1.704,1.215-2.61,3.993-3.062Z" fill="#a7c3df"/>
      <path d="m3268.791,67.994c-20.562,0-41.123-.008-61.684.05-.498.002-.995.752-1.492,1.154-.265.554-.763,1.107-.763,1.661-.035,61.712-.033,123.423-.033,185.135-2.65.345-4.733-.585-6.257-2.774-6.985-17.373-2.674-35.567-3.766-53.373-1.252-20.426,2.417-41.133-3.007-62.943-38.247-7.491-77.019,1.456-114.914-4.91,0-20.477.007-40.955-.042-61.432-.001-.523-.624-1.045-.958-1.568-.522-.333-1.044-.957-1.567-.958-20.469-.049-40.937-.042-61.406-.042-.455-1.499-.075-2.891,1.384-3.297,1.797-.5,3.735-.671,5.612-.676,18.992-.045,37.984-.028,56.976-.028,1.601-1.159,2.991-2.968,4.937-3.223,39.351-5.151,78.718-5.151,118.069,0,1.946.255,3.337,2.064,4.938,3.223,20.302,0,40.603-.003,60.905.005,1.711,0,2.618,1.215,3.067,3.995Z" fill="#dcaa44"/>
      <path d="m2437.157,67.994c-20.562,0-41.123-.008-61.684.05-.498.001-.995.752-1.492,1.153-.265.554-.763,1.107-.763,1.661-.035,61.712-.033,123.423-.033,185.135-2.65.345-4.733-.585-6.257-2.774-6.985-17.373-2.674-35.567-3.765-53.373-1.252-20.426,2.417-41.133-3.007-62.943-38.247-7.491-77.019,1.456-114.914-4.91,0-20.477.007-40.955-.042-61.432-.001-.523-.624-1.045-.958-1.568-.522-.333-1.044-.957-1.567-.958-20.469-.049-40.937-.042-61.406-.042-.455-1.499-.075-2.891,1.384-3.297,1.797-.5,3.735-.671,5.612-.676,18.992-.045,37.984-.028,56.976-.028,1.601-1.159,2.991-2.968,4.937-3.223,39.351-5.151,78.718-5.151,118.069,0,1.947.255,3.337,2.064,4.938,3.223,20.302,0,40.603-.003,60.905.005,1.711,0,2.618,1.215,3.067,3.995Z" fill="#dcaa44"/>
      <path d="m1349.635,131.994c0-20.477.007-40.955-.042-61.432-.001-.523-.625-1.045-.958-1.568-.522-.333-1.044-.957-1.567-.958-20.468-.049-40.937-.042-61.405-.042-.455-1.499-.075-2.891,1.384-3.297,1.797-.5,3.735-.671,5.612-.676,18.992-.045,37.984-.028,56.976-.028,1.601-1.159,2.991-2.969,4.937-3.223,39.351-5.151,78.718-5.151,118.069,0,1.946.255,3.337,2.064,4.938,3.223,20.302,0,40.603-.003,60.905.005,1.711,0,2.618,1.215,3.067,3.995-20.561,0-41.123-.008-61.684.05-.498.001-.994.752-1.492,1.153-.265.554-.763,1.107-.763,1.661-.035,61.712-.033,123.423-.033,185.135-2.65.345-4.733-.585-6.257-2.774-6.985-17.373-2.841-35.561-3.722-53.375-1.01-20.444,1.519-41.083-2.24-62.783-39.057-7.65-77.83,1.297-115.725-5.069Z" fill="#dcaa44"/>
      <path d="m518.001,131.994c0-20.477.007-40.955-.042-61.432-.001-.523-.624-1.045-.958-1.568-.522-.333-1.044-.957-1.567-.958-20.468-.049-40.937-.042-61.405-.042-.455-1.499-.075-2.891,1.384-3.297,1.797-.5,3.735-.671,5.612-.676,18.992-.045,37.984-.028,56.976-.028,1.6-1.159,2.991-2.968,4.937-3.223,39.351-5.151,78.718-5.151,118.069,0,1.947.255,3.337,2.064,4.937,3.223,20.302,0,40.603-.003,60.905.005,1.711,0,2.618,1.215,3.067,3.995-20.561,0-41.123-.008-61.685.05-.498.002-.994.752-1.492,1.154-.265.554-.763,1.107-.763,1.661-.035,61.712-.033,123.423-.033,185.135-2.65.345-4.733-.585-6.257-2.774-6.985-17.373-2.673-35.568-3.765-53.373-1.253-20.426,2.419-41.133-3.008-62.943-38.247-7.491-77.019,1.456-114.914-4.91Z" fill="#dcaa44"/>
      <path d="m1477.579,63.994h-127.944c0-20.639,0-41.278,0-61.917,1.027-.695,2.053-1.993,3.082-1.995,40.594-.102,81.187-.09,121.781-.06.576,0,1.153.404,1.729.62.451.479,1.294.957,1.296,1.437.066,20.639.057,41.277.057,61.916Z" fill="#010101"/>
      <path d="m2373.185,63.994h-127.944c0-20.639,0-41.278,0-61.917,1.027-.695,2.053-1.993,3.082-1.995,40.593-.102,81.188-.09,121.781-.06.576,0,1.153.404,1.729.62.451.479,1.294.957,1.296,1.437.066,20.639.057,41.277.057,61.916Z" fill="#010101"/>
      <path d="m3204.82,63.994h-127.944c0-20.639,0-41.278-.001-61.917,1.027-.695,2.053-1.993,3.082-1.995,40.593-.102,81.187-.09,121.781-.06.576,0,1.153.405,1.729.62.451.479,1.294.957,1.296,1.437.066,20.639.057,41.277.057,61.916Z" fill="#010101"/>
      <path d="m645.944,63.994h-127.944c0-20.639,0-41.278,0-61.917,1.027-.695,2.053-1.993,3.082-1.995,40.594-.102,81.188-.09,121.781-.06.576,0,1.152.404,1.729.62.451.479,1.294.957,1.296,1.437.066,20.639.057,41.277.057,61.916Z" fill="#010101"/>
      <path d="m66.199,255.994c0,.663-.275,1.55.049,1.95,1.231,1.517,2.657,2.876,3.949,4.231v57.819H6.226c-3.147-20-3.146-40,0-60-.454-1.497-.075-2.888,1.381-3.294,1.794-.5,3.729-.673,5.604-.678,17.663-.047,35.325-.028,52.988-.028Z" fill="#020202"/>
      <path d="m3716.595,319.994c-20.619,0-41.239,0-61.86,0-.705-1.016-2.015-2.029-2.022-3.051-.125-17.966-.096-35.933-.062-53.9.002-.574.418-1.146.641-1.719.481-.444.961-1.274,1.444-1.275,20.619-.065,41.239-.056,61.859-.056v60Z" fill="#020202"/>
      <path d="m6.226,259.994v60h-3.998c0-18.979-.003-37.959.005-56.938,0-1.704,1.215-2.61,3.993-3.062Z" fill="#a6c3de"/>
      <path d="m3520.681,2815.994c-168.567,0-337.133,0-505.701-.001-.693,1.031-1.949,2.044-1.983,3.097-.192,5.993-.093,11.995-.093,17.994v489.001c-1.207,1.054-1.696,1.856-2.186,1.856-467.722.053-935.445.052-1403.168.053-.677-1.047-1.903-2.077-1.936-3.145-.189-5.993-.091-11.995-.091-17.994v-616.969c-1.23-1.051-1.722-1.841-2.214-1.841-467.056-.052-934.113-.052-1401.169-.052-3.129-4.889-1.885-10.367-1.884-15.593.032-526.85-.229-1053.7.078-1580.554.32-2.809,1.664-4.983,4.018-6.545,13.375-5.953,27.571-3.718,41.428-3.72,851.538-.111,1703.077-.099,2554.615-.099,227.876,0,455.753-.046,683.629.12,12.414.009,25.492-2.638,36.809,5.49,3.32,6.995,1.705,14.448,1.706,21.67.086,561.876.087,1123.751-.011,1685.627-.001,7.195,1.812,14.673-1.847,21.605Z" fill="#f3f4f8"/>
      <path d="m450.03,319.994h3.998c0,20.477-.007,40.955.042,61.432.001.523.624,1.045.958,1.568.522.333,1.044.957,1.567.958,20.468.049,40.937.042,61.405.042.267,1.145.535,2.291.804,3.436-1.395,1.972-3.224,3.386-5.47,4.27-19.618,3.604-39.33,2.189-59.036,1.048-19.481-2.823-38.974-6.58-58.26.804-1.634,2.134-3.703,4.114-3.804,6.885-2.005,55.004-.86,109.884,6.05,164.555,17.962,12.129,42.521-3.809,58.15,14.822,7.412,15.62.204,33.228,8.281,53.586,76.987.929,155.634.44,233.103.273,10.267-18.413,2.61-36.149,8.628-51.794,1.411-3.43,3.75-6.07,6.842-8.05,16.064-7.463,34.104-.026,51.38-6.627,6.606-16.116,1.921-33.407,3.533-50.122-.029-2.302-.02-4.593-.049-6.892-1.277-38.467,1.545-77.048-1.711-115.261-18.08-9.847-37.412-.479-53.981-8.457-.855-.816-1.7-1.647-2.545-2.477v-64c10.327-8.552,22.769-6.305,34.548-6.316,165.246-.148,330.493-.056,495.739-.185,10.451-.008,21.364,1.962,31.716-4.503,5.177-12.623,3.954-25.378.671-37.586-11.024-6.876-21.937-4.9-32.387-4.909-165.246-.129-330.493-.038-495.739-.185-11.779-.011-24.221,2.237-34.548-6.316-.469-1.525-.076-2.923,1.422-3.36,4.492-1.309,9.136-.607,13.707-.609,140.328-.039,280.657-.032,420.985-.032h137.646c.672,1.081,1.901,2.138,1.904,3.199.099,37.925.069,75.85.107,113.775.003,3.236-.476,6.53.382,9.456.75.687,1.231,1.514,1.715,1.515,20.617.064,41.234.055,61.851.055.267,1.145.535,2.291.804,3.436-1.395,1.972-3.224,3.386-5.47,4.27-19.618,3.604-39.329,2.189-59.035,1.048-19.48-2.825-38.973-6.575-58.259.799-1.634,2.134-3.706,4.112-3.806,6.883-1.987,54.999-.921,109.878,6.075,164.585,17.914,12.111,42.462-3.815,58.111,14.762,7.817,15.893-.544,34.266,7.946,51.691,26.279,4.831,53.322,1.054,80.1,2.537,12.72.704,26.684-3.911,37.47,7.256-4.468,10.353-14.123,8.045-22.309,8.961-10.4,1.164-21.37-1.783-30.944,4.189-5.848,18.62-5.973,83.72-.179,102.983,10.147,6.406,21.752,4.079,32.835,4.083,382.131.116,764.261.102,1146.392.091,8.653,0,17.308-.139,25.954.482,11.972-1.022,23.962-.534,35.94-.535,252.993-.023,505.987-.058,758.98.09,12.402.007,25.539-2.577,36.495,6.39,104.446,0,208.891.002,313.337-.043.522,0,1.043-.65,1.565-.997.32-.533.919-1.066.919-1.599.041-127.12.04-254.241.04-381.361h3.998c0,148.655,0,297.309,0,445.965-1.044.679-2.072,1.91-3.137,1.944-5.991.19-11.991.092-17.988.092H27.381c-5.997,0-11.994.016-17.99-.026-.586-.004-1.17-.367-1.725-.553-.493-.488-1.379-.956-1.381-1.426-.069-20.665-.059-41.33-.059-61.995,105.773,0,211.546.002,317.319-.042.523,0,1.046-.644,1.57-.987.323-.532.93-1.063.93-1.594.041-146.417.04-292.834.039-439.252,1.012-.709,2.024-2.032,3.039-2.035,37.253-.106,74.507-.077,111.76-.114,2.58-.003,5.202-.149,7.722-.648,1.498-.296,1.895-1.801,1.425-3.327Z" fill="#4d82b7"/>
      <path d="m3520.681,2815.994v-1728c-7.765-8.993-6.121-20.007-6.436-30.544-.851-28.505,1.63-57.134-1.585-84.764-17.784-7.713-3276.477-9.079-3299.991-1.932-6.471,10.727-3.659,22.984-3.937,34.711-.49,20.653.131,41.324-.315,61.984-.16,7.408-.945,14.689-6.277,20.546-1.333,1.809-2.665,1.809-3.998,0,0-63.316,0-126.631,0-189.948,1.038-.685,2.057-1.918,3.12-1.959,5.322-.203,10.655-.093,15.985-.093h3305.358c1.475.945,2.08,2.021,2.078,3.363-.007,5.998-.003,11.997-.003,17.995,0,625.826.002,1251.651-.033,1877.477,0,6.582.688,13.214-.619,19.738-.301,1.503-1.819,1.898-3.346,1.427Z" fill="#cacddf"/>
      <path d="m130.171,2687.994H10.224c-3.657-6.93-1.846-14.407-1.847-21.601-.098-539.781-.092-1079.561-.061-1619.341,0-7.282-.661-14.628,1.655-25.29,39.513-7.391,79.583-5.455,117.969-1.445,5.829,10.097,4.086,17.583,4.087,24.737.088,541.113.087,1082.227.002,1623.34,0,6.535,1.658,13.351-1.858,19.6Z" fill="#bdc4dd"/>
      <path d="m3716.595,3583.994v64c-702.646,0-1405.292,0-2107.938-.025-.582,0-1.163-.382-1.523-.507-.641-.597-1.549-1.048-1.551-1.502-.07-20.655-.061-41.311-.061-61.966,2.074-1.734,4.357-3.127,6.837-4.201,9.724-3.158,19.789-2.244,29.736-2.245,679.307-.057,1358.613-.055,2037.92-.002,9.947,0,20.012-.917,29.757,2.197,2.486,1.074,4.757,2.498,6.822,4.251Z" fill="#99a4ca"/>
      <path d="m3140.848,3327.994c-20.627,0-41.254,0-61.882,0-.698-1.024-1.908-2.008-1.994-3.082-.263-3.308-.096-6.649-.096-9.977v-432.744c1.081-1.805,2.174-2.232,3.58-2.221,6.653.054,13.308.024,19.961.024,135.739,0,271.477-.011,407.216.043,5.228.002,10.512-.717,15.558.458.59.631,1.43,1.109,1.432,1.59.065,20.636.056,41.272.056,61.908-.823.791-1.646,1.581-2.46,2.386-16.569,7.762-35.445-1.012-52.064,6.88-8.96,17.753,2.554,38.661-9.311,55.588-16.749,10.447-36.583.65-54.524,8.246-8.995,17.216,2.217,38.133-8.857,55.179-16.635,11.385-36.666,1.239-54.895,8.735-9.409,16.957,2.049,38.053-8.959,55.136-9.719,7.75-21.317,5.19-32.321,5.8-7.793.432-15.834-.842-23.288,3.523-7.907,17.316,1.883,37.145-7.8,54.02-8.742,8.084-19.713,5.706-30.029,6.293-8.456.481-17.147-1.003-25.835,3.493-8.138,16.263-.047,34.979-6.152,51.81-.944,2.137-2.401,3.854-4.315,5.18-17.256,7.532-36.616-.409-53.916,6.31-7.567,17.621.889,36.369-6.726,53.027-.785.804-1.582,1.598-2.38,2.392Z" fill="#babed6"/>
      <path d="m3716.595,3582.506h-3.998c-11.744-21.278-4.339-44.325-5.901-66.551-1.032-9.527-.562-19.083-.563-28.623-.019-825.126-.007-1650.252-.121-2475.379-.002-12.713,2.395-25.921-5.178-40.055-31.918-4.223-64.606-2.377-95.966-1.081-7.874,14.39-5.638,26.91-5.64,38.958-.112,580.316-.095,1160.632-.1,1740.948,0,49.098.145,98.197-.114,147.295-.053,10.056,1.358,20.706-6.404,29.097-1.318.173-2.639.342-3.96.512,0-697.805,0-1395.609-.001-2093.415,1.008-.732,2.016-2.099,3.026-2.101,40.646-.108,81.292-.095,121.938-.061.567,0,1.134.461,1.701.706.427.501,1.227,1.003,1.227,1.504.053,916.082.053,1832.164.053,2748.246Z" fill="#a6afd0"/>
      <path d="m130.171,3647.699c0-870.385,0-1740.77,0-2611.158-1.001-1.135-2.001-3.254-3.005-3.258-37.979-.168-75.959-.147-113.938-.097-.569,0-1.138.69-1.708,1.059-.432.766-1.243,1.532-1.243,2.298-.054,870.385-.053,1740.771-.053,2611.156-1.528.74-2.813.086-3.365-2.249-.432-1.829-.589-3.904-.607-5.876-.067-7.329-.027-14.661-.027-21.992V862.12c0-8.379-.018-16.757.026-25.135.005-.921.37-1.837.544-2.646.511-.823.975-2.225,1.44-2.226,41.307-.1,82.615-.093,123.924-.094.671,1.654,1.878,3.278,1.918,4.97.2,8.366.091,16.752.091,25.13,0,918.487.003,1836.974-.038,2755.462,0,9.293.821,18.686-.605,27.874-.367,2.367-1.827,2.984-3.355,2.243Z" fill="#a6afd0"/>
      <path d="m1605.523,3519.994c0-41.97,0-83.941-.001-125.913,1.026-.697,2.034-1.96,3.083-1.994,5.987-.193,11.983-.094,17.976-.094h1514.267c1.256.384,2.512.769,3.768,1.153-.427,1.243-.853,2.486-1.275,3.733-11.324,8.096-24.394,5.421-36.8,5.426-349.614.153-699.228.119-1048.842.121-135.184,0-270.368-.024-405.552.045-10.539.005-21.295-1.194-33.218,3.977-7.095,34.175-.018,69.587-4.073,104.358-.485,2.576-1.426,4.989-2.753,7.247-.911.905-1.841,1.806-2.771,2.708-1.269-.255-2.539-.511-3.808-.766Z" fill="#a5aecf"/>
      <path d="m198.141,1087.994h3.998v1600c-1.527.471-2.812.055-3.363-1.43-.432-1.163-.593-2.483-.608-3.736-.063-5.329-.027-10.659-.027-15.988v-1578.846Z" fill="#e4e7ef"/>
      <path d="m3144.846,3391.994h-3.998v-64c16.328-12.083,36.517-1.193,54.319-9.165,9.424-16.903-2.912-38.228,9.653-54.835,20.779-10.171,41.962-7.544,63.25-2.016,2.05,1.644,3.548,3.702,4.543,6.131,3.249,20.249,4.824,40.425-2.297,60.595-20.788,9.749-42.807,2.589-63.131,7.852-17.404,3.154-35.553-1.656-52.687,4.061-8.201,15.937.252,33.649-7.255,48.96-.79.811-1.593,1.614-2.396,2.416Z" fill="#a5aecf"/>
      <path d="m3524.679,2943.994h63.972c10.951,20.893,6.331,42.109,2.559,64.402-21.796,9.056-43.609,5.772-65.194,4.993-2.277-1.39-3.929-3.327-4.991-5.772-2.524-21.411-7.077-42.959,3.654-63.623Z" fill="#a5aecf"/>
      <path d="m6.226,323.994c20.619,0,41.239,0,61.86,0,.705,1.016,2.015,2.029,2.022,3.051.125,17.966.096,35.933.062,53.9-.001.574-.418,1.146-.641,1.719-.481.444-.962,1.274-1.445,1.275-20.619.065-41.239.056-61.858.056v-60Z" fill="#a6c3de"/>
      <path d="m1605.523,3519.994h3.998c9.864,21.333,9.227,42.667,0,64h-3.998v-64Z" fill="#bdc4dd"/>
      <path d="m3396.735,767.994h-831.635c-8.146-9.67-6.288-21.404-6.301-32.554-.144-123.937-.056-247.874-.133-371.811-.006-9.865,1.172-19.99-4.358-30.637-20.442-5.083-41.778-1.701-62.83-2.549-11.306-.455-22.699.691-33.933-.678-6.708-.818-15.506.402-16.757-10.086,10.356-8.557,22.819-5.964,34.523-5.978,163.68-.185,327.361-.09,491.041-.194,10.497-.007,21.309,1.633,32.393-3.993,5.697-12.11,4.5-24.928,1.001-37.851-9.671-7.395-20.681-5.146-31.062-5.156-165.676-.148-331.353-.051-497.029-.198-11.762-.011-24.187,2.227-34.496-6.317-.471-1.528-.076-2.929,1.426-3.364,4.501-1.302,9.151-.604,13.73-.605,145.199-.039,290.398-.032,435.597-.032,37.965,0,75.93-.019,113.895.034,3.24.005,6.553-.633,9.664.527.522.546,1.378,1.023,1.379,1.501.061,41.979.057,83.959.057,125.939-.819.785-1.638,1.569-2.448,2.367-11.192,5.195-23.13,2.715-34.765,3.317-7.125.369-14.462-.647-20.759,3.863-1.637,2.129-3.718,4.106-3.818,6.874-1.987,55.011-.968,109.903,6.089,164.607,17.919,12.103,42.484-3.844,58.112,14.798,7.408,15.62.199,33.228,8.349,53.755,76.919.56,155.564.364,233.074.021,10.223-18.338,2.567-36.073,8.585-51.718,1.412-3.43,3.751-6.069,6.843-8.05,16.064-7.462,34.104-.026,51.38-6.626,6.606-16.117,1.921-33.407,3.533-50.122-.029-2.302-.02-4.593-.05-6.892-1.278-38.467,1.548-77.048-1.714-115.262-18.078-9.845-37.409-.477-53.978-8.455-.855-.817-1.7-1.647-2.545-2.477v-64c7.678-6.841,17.2-6.382,26.457-6.394,108.973-.137,217.945-.137,326.918,0,9.257.012,18.78-.447,26.458,6.394.47,1.528.065,3.098-1.426,3.324-3.205.486-6.485.65-9.734.651-75.929.032-151.859.013-227.788.06-3.893.002-7.861-.685-11.655.673-.448.525-1.235,1.017-1.235,1.51-.053,147.261-.052,294.522-.052,441.783Z" fill="#84acd5"/>
      <path d="m3648.624,319.994h-379.833v-60c125.609,0,251.219,0,376.828.029.568,0,1.136.437,1.704.67.433.485,1.245.969,1.246,1.456.064,19.282.055,38.563.055,57.845Z" fill="#a7c3df"/>
      <path d="m3712.596,383.994c-19.202,0-38.404.009-57.606-.048-.505-.002-1.008-.715-1.512-1.096-.285-.544-.818-1.088-.82-1.633-.043-18.507-.036-37.015-.036-55.695,5.055-3.105,10.424-1.003,15.491-1.443,4.6-.399,9.263-.084,13.898-.084h28.795c1.028,1.36,1.741,1.864,1.742,2.369.057,19.21.048,38.42.048,57.631Z" fill="#a6c2de"/>
      <path d="m2441.155,319.994c-.471,1.528-.073,3.034,1.428,3.33,2.523.498,5.149.642,7.732.645,35.297.038,70.593.011,105.89.055,2.56.003,5.226-.626,7.553.602.526.64,1.292,1.137,1.292,1.635.052,147.245.05,294.489.05,441.734h-1213.466c-.959-.959-1.841-1.429-1.842-1.901-.097-39.943-.129-79.886-.107-119.829,0-.497.763-.994,1.461-1.847,1.582-.125,3.48-.4,5.378-.404,17.973-.033,35.945-.016,53.918-.024,1.831,0,2.748-1.191,3.164-3.995.843-.802,1.687-1.605,2.522-2.421,27.959-7.279,56.45-1.739,84.643-3.474,10.39-.639,21.187,1.915,31.443-4.046,7.084-14.689.738-31.254,5.277-46.453.693-2.219,1.803-4.223,3.253-6.032,8.483-8.269,19.376-6.785,29.78-7.274,8.435-.396,17.108,1.062,26.028-3.358,6.356-16.152,1.801-33.422,3.312-50.175-.038-2.293-.033-4.572-.062-6.861-1.352-38.401,1.647-76.924-1.813-115.093-18.058-9.658-37.334-.399-53.899-8.339-.853-.816-1.697-1.645-2.541-2.474v-64c10.323-8.557,22.765-6.317,34.544-6.326,186.56-.142,373.121-.072,559.682-.151,10.489-.004,21.292,1.409,31.454-3.925,5.484-13.227,4.214-25.978.966-38.159-11.055-6.881-21.967-4.921-32.42-4.928-186.561-.123-373.121-.042-559.682-.184-11.778-.009-24.22,2.23-34.544-6.326-.471-1.528-.058-3.141,1.424-3.32,3.882-.47,7.82-.654,11.735-.655,123.89-.03,247.78-.025,371.671-.025h252.571c1.328,1.178,2.257,1.616,2.257,2.056.066,41.981.061,83.962.061,125.944-.835.799-1.67,1.598-2.495,2.41-16.219,7.571-34.51-.41-54.017,7.829-1.589,36.248-4.431,73.593,1.636,110.986,6.08,7.455,14.551,4.674,22.175,5.206,9.705.677,19.884-1.529,30.314,6.047,7.818,16.731,2.051,36.2,4.295,54.814.341,2.329.872,4.604,1.69,6.82.697,2.278,1.149,4.597,1.487,6.945,2.818,14.869-2.298,30.665,6.22,47.862,77.289,1.956,155.49.791,232.687.812,10.517-18.664,1.711-37.319,9.193-53.318,6.271-9.758,16.405-9.605,26.263-10.238,10.33-.663,21.017,1.41,31.571-3.645,5.714-18.06,1.464-36.601,3.073-54.721-1.436-38.988,1.757-78.111-1.856-116.748-17.982-9.968-37.275-.552-53.776-8.569-.864-.822-1.717-1.657-2.571-2.492v-64c1.333-1.408,2.666-1.408,3.998,0Z" fill="#699acb"/>
      <path d="m1541.551,259.994c211.186,0,422.372,0,633.559,0,.721,1.002,2.062,2.001,2.069,3.008.127,17.994.099,35.99.063,53.985-.001.57-.439,1.139-.672,1.709-.487.433-.974,1.245-1.461,1.245-211.186.054-422.372.053-633.558.053v-60Z" fill="#a7c4e0"/>
      <path d="m2373.185,383.994h63.972c.803,1.057,2.169,2.035,2.328,3.182,5.832,41.973,8.261,83.924-1.367,125.746-6.868,5.365-15.05,4.618-22.944,4.634-70.412.139-140.824.128-211.237.006-7.898-.014-16.058.756-23.125-4.189-4.671-5.29-5.509-11.864-5.634-18.452-.586-30.881-.546-61.767-.031-92.649.111-6.667,1.388-13.09,6.123-18.278h63.972c.79.821,1.58,1.641,2.384,2.452,7.916,16.593-1.218,35.7,8.374,54.454,35.258,1.996,71.214,1.984,106.482.005,9.526-18.761.396-37.859,8.293-54.476.795-.818,1.604-1.627,2.412-2.435Z" fill="#fff"/>
      <path d="m1285.663,387.994h63.972c11.937,14.935,1.167,34.116,10.248,52.461,35.059,2.908,71.133,1.916,106.577.543,10.049-18.602.682-37.899,8.683-54.533.803-.83,1.619-1.65,2.435-2.471h63.972c.803,1.057,2.168,2.035,2.328,3.182,5.832,41.973,8.261,83.923-1.366,125.745-6.867,5.365-15.048,4.619-22.943,4.634-70.408.139-140.815.128-211.222.006-7.896-.014-16.059.773-23.112-4.213-4.23-4.686-5.365-10.528-5.522-16.481-.812-30.898-.796-61.802-.007-92.699.151-5.921,1.057-11.861,5.957-16.174Z" fill="#fff"/>
      <path d="m2245.241,131.994c.662,0,1.549.275,1.947-.049,1.515-1.231,2.872-2.657,4.228-3.951,38.537,0,76.956-.004,115.375.047.508,0,1.014.704,1.521,1.079.291.542.837,1.084.838,1.626.04,41.749.036,83.499.036,125.248-.955.864-1.911,1.728-2.858,2.607-40.471,4.404-80.952,8.881-121.088-2.607v-124Z" fill="#e4be6d"/>
      <path d="m1473.581,255.994h3.998v128c-1.601,1.159-2.991,2.968-4.938,3.223-39.351,5.152-78.718,5.152-118.069,0-1.947-.255-3.337-2.064-4.938-3.223v-64c9.027-7.641,19.986-5.597,30.423-5.999,27.6-1.064,55.381,2.185,82.717-2.174,9.689-17.53.309-36.764,8.307-53.241.824-.868,1.661-1.727,2.499-2.586Z" fill="#cd8636"/>
      <path d="m2369.187,255.994h3.998v128c-1.601,1.159-2.991,2.968-4.938,3.223-39.351,5.152-78.718,5.152-118.068,0-1.947-.255-3.337-2.064-4.938-3.223v-64c8.972-7.617,19.883-5.755,30.301-6.118,27.567-.961,55.275,1.926,82.553-1.938,11.031-17.956-1.716-39.505,11.091-55.944Z" fill="#cd8636"/>
      <path d="m2369.187,255.994v62.529c-1.674.893-2.216,1.435-2.759,1.435-40.396.039-80.791.036-121.186.036v-64h123.945Z" fill="#ddab44"/>
      <path d="m2441.155,319.994h-3.998v-60c189.862,0,379.724,0,569.588,0,.721,1.002,2.062,2.001,2.069,3.009.127,17.994.099,35.989.063,53.984-.001.57-.438,1.139-.671,1.709-.487.433-.974,1.246-1.46,1.246-188.53.055-377.06.053-565.589.053Z" fill="#a7c4df"/>
      <path d="m3204.82,383.994h63.972c.803,1.057,2.169,2.035,2.328,3.182,5.832,41.973,8.261,83.924-1.367,125.746-6.867,5.365-15.049,4.618-22.943,4.634-70.409.139-140.818.128-211.227.006-7.896-.014-16.06.773-23.112-4.214-4.704-5.272-5.535-11.848-5.659-18.435-.584-30.878-.546-61.762-.031-92.641.111-6.667,1.389-13.089,6.124-18.276h63.972c.79.821,1.58,1.641,2.384,2.452,7.916,16.593-1.218,35.7,8.374,54.454,35.257,1.996,71.214,1.984,106.482.005,9.526-18.761.396-37.859,8.293-54.476.795-.818,1.603-1.627,2.412-2.435Z" fill="#fff"/>
      <path d="m3076.876,131.994c.662,0,1.548.275,1.947-.049,1.515-1.231,2.873-2.657,4.228-3.951,38.536,0,76.956-.004,115.375.047.508,0,1.014.704,1.521,1.079.291.542.837,1.084.838,1.626.04,41.749.036,83.499.036,125.249-.955.864-1.911,1.728-2.858,2.607-40.471,4.404-80.952,8.881-121.088-2.607v-124Z" fill="#e4be6d"/>
      <path d="m3200.821,255.994h3.998v128c-1.601,1.159-2.991,2.968-4.938,3.223-39.351,5.152-78.718,5.152-118.069,0-1.947-.255-3.337-2.064-4.938-3.223v-64c8.972-7.617,19.883-5.755,30.301-6.118,27.567-.961,55.275,1.926,82.554-1.938,11.031-17.956-1.716-39.505,11.091-55.944Z" fill="#cd8636"/>
      <path d="m3200.821,255.994v62.529c-1.674.893-2.216,1.435-2.759,1.435-40.395.039-80.791.036-121.186.036v-64h123.945Z" fill="#ddab44"/>
      <path d="m709.916,259.994c189.862,0,379.725,0,569.588,0,.721,1.002,2.061,2.001,2.069,3.009.127,17.994.098,35.989.062,53.984-.001.57-.438,1.14-.671,1.709-.487.433-.974,1.245-1.461,1.245-189.862.055-379.725.053-569.587.053v-60Z" fill="#86add5"/>
      <path d="m454.029,387.994h63.972c11.937,14.935,1.167,34.116,10.248,52.461,35.06,2.908,71.133,1.916,106.577.543,10.049-18.602.683-37.899,8.683-54.533.803-.83,1.619-1.651,2.435-2.471h63.972c.803,1.057,2.168,2.035,2.328,3.182,5.832,41.973,8.262,83.923-1.365,125.745-6.867,5.365-15.048,4.619-22.943,4.634-70.407.139-140.815.128-211.222.006-7.896-.014-16.059.773-23.112-4.213-4.23-4.686-5.365-10.528-5.522-16.481-.811-30.898-.796-61.802-.007-92.699.151-5.921,1.056-11.861,5.956-16.174Z" fill="#fff"/>
      <path d="m1349.635,131.994c.662,0,1.548.275,1.947-.049,1.515-1.231,2.872-2.656,4.228-3.951,38.537,0,76.956-.004,115.375.047.508,0,1.014.704,1.521,1.079.291.542.837,1.084.838,1.626.04,41.749.036,83.499.036,125.249-4.101,3.705-9.048,5.608-14.437,5.78-31.688,1.012-63.383,1.012-95.072,0-5.389-.172-10.336-2.075-14.437-5.78v-124Z" fill="#e4be6d"/>
      <path d="m641.946,255.994h3.998v128c-1.601,1.159-2.991,2.968-4.938,3.223-39.351,5.152-78.718,5.152-118.068,0-1.947-.255-3.337-2.064-4.938-3.223v-64c9.027-7.641,19.986-5.597,30.423-5.999,27.6-1.064,55.381,2.185,82.717-2.174,9.69-17.529.31-36.763,8.307-53.241.824-.868,1.661-1.727,2.499-2.586Z" fill="#cd8636"/>
      <path d="m1349.635,255.994h123.946c0,20.538.008,41.076-.047,61.614-.001.507-.707,1.012-1.084,1.519-.542.289-1.085.831-1.627.832-40.396.039-80.791.036-121.187.036v-64Z" fill="#ddab44"/>
      <path d="m518.001,131.994c.662,0,1.548.275,1.947-.049,1.515-1.231,2.872-2.657,4.228-3.951,38.537,0,76.956-.004,115.375.047.508,0,1.014.704,1.521,1.079.291.542.837,1.084.838,1.626.039,41.749.036,83.499.036,125.249-4.101,3.705-9.048,5.608-14.437,5.78-31.688,1.013-63.383,1.013-95.072,0-5.389-.172-10.336-2.075-14.437-5.78v-124Z" fill="#e4be6d"/>
      <path d="m518.001,255.994h123.946c0,20.538.008,41.076-.048,61.614-.001.507-.707,1.012-1.084,1.519-.542.289-1.085.831-1.627.832-40.395.039-80.791.036-121.186.036v-64Z" fill="#ddab44"/>
      <path d="m202.139,1087.994c0-41.996,0-83.992,0-125.989,1.052-.671,2.088-1.887,3.161-1.92,5.991-.188,11.991-.091,17.987-.091h3276.245c5.997,0,11.993-.016,17.99.026.585.004,1.168.37,1.678.543.527.514,1.419.978,1.42,1.443.064,41.996.059,83.992.059,125.988H202.139Z" fill="#e4e7ef"/>
      <path d="m1285.663,2305.157c1.922-.727,2.498-1.135,3.073-1.135,83.241-.029,166.481-.029,249.722,0,.578,0,1.155.401,1.733.614.453.478,1.303.957,1.303,1.435.058,83.943.056,167.887.057,251.832-1.024.699-2.045,1.996-3.075,2.003-17.979.124-35.959.09-53.939.09-61.931,0-123.862.013-185.793-.03-3.906-.003-7.868.592-11.697-.584-.478-.505-1.328-.983-1.328-1.462-.058-83.943-.056-167.887-.056-252.762Z" fill="#699acb"/>
      <path d="m837.86,2304.933c2.535-.475,3.77-.903,5.007-.911,116.57-.759,224.241-.5,249.429.564.5.489,1.392.954,1.392,1.419.061,83.943.059,167.887.06,251.831-1.003.72-2.002,2.059-3.01,2.066-17.979.127-35.959.092-53.939.092h-196.883c-1.105-1.081-1.997-1.545-1.997-2.011-.061-83.944-.059-167.887-.059-253.05Z" fill="#699acb"/>
      <path d="m390.057,2305.191c1.896-.746,2.468-1.169,3.041-1.169,83.241-.029,166.481-.03,249.722-.003.581,0,1.162.386,1.448.487.698.637,1.615,1.083,1.616,1.53.063,83.944.06,167.887.061,251.832-1.013.709-2.023,2.028-3.042,2.035-17.979.125-35.959.091-53.94.091-61.931,0-123.862.013-185.793-.029-3.909-.003-7.871.571-11.435-.483-.699-.638-1.617-1.084-1.617-1.531-.063-83.943-.061-167.887-.061-252.76Z" fill="#699acb"/>
      <path d="m2630.286,2047.994c-.755-1.884-1.185-2.455-1.185-3.026-.03-83.277-.03-166.555-.003-249.832,0-.583.379-1.165.52-1.573.569-.604,1.025-1.509,1.481-1.509,83.907-.062,167.814-.059,251.721-.06.714,1.008,2.042,2.014,2.049,3.028.126,17.987.091,35.975.091,53.963v196.864c-1.115,1.181-1.57,2.086-2.026,2.086-83.907.062-167.813.06-252.648.06Z" fill="#c75c5c"/>
      <path d="m2182.449,2047.994c-.736-1.91-1.152-2.484-1.152-3.059-.029-83.277-.029-166.555-.002-249.832,0-.579.393-1.159.447-1.308.711-.808,1.148-1.74,1.585-1.74,83.906-.064,167.813-.062,251.721-.062.704,1.019,2.011,2.035,2.018,3.06.124,17.987.09,35.975.09,53.963v196.64c-1.184,1.345-1.621,2.276-2.058,2.277-83.907.063-167.814.061-252.65.061Z" fill="#699acb"/>
      <path d="m1734.677,2047.994c-.754-1.886-1.182-2.458-1.182-3.029-.03-83.277-.03-166.554-.003-249.832,0-.582.38-1.165.515-1.553.581-.619,1.034-1.526,1.489-1.526,83.907-.062,167.813-.06,251.721-.061.713,1.009,2.04,2.015,2.047,3.03.126,17.987.091,35.975.091,53.963v196.846c-1.121,1.194-1.575,2.101-2.029,2.101-83.907.062-167.813.06-252.648.06Z" fill="#699acb"/>
      <path d="m2629.073,2305.151c1.926-.724,2.502-1.13,3.079-1.13,83.241-.028,166.481-.028,249.722,0,.577,0,1.154.403,1.731.617.452.479,1.299.958,1.3,1.437.058,83.943.056,167.887.057,251.832-1.026.697-2.049,1.991-3.08,1.998-17.979.124-35.959.089-53.939.089h-196.906c-1.059-1.123-1.907-1.602-1.907-2.081-.058-83.943-.056-167.887-.056-252.763Z" fill="#c75c5c"/>
      <path d="m644.868,1279.994c.678,1.985,1.052,2.569,1.052,3.153.026,83.277.026,166.555-.004,249.832,0,.57-.435,1.14-.666,1.711-.486.435-.971,1.251-1.458,1.251-83.907.056-167.813.054-251.721.054-.672-1.051-1.923-2.099-1.928-3.154-.115-20.652-.086-41.305-.086-61.958,0-59.96-.014-119.919.037-179.879.003-3.231-.7-6.551.577-9.633.567-.507,1.052-1.323,1.538-1.323,83.907-.056,167.813-.054,252.658-.054Z" fill="#699acb"/>
      <path d="m1093.748,1534.794c-1.894.748-2.466,1.172-3.038,1.172-83.241.029-166.481.029-249.722.003-.581,0-1.162-.385-1.469-.493-.682-.625-1.597-1.073-1.598-1.522-.063-83.944-.06-167.887-.061-251.832,1.013-.71,2.022-2.03,3.04-2.037,17.979-.125,35.959-.091,53.939-.091h196.685c1.247,1.144,2.163,1.592,2.163,2.041.063,83.943.061,167.887.061,252.76Z" fill="#699acb"/>
      <path d="m1541.551,1534.817c-1.911.735-2.485,1.15-3.06,1.15-83.241.029-166.481.028-249.722.001-.579,0-1.158-.394-1.737-.604-.456-.477-1.312-.954-1.312-1.431-.059-83.944-.056-167.887-.057-251.832,1.02-.703,2.036-2.009,3.061-2.017,17.979-.124,35.959-.09,53.939-.09h196.916c1.059,1.108,1.915,1.584,1.915,2.062.059,83.944.056,167.887.056,252.761Z" fill="#699acb"/>
      <path d="m2436.027,2303.994c.708,1.947,1.104,2.525,1.104,3.104.027,83.277.027,166.555-.002,249.832,0,.575-.413,1.15-.633,1.725-.481.446-.962,1.283-1.443,1.284-83.906.058-167.813.055-251.721.056-.688-1.034-1.968-2.066-1.975-3.105-.12-19.32-.088-38.64-.088-57.961,0-60.626-.013-121.252.031-181.878.003-3.905-.612-7.87.602-11.693.509-.472.99-1.309,1.471-1.309,83.906-.057,167.813-.055,252.654-.055Z" fill="#699acb"/>
      <path d="m1733.466,2305.113c1.954-.702,2.534-1.093,3.114-1.093,83.241-.027,166.481-.027,249.722.002.574,0,1.147.418,1.721.641.444.482,1.276.965,1.276,1.447.057,83.944.055,167.887.056,251.832-1.038.685-2.072,1.958-3.115,1.965-19.311.119-38.623.088-57.935.088h-192.893c-1.059-1.151-1.89-1.633-1.891-2.116-.057-83.944-.055-167.887-.055-252.766Z" fill="#699acb"/>
      <path d="m1733.466,1281.086c1.974-.687,2.556-1.067,3.138-1.067,83.241-.026,166.482-.026,249.722.003.571,0,1.143.429,1.714.657.438.485,1.259.969,1.259,1.454.056,83.943.054,167.887.055,251.832-1.046.677-2.089,1.935-3.139,1.942-19.311.118-38.623.086-57.935.086-61.265,0-122.53.008-183.795-.024-3.238-.002-6.535.483-9.458-.388-.685-.758-1.506-1.243-1.506-1.728-.056-83.944-.054-167.887-.054-252.768Z" fill="#699acb"/>
      <path d="m2629.073,1281.142c1.933-.719,2.51-1.121,3.087-1.121,83.241-.028,166.481-.028,249.722,0,.576,0,1.153.406,1.729.622.45.48,1.294.959,1.294,1.439.058,83.943.056,167.887.057,251.832-1.029.694-2.054,1.984-3.088,1.991-17.979.123-35.96.089-53.939.089-61.931,0-123.862.013-185.793-.03-3.905-.003-7.867.601-11.692-.592-.475-.507-1.319-.986-1.319-1.467-.058-83.943-.056-167.887-.056-252.763Z" fill="#c75c5c"/>
      <path d="m3077.985,1535.994c-.697-1.962-1.084-2.542-1.084-3.123-.027-83.277-.026-166.555.003-249.832,0-.573.421-1.146.646-1.719.483-.442.966-1.271,1.449-1.271,83.907-.057,167.813-.055,251.721-.055.682,1.041,1.95,2.079,1.957,3.124.119,19.32.087,38.64.087,57.961,0,61.292.013,122.584-.036,183.876-.003,3.234.678,6.552-.561,9.644-.56.512-1.043,1.341-1.526,1.342-83.907.057-167.813.055-252.655.055Z" fill="#c75c5c"/>
      <path d="m645.944,2046.875c-1.954.702-2.534,1.093-3.114,1.093-83.241.027-166.481.028-249.722-.001-.574,0-1.147-.418-1.721-.641-.444-.482-1.276-.965-1.276-1.447-.057-83.943-.055-167.887-.056-251.832,1.038-.685,2.072-1.959,3.115-1.965,19.311-.119,38.623-.087,57.935-.087,60.599,0,121.198-.014,181.798.032,3.902.003,7.865-.619,11.684.609.47.511,1.301.993,1.302,1.475.057,83.943.055,167.887.055,252.766Z" fill="#699acb"/>
      <path d="m837.86,1793.151c1.926-.724,2.502-1.13,3.079-1.13,83.241-.028,166.481-.028,249.722,0,.577,0,1.154.403,1.731.617.452.479,1.299.958,1.3,1.437.058,83.943.056,167.887.057,251.832-1.026.697-2.049,1.992-3.08,1.999-17.979.123-35.959.089-53.939.089-61.931,0-123.862.013-185.793-.03-3.906-.003-7.868.596-11.695-.587-.477-.506-1.324-.984-1.325-1.464-.058-83.943-.056-167.887-.056-252.763Z" fill="#699acb"/>
      <path d="m1286.769,2047.994c-.695-1.964-1.081-2.545-1.081-3.126-.027-83.277-.027-166.555.003-249.832,0-.573.423-1.146.648-1.718.483-.441.966-1.269,1.45-1.269,83.907-.057,167.813-.055,251.721-.055.681,1.042,1.947,2.08,1.954,3.127.119,19.32.087,38.64.087,57.96,0,61.292.013,122.584-.036,183.876-.003,3.234.68,6.552-.563,9.643-.56.512-1.043,1.34-1.527,1.34-83.906.057-167.813.055-252.656.055Z" fill="#699acb"/>
      <path d="m2884.96,3070.902c-1.974.687-2.556,1.067-3.138,1.067-83.241.026-166.481.026-249.722-.004-.571,0-1.143-.429-1.714-.657-.438-.485-1.259-.969-1.259-1.454-.056-83.944-.054-167.887-.055-251.832,1.046-.677,2.089-1.935,3.139-1.942,19.311-.118,38.623-.086,57.935-.086,61.265,0,122.53-.009,183.795.024,3.238.002,6.535-.483,9.458.389.685.758,1.506,1.242,1.506,1.727.056,83.944.054,167.887.054,252.768Z" fill="#c75c5c"/>
      <path d="m2437.157,3070.861c-1.943.71-2.522,1.107-3.1,1.107-83.241.027-166.481.028-249.722,0-.575,0-1.15-.413-1.725-.632-.447-.481-1.285-.962-1.285-1.443-.058-83.943-.055-167.887-.056-251.831,1.033-.69,2.063-1.972,3.101-1.978,19.311-.12,38.623-.088,57.935-.088,60.599,0,121.198-.013,181.798.031,3.903.003,7.866-.61,11.688.601.472.508,1.31.989,1.311,1.471.057,83.943.055,167.887.055,252.764Z" fill="#699acb"/>
      <path d="m1733.466,2817.206c1.885-.754,2.456-1.183,3.028-1.183,83.241-.03,166.481-.03,249.722-.003.582,0,1.164.38,1.552.515.619.581,1.526,1.035,1.526,1.49.062,83.943.06,167.887.061,251.832-1.009.713-2.015,2.04-3.029,2.047-17.979.126-35.959.092-53.939.092h-196.759c-1.194-1.121-2.1-1.575-2.101-2.03-.062-83.943-.06-167.887-.06-252.759Z" fill="#699acb"/>
      <path d="m2181.269,1281.194c1.894-.748,2.466-1.172,3.038-1.172,83.241-.029,166.481-.029,249.722-.002.581,0,1.162.385,1.469.493.682.626,1.598,1.073,1.598,1.522.063,83.944.06,167.887.061,251.832-1.013.71-2.022,2.03-3.04,2.037-17.979.125-35.959.091-53.939.091-61.931,0-123.862.012-185.793-.029-3.91-.003-7.871.569-11.455-.487-.684-.628-1.6-1.076-1.6-1.524-.063-83.944-.06-167.887-.06-252.76Z" fill="#699acb"/>
      <path d="m3332.763,2046.902c-1.974.687-2.556,1.067-3.138,1.067-83.241.026-166.482.026-249.722-.004-.571,0-1.142-.429-1.714-.657-.438-.485-1.259-.969-1.26-1.454-.056-83.944-.054-167.887-.055-251.832,1.046-.677,2.089-1.935,3.139-1.942,19.311-.118,38.623-.086,57.935-.086,61.265,0,122.53-.009,183.796.024,3.238.002,6.535-.483,9.458.388.685.758,1.506,1.243,1.507,1.728.056,83.943.054,167.887.054,252.768Z" fill="#c75c5c"/>
      <path d="m3078.044,2559.994c-.73-1.918-1.141-2.494-1.141-3.069-.028-83.277-.028-166.555,0-249.832,0-.578.398-1.157.61-1.735.478-.455.955-1.307,1.433-1.307,83.907-.059,167.813-.056,251.721-.057.7,1.023,2.001,2.042,2.008,3.071.124,17.987.089,35.975.089,53.963,0,61.958.013,123.917-.03,185.875-.003,3.908.588,7.872-.58,11.703-.504.48-.981,1.333-1.459,1.333-83.906.059-167.813.056-252.65.056Z" fill="#c75c5c"/>
      <path d="m709.916,579.994c0,19.316,0,38.631,0,57.948-1.037.685-2.072,1.958-3.115,1.965-19.306.119-38.614.087-57.921.087-60.584,0-121.169.013-181.753-.029-3.907-.003-7.868.578-11.354-.466-.758-.676-1.682-1.115-1.684-1.558-.072-19.315-.062-38.631-.062-57.947,6.962-7.033,15.998-5.517,24.441-5.539,69.002-.178,138.004-.178,207.006,0,8.443.022,17.479-1.494,24.441,5.539Z" fill="#3f6c9a"/>
      <path d="m518.001,383.994h127.944c0,20.638,0,41.277,0,61.916-1.026.695-2.052,1.994-3.081,1.997-40.593.103-81.186.09-121.779.061-.577,0-1.153-.403-1.73-.617-.452-.479-1.297-.956-1.299-1.436-.066-19.307-.057-38.613-.057-57.92v-4Z" fill="#010100"/>
      <path d="m1349.635,383.994h127.944c0,20.638,0,41.277,0,61.916-1.026.695-2.052,1.994-3.081,1.997-40.593.102-81.186.09-121.779.06-.577,0-1.153-.403-1.73-.617-.452-.479-1.297-.956-1.299-1.436-.067-19.307-.057-38.613-.057-57.92v-4Z" fill="#010100"/>
      <path d="m709.916,511.994v-128c20.531,0,41.063-.008,61.594.048.506.001,1.011.711,1.516,1.091.287.543.825,1.087.826,1.631.039,41.744.036,83.487.036,125.231-21.324,8.565-42.648,9.035-63.972,0Z" fill="#000101"/>
      <path d="m1285.663,387.994v124c-21.623,11.051-43.082,7.754-65.963.666,1.252-43.825-2.416-86.262,1.992-128.666h57.793c1.355,1.293,2.713,2.719,4.23,3.951.399.325,1.286.049,1.949.049Z" fill="#010101"/>
      <path d="m454.029,387.994v124c-21.623,11.051-43.082,7.754-65.963.666,1.252-43.825-2.416-86.262,1.992-128.666h57.793c1.355,1.293,2.713,2.719,4.23,3.951.4.325,1.286.049,1.949.049Z" fill="#010101"/>
      <path d="m1413.607,639.994h-126.148c-1.03-1.354-1.746-1.857-1.747-2.361-.057-19.213-.048-38.426-.048-57.639.981-.881,1.892-2.438,2.952-2.547,41.811-4.295,83.616-6.427,125.337,1.155,8.892,20.507,9.439,40.98-.345,61.392Z" fill="#3f6c99"/>
      <path d="m390.057,383.994c0,41.744-.003,83.487.036,125.231,0,.544.539,1.087.826,1.631.505.379,1.01,1.089,1.516,1.091,20.531.056,41.063.048,61.595.048h319.859v4c-14.98,11.626-33.891,1.463-50.195,9.054-9.393,15.594,2.393,35.703-9.779,50.946-.524,3.19-.809,3.476-3.998,4h-255.888c-.664,0-1.551.276-1.952-.049-1.518-1.232-2.878-2.659-4.266-3.983h-55.803c-.663-1.092-1.86-2.15-1.868-3.216-.118-16.6-.069-33.202-.101-49.803-.004-1.899-.261-3.798-.375-5.343-1.271-1.272-2.21-2.211-3.605-3.606v-7.324c0-37.851-.012-75.701.026-113.552.003-2.574.154-5.191.653-7.705.297-1.493,1.798-1.887,3.319-1.419Z" fill="#3e6b99"/>
      <path d="m1413.607,579.994h-127.944c-.664,0-1.551.276-1.952-.049-1.518-1.232-2.879-2.659-4.267-3.983h-55.803c-.663-1.092-1.86-2.15-1.868-3.216-.118-16.6-.069-33.202-.101-49.803-.004-1.899-.261-3.798-.375-5.343-1.271-1.272-2.21-2.211-3.604-3.606v-7.324c0-37.851-.012-75.701.026-113.552.003-2.574.154-5.191.653-7.705.297-1.492,1.798-1.887,3.319-1.419,0,41.744-.003,83.487.036,125.231,0,.544.538,1.087.826,1.631.505.379,1.01,1.089,1.516,1.091,20.531.056,41.063.048,61.595.048h255.887c21.324-9.46,42.648-9.458,63.972,0v4c-20.444,11.555-42.6,4.334-63.953,5.87-81.535,1.381-163.136-.955-244.185,1.294-7.503,15.642-6.639,28.947-2.407,42.035,9.118,6.111,18.663,4.442,27.791,4.464,62.472.152,124.945.008,187.417.142,9.888.021,20.024-1.121,29.345,3.758.916.888,1.816,1.786,2.715,2.684-.232,1.251-.464,2.501-.696,3.752-1.601,1.159-2.991,2.968-4.938,3.223-39.351,5.152-78.718,5.152-118.069,0-1.946-.255-3.337-2.064-4.937-3.223Z" fill="#3e6b99"/>
      <path d="m713.914,575.994c0-19.145-.008-38.289.042-57.434.001-.523.624-1.044.958-1.566.522-.333,1.043-.957,1.566-.958,19.136-.05,38.272-.042,57.408-.042,0,19.145.008,38.289-.042,57.434-.001.523-.624,1.044-.958,1.566-.522.333-1.043.957-1.566.958-19.136.05-38.272.042-57.408.042Z" fill="#3f6b99"/>
      <path d="m10.224,3583.994v-64c10.292-5.339,23.104-6.036,36.13-6.324,11.72-.258,23.447-.187,35.172-.187,1186.589-.005,2373.179-.023,3559.768.132,24.074.003,49.653-3.277,71.302,6.379v64H10.224Z" fill="#dde1ee"/>
      <path d="m3080.874,2884.647c20.746-.876,259.763-1.334,313.007-.621.558.008,1.11.507,1.664.777.397.503,1.138,1.004,1.14,1.507.059,18.635.05,37.271.05,55.545-1.019,1.653-2.107,2.153-3.484,2.152-18.657-.021-37.315.01-55.972-.059-1.479-.005-2.666.045-3.564,1.094-.317.535-.91,1.07-.911,1.606-.047,19.937-.04,39.873-.04,58.98-1.225,2.199-2.344,2.416-3.821,2.41-18.657-.068-37.315-.015-55.972-.101-1.512-.007-2.666.056-3.692,1.706-1.222,4.816-.262,10.106-.446,15.342-.187,5.326-.041,10.665-.041,15.998,0,4.667.142,9.338-.038,13.998-.202,5.237.758,10.527-.494,15.562-.654.583-1.139,1.394-1.628,1.396-19.975.064-39.95.054-59.753.054-1.427.924-2.059,1.997-2.059,3.328,0,18.666.017,37.332-.04,55.997-.004,1.205-.581,2.409-.89,3.608-.526.359-1.045,1.021-1.566,1.023-19.943.052-39.885.044-59.228.044-1.932,1.13-2.282,2.235-2.278,3.665.046,18.666.004,37.332.081,55.997.006,1.497-.051,2.667-1.226,3.513-15.786,1.069-35.468,1.15-57.375.237-.479-.476-1.365-.946-1.365-1.415-.06-103.995-.058-207.99-.058-313.344Z" fill="#d2d5e3"/>
      <path d="m3396.735,3071.994c0-20.478-.007-40.955.042-61.433.001-.523.624-1.045.958-1.567.522-.334,1.044-.957,1.567-.958,20.469-.049,40.937-.042,61.406-.042.858.949,1.715,1.898,2.587,2.839,6.113,20.731,4.322,41.19-.142,62.503-22.319,5.886-42.862,6.107-63.599,1.274-.944-.864-1.881-1.74-2.818-2.616Z" fill="#020202"/>
      <path d="m3332.763,3135.994c0-20.478-.007-40.955.042-61.433.001-.523.624-1.045.958-1.567.522-.333,1.044-.957,1.567-.958,20.469-.049,40.937-.042,61.406-.042,9.422,21.001,7.12,42.326,1.781,63.747-20.56,10.06-41.754,6.45-62.953,2.857-.938-.86-1.869-1.732-2.8-2.604Z" fill="#020202"/>
      <path d="m3268.791,3199.994c0-20.478-.007-40.955.042-61.433.001-.523.624-1.045.958-1.567.522-.333,1.044-.957,1.567-.958,20.468-.05,40.937-.042,61.405-.042,9.341,20.944,7.341,42.141,1.437,63.438-20.354,11.096-41.466,7.422-62.617,3.159-.936-.856-1.864-1.727-2.793-2.598Z" fill="#020202"/>
      <path d="m3268.791,3263.994h-63.972c0-20.478-.007-40.955.042-61.433.001-.523.624-1.045.958-1.567.522-.334,1.044-.957,1.567-.958,20.469-.049,40.937-.042,61.406-.042,9.227,21.333,9.864,42.667,0,64Z" fill="#020202"/>
      <path d="m3204.82,3263.994c0,20.478.007,40.955-.042,61.433-.001.523-.624,1.045-.958,1.567-.522.334-1.043.957-1.566.958-20.469.049-40.937.042-61.406.042,0-20.478-.007-40.955.042-61.433.001-.523.624-1.045.958-1.567.522-.334,1.044-.957,1.567-.958,20.469-.049,40.937-.042,61.406-.042Z" fill="#020202"/>
      <path d="m3524.679,2943.994v64c-21.324,9.476-42.648,9.449-63.972,0,0-20.478-.007-40.955.042-61.433.001-.523.625-1.045.958-1.567.522-.334,1.044-.957,1.567-.958,20.468-.049,40.937-.042,61.406-.042Z" fill="#020202"/>
      <path d="m3712.596,3519.994H1609.521c0-40.658,0-81.317,0-121.976,1.048-.675,2.079-1.899,3.148-1.933,5.99-.189,11.989-.091,17.986-.091,497.678,0,995.357.003,1493.035-.032,6.58,0,13.209.688,19.731-.619,1.503-.301,1.897-1.82,1.426-3.348,14.985-11.544,33.857-1.602,50.063-8.902,9.54-15.754-2.256-35.865,9.911-51.098.658,0,1.606.28,1.924-.049,1.358-1.402,2.53-2.984,3.32-3.951,19.433,0,37.868.009,56.301-.046.508-.001,1.015-.685,1.522-1.05.301-.534.865-1.067.866-1.602.045-19.101.038-38.202.038-57.303,5.328-9.938,14.981-8.992,24.06-9.678,10.279-.775,21.039,2.069,31.035-3.991,6.859-15.352-.117-32.556,5.69-48.158,1.034-2.067,2.458-3.815,4.234-5.269,1.425-1.772,3.169-3.156,5.195-4.177,15.346-5.24,31.836.535,47.975-4.817,8.995-15.615.094-34.068,6.854-50.148,1.16-1.989,2.672-3.647,4.51-5.011,1.371-1.857,3.114-3.247,5.204-4.206,15.243-5.242,31.857,1.073,47.618-5.412,8.932-16.266-1.45-35.827,8.203-51.963,7.809-9.391,18.684-8.737,29.322-9.094,8.547-.287,17.326,1.215,26.03-3.12,10.065-15.366-2.568-35.754,9.958-50.956.658,0,1.608.281,1.926-.048,1.356-1.405,2.527-2.989,3.312-3.952,19.451,0,37.892.009,56.333-.047.506-.002,1.01-.696,1.515-1.066.295-.536.848-1.073.85-1.609.044-20.426.037-40.852.037-61.278,1.528.471,2.813.055,3.364-1.431.432-1.164.593-2.484.607-3.738.063-5.331.027-10.663.027-15.994v-1896.836c.846-.846,1.316-1.728,1.788-1.73,38.607-.135,77.215-.205,115.822-.222.504,0,1.008.735,1.512,1.126.275.552.791,1.105.791,1.658.034,831.056.034,1662.112.034,2493.167Z" fill="#bdc4dd"/>
      <path d="m3332.763,3203.994c0,19.101.007,38.202-.038,57.303-.001.534-.565,1.068-.866,1.602-.507.365-1.013,1.048-1.522,1.05-18.434.055-36.868.046-56.301.046-.79.967-1.962,2.549-3.32,3.952-.319.329-1.266.048-1.925.048v-68h63.972c.544.667,1.087,1.333,1.637,2-.541.667-1.09,1.333-1.637,2Z" fill="#a5aecf"/>
      <path d="m3204.82,3331.994c0,19.145.008,38.289-.042,57.434-.001.523-.624,1.044-.958,1.566-.522.333-1.043.957-1.565.958-19.136.05-38.273.042-57.409.042,0-19.145-.008-38.289.042-57.434.001-.523.625-1.044.957-1.566.522-.334,1.043-.957,1.566-.958,19.136-.05,38.273-.042,57.409-.042Z" fill="#a5aecf"/>
      <path d="m3524.679,3011.994c0,19.101.007,38.202-.038,57.303-.001.534-.565,1.068-.866,1.602-.507.365-1.013,1.049-1.521,1.05-18.434.055-36.868.046-56.301.046-.791.967-1.962,2.549-3.32,3.951-.319.329-1.267.049-1.925.049-14.986,11.628-33.896,1.473-50.217,9.044-9.366,15.601,2.419,35.708-9.757,50.956-1.333,1.406-2.666,1.406-3.998,0v-64c20.469,0,40.937.007,61.406-.042.523-.001,1.044-.624,1.567-.958.333-.522.957-1.044.958-1.567.049-20.478.041-40.955.041-61.433h63.972v4Z" fill="#a5aecf"/>
      <path d="m3268.791,579.994c0,19.316,0,38.631,0,57.948-1.037.685-2.072,1.958-3.115,1.965-19.306.119-38.614.087-57.921.087-60.585,0-121.169.013-181.753-.029-3.907-.003-7.868.578-11.356-.467-.757-.676-1.681-1.115-1.682-1.557-.071-19.316-.061-38.631-.061-57.947,6.962-7.033,15.998-5.517,24.441-5.539,69.002-.177,138.005-.177,207.006,0,8.443.022,17.479-1.494,24.441,5.539Z" fill="#699aca"/>
      <path d="m3268.791,511.994v-128c20.531,0,41.063-.008,61.594.048.506.001,1.011.711,1.516,1.091.287.543.825,1.087.826,1.631.039,41.744.036,83.487.036,125.231-21.324,8.565-42.648,9.035-63.972,0Z" fill="#010101"/>
      <path d="m3012.904,383.994v128c-19.031,9.352-46.772,9.035-65.901-1.52,1.19-41.639-2.478-84.076,1.929-126.48h63.972Z" fill="#010101"/>
      <path d="m2948.932,383.994c0,41.744-.003,83.487.036,125.231,0,.544.538,1.087.825,1.631.505.379,1.01,1.089,1.516,1.09,20.531.056,41.063.047,61.594.047h319.859v4c-14.98,11.626-33.891,1.463-50.195,9.054-9.393,15.594,2.394,35.703-9.779,50.946-.524,3.191-.809,3.476-3.998,4h-255.888c-.664,0-1.551.276-1.952-.049-1.518-1.233-2.878-2.659-4.266-3.983h-55.804c-.663-1.092-1.86-2.15-1.868-3.216-.118-16.6-.069-33.202-.101-49.803-.004-1.899-.262-3.798-.376-5.344-1.271-1.271-2.209-2.21-3.604-3.606v-7.323c0-37.851-.012-75.701.026-113.552.002-2.574.154-5.191.653-7.705.296-1.492,1.798-1.887,3.319-1.419Z" fill="#6899c9"/>
      <path d="m3272.79,575.994c0-19.145-.008-38.289.042-57.434.001-.523.625-1.044.958-1.566.522-.333,1.043-.957,1.565-.958,19.136-.05,38.273-.042,57.409-.042,0,19.145.008,38.289-.042,57.434-.001.523-.624,1.044-.958,1.566-.522.333-1.043.957-1.566.958-19.136.05-38.272.042-57.409.042Z" fill="#6899ca"/>
      <path d="m2437.157,579.994c0,19.316,0,38.631,0,57.948-1.037.685-2.072,1.958-3.115,1.965-19.307.119-38.614.087-57.921.087-60.584,0-121.169.013-181.753-.029-3.907-.003-7.868.578-11.354-.466-.758-.677-1.682-1.116-1.684-1.558-.072-19.315-.062-38.631-.062-57.946,6.962-7.033,15.998-5.517,24.441-5.539,69.002-.177,138.005-.177,207.006,0,8.443.022,17.479-1.494,24.441,5.539Z" fill="#4d82b6"/>
      <path d="m2437.157,511.994v-128c20.532,0,41.063-.008,61.594.048.507.001,1.011.711,1.516,1.09.287.544.826,1.087.826,1.631.039,41.744.035,83.488.035,125.231-21.324,9.231-42.648,9.866-63.972,0Z" fill="#010101"/>
      <path d="m2181.269,383.994v128c-21.324,3.319-42.648,3.042-63.972,0,0-41.744-.003-83.487.036-125.231,0-.544.539-1.087.826-1.631.505-.379,1.01-1.089,1.516-1.09,20.531-.056,41.063-.048,61.594-.048Z" fill="#010101"/>
      <path d="m1605.523,511.994h-63.972v-128c20.532,0,41.063-.008,61.594.048.507.001,1.011.711,1.516,1.091.287.544.825,1.087.825,1.631.039,41.744.036,83.487.036,125.231Z" fill="#010101"/>
      <path d="m1413.607,579.994h127.944c0,19.213.009,38.426-.048,57.638-.001.505-.718,1.008-1.101,1.511-.545.283-1.089.814-1.635.815-41.72.038-83.44.035-125.16.035v-60Z" fill="#4d82b6"/>
      <path d="m2117.298,511.994h383.831v62.235c-1.391,1.023-1.896,1.716-2.402,1.718-18.441.055-36.882.047-56.33.047-.786.964-1.957,2.548-3.314,3.951-.319.329-1.267.049-1.926.049h-255.888c-.706-2.744.219-4.729,2.762-5.959,9.151-5.523,19.365-4.109,29.246-4.135,61.956-.157,123.913-.038,185.87-.113,9.217-.011,18.635.953,27.903-3.571,6.114-13.459,4.327-26.845.705-44.066-78.761.305-156.938-.795-234.093.867-11.438,16.836-1.433,35.383-10.419,50.214-.756.983-1.514,1.958-2.272,2.932-1.233-.057-2.467-.113-3.699-.17,0-19.279,0-38.558.001-57.838-.998-.721-1.993-2.063-2.997-2.07-17.941-.127-35.882-.089-53.824-.097-1.817,0-2.734-1.194-3.153-3.995Z" fill="#4d81b6"/>
      <path d="m1541.551,515.994h63.972c0,19.101.007,38.202-.038,57.303-.001.534-.564,1.068-.866,1.601-.507.365-1.013,1.048-1.522,1.05-18.434.055-36.868.046-56.303.046-.79.966-1.961,2.549-3.319,3.951-.319.329-1.266.049-1.925.049v-4c-9.497-20-9.495-40,0-60Z" fill="#4d81b6"/>
      <path d="m2181.269,575.994v4c-3.189-.524-3.475-.81-3.998-4h3.998Z" fill="#4d82b6"/>
      <path d="m2245.241,383.994h127.944c0,20.639,0,41.278,0,61.917-1.027.695-2.053,1.993-3.082,1.996-40.593.102-81.188.09-121.781.06-.576,0-1.153-.404-1.729-.62-.451-.479-1.294-.957-1.296-1.437-.066-20.639-.057-41.277-.057-61.916Z" fill="#010100"/>
      <path d="m3076.876,383.994h127.944c0,20.639,0,41.278,0,61.917-1.027.695-2.053,1.993-3.082,1.995-40.593.102-81.188.09-121.781.06-.576,0-1.153-.404-1.729-.62-.451-.479-1.294-.957-1.296-1.437-.066-20.639-.056-41.277-.056-61.916Z" fill="#010100"/>
      <path d="m454.859,575.994c-.427-2.639-.801-3.886-.804-5.135-.039-17.314-.033-34.629.006-51.943.001-.561.475-1.122.728-1.683.495-.413.989-1.188,1.484-1.189,83.871-.053,167.743-.051,251.615-.052.677,1.045,1.935,2.087,1.942,3.138.121,17.98.094,35.96.055,53.94-.001.561-.475,1.122-.728,1.683-.494.413-.989,1.188-1.484,1.189-83.871.053-167.743.051-252.814.051Z" fill="#010101"/>
      <path d="m1541.551,515.994v60c-84.578,0-169.157,0-253.737,0-.718-1.005-2.052-2.007-2.059-3.018-.126-17.988-.098-35.978-.062-53.967.001-.571.434-1.141.665-1.711.486-.435.971-1.251,1.458-1.251,84.579-.056,169.157-.054,253.735-.054Z" fill="#010101"/>
      <path d="m3396.735,3135.994h3.998c-.523,3.19-.809,3.476-3.998,4-14.986,11.628-33.896,1.473-50.217,9.044-9.367,15.601,2.419,35.708-9.757,50.956-1.333,1.234-2.666,1.234-3.998,0v-64h63.972Z" fill="#a5aecf"/>
      <path d="m3336.762,3199.994c0-19.145-.008-38.289.042-57.434.001-.523.624-1.044.958-1.566.522-.333,1.043-.957,1.566-.958,19.136-.05,38.272-.042,57.409-.042,0,19.145.008,38.289-.042,57.434-.001.523-.625,1.044-.958,1.566-.522.333-1.043.957-1.565.958-19.136.05-38.273.042-57.409.042Z" fill="#a5aecf"/>
      <path d="m3400.733,3135.994c0-19.145-.008-38.289.042-57.434.001-.523.624-1.044.958-1.566.522-.334,1.043-.957,1.565-.958,19.136-.05,38.272-.042,57.409-.042,0,19.145.008,38.289-.042,57.434-.001.523-.624,1.044-.958,1.566-.522.334-1.043.957-1.566.958-19.136.05-38.272.042-57.408.042Z" fill="#a5aecf"/>
      <path d="m3332.763,3199.994h3.998c-.523,3.19-.809,3.476-3.998,4v-4Z" fill="#a5aecf"/>
      <path d="m3012.904,517.054c1.997-.669,2.581-1.036,3.166-1.036,83.206-.025,166.412-.025,249.617.002.579,0,1.157.394,1.736.605.456.477,1.309.952,1.311,1.431.067,18.646.057,37.292.058,55.94-1.055.667-2.107,1.908-3.167,1.914-20.634.114-41.27.085-61.905.085-59.243,0-118.485.013-177.728-.03-3.906-.003-7.866.583-11.696-.575-.481-.503-1.335-.978-1.336-1.457-.068-18.646-.057-37.292-.057-56.879Z" fill="#010101"/>
      <path d="m2181.269,575.994c0-19.287,0-38.574,0-57.862,1.007-.714,2.01-2.04,3.023-2.047,17.283-.127,34.567-.091,51.852-.091h198.818c1.803,1.081,2.222,2.175,2.219,3.579-.035,17.957-.014,35.913-.066,53.87-.002.525-.638,1.048-.978,1.572-.53.326-1.059.938-1.589.939-84.426.042-168.852.04-253.278.04Z" fill="#010101"/>
      <polygon points="202.139 2687.994 202.139 3331.994 1607.55 3327.995 1605.523 2689.887 202.139 2687.994" fill="#f3f4f8"/>
      <path d="m1285.663,2817.235c1.922-.727,2.498-1.135,3.073-1.135,83.241-.029,166.481-.029,249.722,0,.578,0,1.155.401,1.733.614.453.478,1.303.957,1.303,1.435.058,83.943.056,167.887.057,251.832-1.024.699-2.045,1.996-3.075,2.003-17.979.124-35.959.09-53.939.09-61.931,0-123.862.013-185.793-.03-3.906-.003-7.868.592-11.697-.584-.478-.505-1.328-.983-1.328-1.462-.058-83.943-.056-167.887-.056-252.762Z" fill="#699acb"/>
      <path d="m837.86,2817.011c2.535-.475,3.77-.903,5.007-.911,116.57-.759,224.241-.5,249.429.564.5.489,1.392.954,1.392,1.419.061,83.943.059,167.887.06,251.831-1.003.72-2.002,2.059-3.01,2.066-17.979.127-35.959.092-53.939.092h-196.883c-1.105-1.081-1.997-1.545-1.997-2.011-.061-83.944-.059-167.887-.059-253.05Z" fill="#699acb"/>
      <path d="m390.057,2817.27c1.896-.746,2.468-1.169,3.041-1.169,83.241-.029,166.481-.03,249.722-.003.581,0,1.162.386,1.448.487.698.637,1.615,1.083,1.616,1.53.063,83.944.06,167.887.061,251.832-1.013.709-2.023,2.028-3.042,2.035-17.979.125-35.959.091-53.94.091-61.931,0-123.862.013-185.793-.029-3.909-.003-7.871.571-11.435-.483-.699-.638-1.617-1.084-1.617-1.531-.063-83.943-.061-167.887-.061-252.76Z" fill="#699acb"/>
      <polygon points="130.171 2687.994 130.171 3391.995 1609.52 3398.018 1609.521 3519.994 6.213 3519.994 10.224 2687.994 130.171 2687.994" fill="#bdc4dd"/>
      <polygon points="1608.657 3647.969 133.527 3645.513 133.527 3583.994 1609.521 3583.994 1608.657 3647.969" fill="#a6afd0"/>
      <polygon points="10.224 3647.705 10.224 3583.994 133.527 3583.994 133.527 3645.513 10.224 3647.705" fill="#a6afd0"/>
    </g>
  </g>
</svg>