<?xml version="1.0" encoding="UTF-8"?>
<svg id="b" data-name="Layer 2" xmlns="http://www.w3.org/2000/svg" width="3612.801" height="5057.981" viewBox="0 0 3612.801 5057.981">
  <g id="c" data-name="COFFEE MENU">
    <g>
      <path d="m3371.966,722.569c78.203,0,156.407,0,234.614-.003,2.083,3.104,5.977,6.206,5.983,9.316.297,154.401.267,308.801.177,463.203,0,1.728-1.255,3.456-1.925,5.184-1.452,1.338-2.9,3.841-4.354,3.845-76.186.19-152.372.168-228.516.168-2.027,3.274-5.61,6.416-5.711,9.666-.556,18.03-.267,36.086-.267,54.132,0,284.74.032,569.48-.095,854.22-.006,13.766,1.947,27.687-1.74,41.224-1.531,1.452-2.968,4.007-4.412,4.011-78.202.192-156.406.17-234.609.17-2.624-2.909-5.248-5.816-7.91-8.701-12.859-26.572-8.782-55.126-8.878-82.964-.863-250.846,1.552-501.705-2.659-752.537-.497-29.622,4.82-60.383-19.573-99.947-854.488.011-1715.87-.025-2579.719.024-20.209,79.898-6.246,150.448-12.885,219.453.766,231.365,4.416,462.743-1.739,694.135-1.539,7.741-4.245,15.064-7.933,22.034-2.681,2.85-5.402,5.676-8.123,8.501-78.203,0-156.407,0-234.614.003-2.083-3.104-5.86-6.155-5.962-9.324-.579-18.028-.28-36.085-.28-54.132,0-282.735.043-565.47-.115-848.204-.009-15.798,1.864-31.72-1.207-47.069-1.778-1.778-3.193-4.433-4.614-4.437-76.186-.199-152.372-.176-228.509-.176-2.174-3.148-6.14-6.212-6.146-9.284C-.058,1040.683-.027,886.282.059,731.881c.001-1.739,1.205-3.478,1.847-5.217,1.44-1.365,2.877-3.921,4.32-3.924,78.203-.193,156.406-.171,234.61-.171,2.425,2.569,4.851,5.137,7.318,7.68,17.678,42.175,7.406,86.58,10.291,129.947,1.688,25.369-4.772,52.328,14.973,73.932,21.095,17.016,46.06,12.22,69.681,12.118,974.865-4.207,1949.729,2.597,2924.593-.043,27.264-.073,57.104,7.044,80.469-21.759,23.673-63.389-15.023-137.552,23.805-201.874Z"/>
      <path d="m481.692,481.712c0-158.385-.01-316.769.16-475.153.002-1.471,2.422-2.941,3.712-4.411,1.708-.716,3.416-2.06,5.125-2.06C1366.815-.001,2242.941,0,3119.067,0c13.034,97.004,3.372,194.461,5.444,291.686,1.314,61.659,2.027,123.438-1.336,192.242-75.605,26.702-152.496,23.993-230.22,4.563-24.938-23.517-19.458-54.845-21.002-84.214-2.285-43.469,4.465-87.543-8.121-136.116-76.11-17.923-153.705-4.894-230.269-8.627-235.233.266-470.417,2.381-705.591-.834-160.672,2.161-321.345,2.49-482.013-.019-163.544,2.146-327.091,2.475-490.599-.095-67.244,4.578-135.367-5.243-201.972,6.482-28.625,72.932,6.133,149.208-31.299,222.964-75.223,18.814-153.419,18.527-232.267,1.414-2.728-2.549-5.429-5.14-8.129-7.733Z"/>
      <path d="m2649.398,4817.124v236.916c-5.448,2.432-7.137,3.847-8.826,3.848-318.199.097-636.399.093-954.599.093-237.726,0-475.451.005-713.177-.076-1.742,0-3.483-1.16-4.556-1.541-1.925-1.793-4.651-3.145-4.654-4.505-.206-71.917-.182-143.833-.182-216.118-3.892-4.079-8.186-8.174-11.895-12.743-.978-1.205-.148-3.875-.148-5.873,5.463-6.031,12.061-10.311,19.754-12.919,25.335-7.961,51.535-6.159,77.486-6.199,520.644-.805,1041.289,1.053,1561.932-1.036,10.049-.041,20.005.512,29.824,2.858,3.553,1.787,7.083,3.625,10.612,5.464-.524,3.944-1.047,7.888-1.572,11.833Z" fill="#d7bda6"/>
      <path d="m710.505,3612.843c-74.108,0-148.215,0-222.326.003-2.165-3.017-6.094-5.98-6.196-9.067-.594-18.006-.291-36.042-.291-54.068v-1382.005c75.684-29.574,152.57-19.744,229.597-7.084,27.897,19.651,28.927,49.732,29.445,79.247.999,56.891,1.781,113.807-.441,170.701,3.233,376.761,1.15,753.523,1.072,1130.284-.003,16.039-1.146,32.068-6.267,47.535-2.902,7.654-7.452,14.169-13.528,19.63-3.675,1.626-7.371,3.223-11.065,4.823Z"/>
      <path d="m2890.254,481.712h224.447c2.655-5.097,4.258-6.739,4.26-8.383.114-157.777.107-315.553.107-473.329h12.043v481.712c34.621,77.124,16.544,157.053,12.678,236.256-2.432,7.407-6.479,13.838-11.99,19.347-80.997,6.318-161.817,8.344-244.083-6.122-26.26-83.186-13.74-162.841-14.366-241.574,1.86-3.287,3.782-6.552,5.703-9.815,3.734.636,7.469,1.272,11.203,1.907Z" fill="#6f473c"/>
      <path d="m240.835,722.569v-235.929c4.587-2.92,6.163-4.798,7.741-4.801,77.704-.143,155.41-.126,233.115-.126,35.931,80.461,19.841,161.125,7.914,248.771-87.646,11.929-168.309,28.014-248.77-7.915Z" fill="#010000"/>
      <path d="m963.404,4817.124h-12.043c-73.706,0-147.412.019-221.118-.126-1.574-.003-3.144-1.902-4.716-2.916-.994-1.58-2.852-3.16-2.855-4.742-.142-77.69-.124-155.381-.124-233.071,2.776-2.556,5.553-5.112,8.307-7.708,73.119-15.243,145.938-12.728,221.814.072,29.55,76.014,8.403,153.004,16.802,227.342.291,7.711-1.742,14.761-6.066,21.15Z" fill="#d6bca5"/>
      <path d="m722.548,4576.268c-4.584,1.409-8.554.197-10.14-4.265-4.08-11.476-1.785-23.479-1.791-35.216-.142-307.981-.112-615.962-.112-923.943,3.915-.526,7.83-1.052,11.745-1.578,2.668,2.912,5.336,5.825,8.049,8.707,12.001,22.174,11.127,46.533,11.163,70.507.408,268.739.346,537.477.057,806.217-.021,20.019.381,40.187-6.41,59.538-3.162,7.317-7.372,13.985-12.562,20.034Z" fill="#9a6843"/>
      <path d="m722.548,2408.562v-222.234c-3.89-4.079-8.186-8.174-11.895-12.746-.978-1.205-.148-3.878-.148-5.877,22.64-22.056,51.749-19.257,79.373-19.244,678.9.316,1357.797,3.579,2036.698,2.476,21.879-.036,44.353-1.471,63.905,11.837,25.55,31.086,18.628,68.544,18.677,103.904.56,402.88.245,805.76.506,1208.641.02,31.609-4.096,64.117,13.411,97.739,53.973,13.226,108.595,11.508,161.043,2.108,20.979-31.445,15.423-62.306,15.451-91.769.383-402.881.112-805.761.477-1208.642.031-33.763-4.633-68.402,11.268-100.566,2.688-2.898,5.415-5.753,8.143-8.609,3.885.708,7.769,1.417,11.653,2.124,0,479.518.004,959.036-.159,1438.554,0,1.474-2.414,2.947-4.157,4.945-15.126,3.867-31.049.957-46.803,1.513-16.031.567-32.097.126-48.148.126h-42.134c-16.051,0-32.115-.415-48.148.118-15.772.522-31.693-2.212-46.881,1.436-1.765,1.932-4.262,3.386-4.263,4.842-.17,319.01-.164,638.02-.164,957.029-74.743,32.264-151.618,18.119-228.252,10.54-7.267-3.183-12.463-8.425-15.653-15.667,1.932-7.841,6.555-13.473,13.825-16.966,59.693-20.69,124.1,3.395,195.714-22.033,8.542-304.58-.195-612.453,4.57-920.092-3.134-358.126-.418-716.245-1.568-1074.359-.101-31.711,4.316-64.152-12.957-102.197-66.192-16.05-138.286-3.662-209.042-8.657-236.272,1.35-472.523,2.508-708.766-.425-160.742,2.15-321.487,2.487-482.23-.023-164.24,2.328-328.48,2.157-492.723.139-56.752,2.516-113.514.864-170.268.426-21.777-.168-43.14-2.754-60.357-18.391Z" fill="#432c21"/>
      <path d="m951.361,240.856h493.755c23.19,27.105,18.765,60.191,18.863,91.804.518,168.129.08,336.261.37,504.391.048,27.748-3.202,56.123,13.455,90.896,147.495,10.623,299.099.067,450.219,5.597,398.016-2.426,796.008-2.972,1193.906.072,69.109-2.518,138.827,5.159,208.923-5.694,21.949-66.258,4.021-131.019,14.302-193.439,1.476-7.106,4.257-13.645,8.186-19.724,5.035-6.575,11.253-7.971,18.625-4.234v12.043c0,78.254,0,156.509.002,234.766-3.157,2.032-6.242,5.664-9.488,5.813-14.017.648-28.078.277-42.124.277-1009.28,0-2018.56.016-3027.841-.142-15.788-.002-31.811,2.604-47.382-1.775-4.53-1.274-5.716-5.525-4.298-10.126,23.326-20.418,52.046-18.308,79.901-18.46,98.091-.535,196.186.107,294.277-.398,25.652-.132,52.19,3.572,79.145-12.903,25.58-61.639-7.488-133.912,25.983-200.109,65.452-33.862,141.777-.196,207.905-24.716,19.956-24.446,16.291-51.279,16.406-76.767.469-104.096.543-208.196.027-312.294-.108-21.836-3.943-44.163,6.881-64.879Z" fill="#5f3c36"/>
      <path d="m2649.398,4576.268h240.856v235.93c-4.587,2.919-6.162,4.798-7.74,4.801-77.706.142-155.411.126-233.116.126v-12.043c-30.08-76.271-29.996-152.542,0-228.813Z" fill="#d7bda6"/>
      <path d="m3359.923,710.526v12.043c-76.271,29.842-152.542,29.889-228.813,0v-240.856h228.813c9.65,76.271,9.651,152.542,0,228.813Z" fill="#010101"/>
      <path d="m3359.923,710.526v-228.813c4.526-1.377,8.726-.225,9.946,4.19,1.5,5.432,2.005,11.287,2.015,16.96.126,69.221.082,138.442.082,207.663h-12.043Z" fill="#6e473c"/>
      <path d="m3131.11,2167.706h-12.043c-76.271,29.864-152.542,29.865-228.813,0H481.692v-12.043c25.291-21.813,56.293-16.931,86.01-18.765,41.449-2.556,84.093,7.626,135.325-14.93,1.533-213.139.984-429.922.24-643.412-78.74-32.904-156.02,7.718-221.575-33.418,0-78.257,0-156.515-.002-234.775,3.16-2.03,6.248-5.654,9.497-5.804,14.016-.647,28.079-.277,42.126-.277h2591.892c3.189,3.39,5.736,4.834,5.737,6.279.173,319.049.168,638.098.168,957.146Z" fill="#d7bda6"/>
      <path d="m951.361,240.856c0,2.007-.833,4.687.148,5.899,3.715,4.589,8.018,8.701,11.6,12.463v445.585c-5.967,5.966-11.642,11.641-17.766,17.765-71.715,0-143.879-.023-216.043.156-1.493.004-2.98,2.337-4.596,3.689-4.362,13.417-1.67,27.348-2.052,41.084-.445,16.038-.104,32.097-.104,48.148v129.804c-3.348,3.19-4.785,5.76-6.225,5.762-158.495.182-316.991.17-475.488.17v-228.813c77.705,0,155.41.018,233.115-.126,1.579-.003,3.154-1.882,4.731-2.885,1.003-1.577,2.882-3.152,2.885-4.73.143-77.705.126-155.411.126-233.116,78.164,0,156.327,0,234.494.002,2.123-3.061,6.077-6.115,6.093-9.19.353-68.141.204-136.283.361-204.426.018-7.74-1.831-15.746,1.85-23.167,1.508-1.395,2.954-3.904,4.406-3.907,74.155-.191,148.31-.168,222.465-.168Z" fill="#6f473c"/>
      <path d="m481.692,1445.137c78.21,0,156.42,0,234.634-.002,2.076,3.11,5.948,6.215,5.96,9.336.331,82.22.262,164.441.262,246.662,0,140.377.047,280.754-.102,421.131-.011,9.754,1.92,19.728-1.598,29.088-1.65,1.572-3.085,4.137-4.526,4.141-78.21.192-156.42.17-234.63.17v-710.526Z" fill="#e2d1c2"/>
      <path d="m3131.11,951.382h-1204.281c-20.568-23.085-19.133-51.716-19.202-79.552-.458-183.807-.458-367.614,0-551.422.07-27.836-1.366-56.468,19.202-79.552h710.526c29.785,16.31,27.899,45.448,29.873,73.184,3.224,45.316-6.676,91.564,8.725,136.797,35.464,21.294,74.231,9.576,111.153,12.756,31.048,2.675,64.429-6.499,91.105,18.119,0,1.985-.845,4.843.147,5.801,4.23,4.086,9.003,7.611,11.896,9.97,0,74.491-.019,145.93.126,217.368.003,1.57,1.882,3.138,2.885,4.706,1.569,1.004,3.136,2.882,4.706,2.885,71.438.145,142.877.126,217.368.126,2.359,2.893,5.884,7.666,9.971,11.895.958.992,3.815.148,5.8.148,29.468,72.257,29.109,144.514,0,216.771Z" fill="#815641"/>
      <path d="m1926.829,240.856v710.526c-158.095,0-316.189.01-474.284-.135-1.553-.002-3.105-2.032-4.657-3.116-.924-1.619-2.656-3.236-2.657-4.856-.12-234.14-.115-468.28-.115-702.42h481.712Z" fill="#6f473c"/>
      <path d="m2878.211,481.712c-73.552,0-147.104.017-220.656-.113-1.616-.003-3.228-1.691-4.842-2.593-1.105-1.53-3.173-3.059-3.176-4.591-.159-71.564-.139-143.128-.139-215.007-3.91-4.088-8.194-8.161-11.896-12.709-.973-1.194-.147-3.856-.147-5.843,81.705,0,163.409-.017,245.114.124,1.582.003,3.163,1.862,4.744,2.856,1.014,1.573,2.911,3.144,2.914,4.718.145,77.719.126,155.439.126,233.158h-12.043Z" fill="#6f473c"/>
      <path d="m2649.398,4576.268v228.813c-2.006,0-4.686-.833-5.898.148-4.588,3.715-8.7,8.018-12.774,11.895H963.404v-12.043c-9.434-77.553-10.099-155.092.345-232.645,20.955-15.894,45.654-12.709,69.373-12.985,514.067-5.977,1028.135,2.554,1542.205.02,25.755-.127,52.57-2.801,74.071,16.796Z"/>
      <path d="m951.361,2408.562h493.755c24.332,29.171,16.608,64.432,18.726,97.872,2.116,33.396-6.357,67.991,9.747,99.421,24.269,16.921,50.957,12.441,76.474,12.617,98.05.678,196.135-1.262,294.138,1.266,24.891.642,58.437-10.041,69.405,28.531-22.233,23.209-51.622,19.141-79.163,19.423-94.314.969-188.641.135-282.961.507-25.765.102-52.191-2.668-85.492,15.743-3.35,135.143-4.731,274.205,1.365,410.824,38.078,26.007,75.213,14.864,110.281,17.645,37.361,2.964,76.824-7.306,110.626,17.981,27.88,79.956,22.74,160.363,3.355,240.947-26.734,24.105-60.076,16.976-91.495,19.137-41.391,2.848-83.912-7.18-128.306,11.11-13.88,55.936-9.787,112.194-2.458,164.657,29.667,19.69,56.329,15.661,81.978,15.851,100.117.743,200.278-1.596,300.331,1.558,22.972.724,58.291-9.646,60.249,33.553-18.943,14.211-41.262,14.624-63.223,14.61-294.211-.183-588.426,2.496-882.626-1.147-58.98,2.509-117.985,1.134-176.979.828-23.721-.123-47.474-1.359-66.541-18.652h-12.043c1.577-9.605,2.436-10.465,12.043-12.043,27.107-23.195,60.193-17.552,91.795-18.996,39.452-1.802,79.797,5.1,115.806-8.193,18.732-31.389,13.987-62.054,13.993-91.631.066-338.199.77-676.398-.198-1014.597-.057-19.915-2.549-40.16,7.417-58.821Z" fill="#865944"/>
      <path d="m951.361,2408.562c0,2.001-.831,4.676.148,5.883,3.711,4.576,8.008,8.678,11.895,12.756v1167.963c-3.791,3.159-5.276,5.479-6.766,5.482-78.03.176-156.06.154-234.09.154v-1192.238h228.813Z" fill="#9a6843"/>
      <path d="m3131.11,951.382v-228.813h228.813c0,73.692.019,147.383-.126,221.075-.003,1.577-1.882,3.152-2.885,4.728-1.576,1.004-3.15,2.882-4.728,2.885-73.692.145-147.383.126-221.075.126Z" fill="#6e473c"/>
      <path d="m963.404,3612.843h951.382c11.912-12.754,27.648-16.113,43.883-16.077,224.33.484,448.689-5.261,673.004,2.778,7.767,2.058,14.713,5.722,20.893,10.848,25.72,79.921,21.037,160.276,3.081,240.839-4.939,6.314-11.17,10.934-18.565,14.002-76.788,13.617-154.152,5.646-231.339,5.751-239.544-3.186-479.068,3.647-718.594.559-163.991,2.251-327.985,2.333-491.945.017-66.804,5.481-134.757-6.761-198.026,7.496-19.415,30.439-14.693,59.012-14.766,86.429-.454,169.497-.07,338.996-.364,508.495-.048,27.801,2.466,55.929-6.381,83.136-3.187,6.965-7.295,13.336-12.263,19.152v228.813c-4.59,1.413-8.837.222-10.049-4.296-1.482-5.524-1.905-11.466-1.916-17.228-.125-62.082-.046-124.166-.132-186.248-.008-5.736-.767-11.47-1.112-16.294-2.423-2.149-3.885-4.581-5.352-4.585-74.098-.185-148.197-.163-222.295-.163v-12.043c27.223-23.217,60.436-17.016,92.086-19.02,35.418-2.243,72.267,7.207,105.286-11.175,15.777-24.733,12.228-51.396,12.295-77.122.394-150.518,2.298-301.078-.504-451.545-2.097-112.616,18.016-224.011,13.67-336.551-.783-20.292,3.65-40.012,18.024-55.968Z" fill="#432c21"/>
      <path d="m963.404,3612.843v222.242c-3.888,4.148-7.928,8.458-12.043,12.848v710.726c-3.883,3.142-5.378,5.411-6.879,5.415-73.978.173-147.956.151-221.935.151v-951.382h240.856Z"/>
      <path d="m1926.829,2408.562h710.526c29.104,16.576,30.715,45.316,30.796,73.484,1.017,352.336,1.318,704.673-.316,1057.007-.116,25.125,1.64,53.607-28.757,66.879-235.502,1.452-471.009.498-713.418.553-28.681-76.831-24.511-153.882-5.683-231.717,23.602-25.012,55.054-19.24,84.526-21.209,43.524-2.906,87.998,6.61,129.84-8.371,18.636-48.626,21.483-358.763,3.687-425.789-67.927-29.474-146.917,10.939-214.934-27.269-23.748-80.104-14.204-161.039-6.162-241.938-6.819-80.959-26.273-162.44,9.896-241.631Z" fill="#b47c54"/>
      <path d="m1192.217,3853.7h493.755c23.115,27.09,18.589,60.121,18.685,91.669.515,167.824.032,335.652.416,503.477.063,27.639-3.734,56.076,14.108,89.63,65.835,15.213,137.876,2.121,208.535,7.98,159.611-2.252,319.195-2.524,478.753-.013,65.377-4.457,131.498,4.179,192.991-5.876,24.065-28.63,18.569-57.663,18.665-84.909.6-170.053.007-340.109.525-510.162.095-31.59-4.439-64.665,18.704-91.795h12.043c22.144,22.579,19.002,51.683,19.1,79.232.652,183.899.556,367.8.104,551.701-.068,27.85,1.377,56.496-19.203,79.593v12.043H963.404v-12.043c29.156-24.36,64.429-16.637,97.875-18.831,37.338-2.45,75.913,7.181,111.32-9.675,16.82-24.538,12.641-51.212,12.67-76.739.205-180.141.566-360.282-.046-540.422-.074-21.838-3.834-44.161,6.995-64.859Z" fill="#d7bda6"/>
      <path d="m2890.254,2167.706h228.813c0,475.532,0,951.064.003,1426.6-3.022,2.167-6.037,6.205-9.072,6.22-70.224.356-140.451.29-210.677.187-1.717-.002-3.432-1.314-5.148-2.014-1.306-1.466-3.757-2.931-3.758-4.396-.165-475.532-.162-951.064-.162-1426.596Z"/>
      <path d="m2637.355,3600.801c4.582,1.408,8.552.197,10.14-4.264,4.083-11.473,1.787-23.475,1.791-35.21.135-377.919.112-755.839.112-1134.135-3.888-4.078-8.185-8.176-11.895-12.75-.978-1.205-.148-3.879-.148-5.879,78.087,0,156.174-.021,234.261.16,1.475.004,2.944,2.402,4.416,3.683.726,1.701,2.09,3.402,2.09,5.103.093,398.445.09,796.89.09,1195.335-76.271,29.86-152.542,29.867-228.813,0h-12.043c-3.937-2.676-5.246-5.35-3.938-8.03,1.305-2.674,2.614-4.013,3.938-4.013Z" fill="#9a6843"/>
      <path d="m2649.398,3612.843h228.813v945.698c-3.727,3.168-5.204,5.524-6.688,5.527-74.042.179-148.083.157-222.125.157v-951.382Z"/>
      <path d="m1926.829,2408.562v240.856c-2.007,1.507-4.014,3.014-6.021,4.529-2.007-1.504-4.014-3.016-6.021-4.529,1.415-4.595.219-9.127-4.294-10.018-7.592-1.5-15.493-1.943-23.265-1.949-136.285-.105-272.57-.024-408.856-.183-9.734-.011-19.711,2.012-29.023-1.666-1.551-1.677-4.06-3.123-4.063-4.576-.191-74.154-.168-148.309-.168-222.464h481.712Z" fill="#9a6843"/>
      <path d="m1926.829,1445.137h963.425c20.568,23.085,19.132,51.716,19.2,79.552.452,183.807.452,367.614,0,551.422-.068,27.836,1.368,56.468-19.2,79.552h-963.425c-20.568-23.085-19.133-51.716-19.202-79.552-.458-183.807-.458-367.614,0-551.422.069-27.836-1.366-56.468,19.202-79.552Z" fill="#f0e7db"/>
      <path d="m1926.829,1445.137v710.526c-158.465,0-316.931,0-475.4.002-2.106-3.081-6.032-6.157-6.046-9.25-.341-76.222-.266-152.446-.266-228.67,0-146.43-.047-292.861.105-439.29.011-9.747-1.985-19.729,1.647-29.063,1.669-1.556,3.115-4.086,4.564-4.088,158.465-.179,316.931-.167,475.396-.167Z" fill="#e2d1c2"/>
      <path d="m2890.254,2155.663v-710.526c74.198,0,148.396,0,222.598-.003,2.074,3.113,5.941,6.221,5.954,9.344.331,80.213.262,160.427.262,240.641,0,142.38.046,284.76-.102,427.14-.011,9.754,1.915,19.728-1.595,29.09-1.647,1.572-3.082,4.14-4.523,4.144-74.197.195-148.395.17-222.594.17Z" fill="#e2d1c2"/>
      <path d="m1926.829,2890.275c78.194,0,156.387,0,234.585-.002,2.093,3.093,6.004,6.185,6.01,9.285.298,154.382.268,308.764.18,463.148,0,1.736-1.216,3.472-1.865,5.208-1.444,1.358-2.883,3.902-4.329,3.905-78.193.192-156.387.17-234.58.17-80.285,29.71-160.571,29.906-240.856,0v-240.856c2.564-2.434,5.128-4.867,7.663-7.342,65.087-24.47,135.251,1.594,202.108-18.335,21.962-38.089,9.685-78.912,13.153-117.755,2.948-33.028-7.888-68.604,17.933-97.425Z" fill="#432c21"/>
      <path d="m1685.973,3131.131c-78.21,0-156.42,0-234.634.002-2.076-3.11-5.957-6.219-5.964-9.336-.295-154.414-.265-308.829-.173-463.244,0-1.722,1.283-3.444,1.968-5.166,1.457-1.323,2.913-3.803,4.372-3.805,154.414-.175,308.829-.164,463.244-.164,14.001,79.091.956,158.355,6.581,237.599-65.466,41.696-137.951,6.912-202.89,31.024-23.011,33.632-10.675,72.665-13.613,109.478-2.812,35.224,6.574,72.55-18.891,103.611Z" fill="#432c21"/>
      <path d="m1685.973,3371.987h240.856v224.717c5.322,2.516,6.994,3.999,8.666,3.999,233.953.102,467.907.097,701.86.097v12.043h-722.569c1.405-4.576.221-9.097-4.266-9.992-7.56-1.505-15.432-1.967-23.172-1.974-129.834-.108-259.669-.077-389.504-.077h-48.105c-9.38-15.219-3.044-31.415-4.368-46.699-1.202-13.878-.255-27.942-.255-41.925v-47.939c0-13.982-.526-27.99.14-41.94.745-15.624-2.787-31.493,1.758-46.358,2.211-1.662,3.731-3.807,5.257-3.81,77.901-.163,155.801-.143,233.702-.143Z" fill="#9a6843"/>
      <path d="m1926.829,4564.225c-77.988,0-155.976.02-233.964-.151-1.501-.004-2.998-2.267-4.497-3.475-.798-1.669-2.296-3.338-2.297-5.007-.104-233.964-.098-467.928-.098-701.892h722.569c.734,3.798,1.467,7.595,2.201,11.392-2.803,2.664-5.606,5.33-8.367,8.032-36.016,17.331-74.636,10.509-112.284,11.386-109.556,2.556-219.377-4.27-324.574,4.043-24.792,29.307-19.341,58.369-19.438,85.676-.589,166.066.008,332.136-.517,498.202-.1,31.593,4.435,64.674-18.733,91.795Z" fill="#e2d1c2"/>
      <path d="m1192.217,3853.7c0,1.998-.83,4.668.148,5.873,3.709,4.569,8.003,8.663,11.895,12.743,0,228.09.005,455.814-.106,683.537,0,1.643-1.61,3.284-2.468,4.926-1.522,1.149-3.041,3.3-4.566,3.302-77.905.163-155.81.144-233.716.144,0-233.953-.005-467.906.098-701.859,0-1.672,1.482-3.345,2.273-5.017,1.496-1.217,2.989-3.494,4.487-3.497,73.984-.174,147.969-.153,221.955-.153Z" fill="#e2d1c2"/>
      <path d="m2408.541,3865.742v-12.043h228.813c0,233.953.005,467.906-.098,701.859,0,1.672-1.482,3.345-2.273,5.017-1.496,1.217-2.989,3.495-4.487,3.498-73.985.174-147.971.152-221.956.152-20.566-23.083-19.129-51.713-19.199-79.546-.457-179.797-.456-359.595,0-539.391.071-27.834-1.369-56.463,19.199-79.545Z" fill="#e2d1c2"/>
      <path d="m1685.973,3131.131c0-78.164,0-156.327-.002-234.495,3.061-2.123,6.115-6.074,9.19-6.091,64.132-.358,128.267-.201,192.401-.364,7.738-.02,15.746,1.845,23.161-1.86,1.391-1.511,3.893-2.959,3.896-4.414.188-78.163.167-156.326.167-234.489h12.043v476.786c-4.587,2.919-6.163,4.798-7.741,4.801-77.705.143-155.41.125-233.115.125Z" fill="#754f3c"/>
      <path d="m2408.541,3865.742v698.483h-481.712v-693.309c4.336-3.014,5.889-5.038,7.443-5.039,158.089-.143,316.179-.135,474.269-.135Z" fill="#f0e7db"/>
    </g>
  </g>
</svg>