<?xml version="1.0" encoding="iso-8859-1"?>
<!-- Generator: Adobe Illustrator 19.0.0, SVG Export Plug-In . SVG Version: 6.00 Build 0)  -->
<svg version="1.1" id="Layer_1" xmlns="http://www.w3.org/2000/svg" xmlns:xlink="http://www.w3.org/1999/xlink" x="0px" y="0px"
	 viewBox="0 0 512 512" style="enable-background:new 0 0 512 512;" xml:space="preserve">
<polygon style="fill:#006DF0;" points="233.739,0 233.739,33.391 200.348,33.391 200.348,66.783 166.957,66.783 166.957,166.957 
	100.174,166.957 100.174,289.391 166.957,289.391 166.957,512 300.522,512 300.522,289.391 367.304,289.391 367.304,166.957 
	300.522,166.957 300.522,122.435 411.826,122.435 411.826,0 "/>
<polygon style="fill:#FFFFFF;" points="233.739,0 233.739,33.391 200.348,33.391 200.348,66.783 166.957,66.783 166.957,100.174 
	233.739,100.174 233.739,66.783 267.13,66.783 267.13,0 "/>
<polygon points="233.739,0 233.739,33.391 378.435,33.391 378.435,89.043 300.522,89.043 300.522,122.435 411.826,122.435 
	411.826,0 "/>
<rect x="200.348" y="33.391" width="33.391" height="33.391"/>
<polygon points="267.13,200.348 333.913,200.348 333.913,256 267.13,256 267.13,478.609 200.348,478.609 200.348,256 133.565,256 
	133.565,200.348 200.348,200.348 200.348,66.783 166.957,66.783 166.957,166.957 100.174,166.957 100.174,289.391 166.957,289.391 
	166.957,512 300.522,512 300.522,289.391 367.304,289.391 367.304,166.957 300.522,166.957 300.522,122.435 267.13,122.435 "/>
<g>
</g>
<g>
</g>
<g>
</g>
<g>
</g>
<g>
</g>
<g>
</g>
<g>
</g>
<g>
</g>
<g>
</g>
<g>
</g>
<g>
</g>
<g>
</g>
<g>
</g>
<g>
</g>
<g>
</g>
</svg>
