<?xml version="1.0" encoding="UTF-8"?>
<svg id="b" data-name="Layer 2" xmlns="http://www.w3.org/2000/svg" width="789.368" height="592.016" viewBox="0 0 789.368 592.016">
  <g id="c" data-name="Layer 1">
    <g>
      <path d="m690.699,49.327V0H98.669v49.327h-49.342v49.342H0v493.347h789.368V98.669h-49.342v-49.342h-49.327Zm0,0v49.342h49.327v148.012h-296.008v-49.342h-98.669v49.342H49.327V98.669h49.342v-49.342h592.03ZM49.327,296.008h296.021v49.34h98.669v-49.34h296.008v98.669H49.327v-98.669Zm0,148.01h690.699v98.669H49.327v-98.669Z" fill="#231f20" fill-rule="evenodd"/>
      <polygon points="148.01 246.681 345.348 246.681 345.348 197.338 444.018 197.338 444.018 246.681 740.025 246.681 740.025 98.669 690.699 98.669 690.699 49.327 197.338 49.327 197.338 98.669 148.01 98.669 148.01 246.681" fill="#ec1d3b" fill-rule="evenodd"/>
      <polygon points="49.327 394.677 740.025 394.677 740.025 296.008 444.018 296.008 444.018 345.348 345.348 345.348 345.348 296.008 49.327 296.008 49.327 394.677" fill="#ae282e" fill-rule="evenodd"/>
      <polygon points="148.01 542.686 740.025 542.686 740.025 444.017 98.669 444.017 98.669 493.346 148.01 493.346 148.01 542.686" fill="#ec1d3b" fill-rule="evenodd"/>
      <polygon points="148.01 246.681 148.01 98.669 197.338 98.669 197.338 49.327 98.669 49.327 98.669 98.669 49.327 98.669 49.327 246.681 148.01 246.681" fill="#a51e23" fill-rule="evenodd"/>
      <polygon points="148.01 542.686 148.01 493.346 98.669 493.346 98.669 444.017 49.327 444.017 49.327 542.686 148.01 542.686" fill="#a51e23" fill-rule="evenodd"/>
    </g>
  </g>
</svg>