<?xml version="1.0" encoding="iso-8859-1"?>
<!-- Generator: Adobe Illustrator 19.0.0, SVG Export Plug-In . SVG Version: 6.00 Build 0)  -->
<svg version="1.1" id="Layer_1" xmlns="http://www.w3.org/2000/svg" xmlns:xlink="http://www.w3.org/1999/xlink" x="0px" y="0px"
	 viewBox="0 0 512 512" style="enable-background:new 0 0 512 512;" xml:space="preserve">
<polygon style="fill:#2488FF;" points="478.609,66.783 478.609,33.391 445.217,33.391 445.217,0 66.783,0 66.783,33.391 
	33.391,33.391 33.391,66.783 0,66.783 0,445.217 33.391,445.217 33.391,478.609 66.783,478.609 66.783,512 445.217,512 
	445.217,478.609 478.609,478.609 478.609,445.217 512,445.217 512,66.783 "/>
<polygon style="fill:#FFFFFF;" points="66.783,0 66.783,33.391 33.391,33.391 33.391,66.783 0,66.783 0,100.174 66.783,100.174 
	66.783,66.783 100.174,66.783 100.174,0 "/>
<polygon style="fill:#004FAC;" points="478.609,66.783 478.609,33.391 445.217,33.391 445.217,0 256,0 256,512 445.217,512 
	445.217,478.609 478.609,478.609 478.609,445.217 512,445.217 512,66.783 "/>
<rect x="33.391" y="33.391" width="33.391" height="33.391"/>
<rect x="445.217" y="33.391" width="33.391" height="33.391"/>
<rect x="33.391" y="445.217" width="33.391" height="33.391"/>
<rect x="445.217" y="445.217" width="33.391" height="33.391"/>
<rect y="66.783" width="33.391" height="378.435"/>
<rect x="478.609" y="66.783" width="33.391" height="378.435"/>
<rect x="66.783" width="378.435" height="33.391"/>
<rect x="66.783" y="478.609" width="378.435" height="33.391"/>
<g>
	<rect x="122.435" y="189.217" style="fill:#FFFFFF;" width="33.391" height="133.565"/>
	<rect x="356.174" y="189.217" style="fill:#FFFFFF;" width="33.391" height="133.565"/>
	<rect x="189.217" y="122.435" style="fill:#FFFFFF;" width="133.565" height="33.391"/>
	<rect x="189.217" y="356.174" style="fill:#FFFFFF;" width="133.565" height="33.391"/>
	<rect x="155.826" y="155.826" style="fill:#FFFFFF;" width="33.391" height="33.391"/>
	<rect x="322.783" y="155.826" style="fill:#FFFFFF;" width="33.391" height="33.391"/>
	<rect x="155.826" y="322.783" style="fill:#FFFFFF;" width="33.391" height="33.391"/>
	<rect x="322.783" y="322.783" style="fill:#FFFFFF;" width="33.391" height="33.391"/>
	<rect x="378.435" y="89.043" style="fill:#FFFFFF;" width="44.522" height="44.522"/>
</g>
<g>
</g>
<g>
</g>
<g>
</g>
<g>
</g>
<g>
</g>
<g>
</g>
<g>
</g>
<g>
</g>
<g>
</g>
<g>
</g>
<g>
</g>
<g>
</g>
<g>
</g>
<g>
</g>
<g>
</g>
</svg>
