<?xml version="1.0" encoding="utf-8"?>
<!-- Generator: Adobe Illustrator 27.1.1, SVG Export Plug-In . SVG Version: 6.00 Build 0)  -->
<svg version="1.1" id="Layer_1" xmlns="http://www.w3.org/2000/svg" xmlns:xlink="http://www.w3.org/1999/xlink" x="0px" y="0px"
	 viewBox="0 0 512 512" style="enable-background:new 0 0 512 512;" xml:space="preserve">
<style type="text/css">
	.st0{fill:#EC1D3B;}
	.st1{fill:#27235E;}
	.st2{fill:#FFFFFF;}
	.st3{fill:#EEF2F4;}
</style>
<polygon class="st0" points="512,167 478.6,167 478.6,133.6 356.2,133.6 356.2,33.4 322.8,33.4 322.8,0 33.4,0 33.4,33.4 0,33.4 
	0,478.6 33.4,478.6 33.4,512 322.8,512 322.8,478.6 356.2,478.6 356.2,311.7 478.6,311.7 478.6,278.3 512,278.3 "/>
<polygon class="st1" points="478.6,167 478.6,133.6 289.4,133.6 289.4,66.8 66.8,66.8 66.8,378.4 222.6,378.4 289.4,378.4 
	289.4,345 356.2,345 356.2,311.7 478.6,311.7 478.6,278.3 512,278.3 512,167 "/>
<g>
	<rect x="66.8" y="133.6" class="st2" width="66.8" height="33.4"/>
	<rect x="133.6" y="66.8" class="st2" width="33.4" height="66.8"/>
</g>
<polygon class="st3" points="512,167 478.6,167 478.6,133.6 167,133.6 167,167 133.6,167 133.6,278.3 167,278.3 167,311.7 
	222.6,311.7 222.6,345 222.6,378.4 289.4,378.4 289.4,345 356.2,345 356.2,311.7 478.6,311.7 478.6,278.3 512,278.3 "/>
<rect y="33.4" width="33.4" height="445.2"/>
<rect x="33.4" width="289.4" height="33.4"/>
<rect x="33.4" y="478.6" width="289.4" height="33.4"/>
<rect x="155.8" y="411.8" width="44.5" height="33.4"/>
<polygon points="322.8,278.3 322.8,311.7 289.4,311.7 289.4,345 322.8,345 322.8,478.6 356.2,478.6 356.2,311.7 478.6,311.7 
	478.6,278.3 "/>
<rect x="133.6" y="167" width="33.4" height="111.3"/>
<polygon points="289.4,133.6 289.4,66.8 66.8,66.8 66.8,378.4 289.4,378.4 289.4,345 256,345 256,278.3 167,278.3 167,311.7 
	222.6,311.7 222.6,345 100.2,345 100.2,100.2 256,100.2 256,133.6 167,133.6 167,167 478.6,167 478.6,133.6 356.2,133.6 356.2,33.4 
	322.8,33.4 322.8,133.6 "/>
<rect x="478.6" y="167" width="33.4" height="111.3"/>
</svg>
