<?xml version="1.0" encoding="utf-8"?>
<!-- Generator: Adobe Illustrator 27.1.1, SVG Export Plug-In . SVG Version: 6.00 Build 0)  -->
<svg version="1.1" id="Layer_1" xmlns="http://www.w3.org/2000/svg" xmlns:xlink="http://www.w3.org/1999/xlink" x="0px" y="0px"
	 viewBox="0 0 512 512" style="enable-background:new 0 0 512 512;" xml:space="preserve">
<style type="text/css">
	.st0{fill:#EC1D3B;}
	.st1{fill:#27235E;}
	.st2{fill:#FFFFFF;}
</style>
<polygon class="st0" points="400.7,33.4 400.7,0 111.3,0 111.3,33.4 77.9,33.4 77.9,478.6 111.3,478.6 111.3,512 400.7,512 
	400.7,478.6 434.1,478.6 434.1,33.4 "/>
<rect x="144.7" y="66.8" class="st1" width="222.6" height="311.7"/>
<g>
	<rect x="144.7" y="133.6" class="st2" width="66.8" height="33.4"/>
	<rect x="211.5" y="66.8" class="st2" width="33.4" height="66.8"/>
	<rect x="200.3" y="311.7" class="st2" width="33.4" height="66.8"/>
	<rect x="233.7" y="278.3" class="st2" width="33.4" height="33.4"/>
	<rect x="300.5" y="211.5" class="st2" width="66.8" height="33.4"/>
	<rect x="267.1" y="244.9" class="st2" width="33.4" height="33.4"/>
</g>
<rect x="77.9" y="33.4" width="33.4" height="445.2"/>
<rect x="400.7" y="33.4" width="33.4" height="445.2"/>
<rect x="111.3" width="289.4" height="33.4"/>
<path d="M144.7,66.8v311.7h222.6V66.8H144.7z M333.9,345H178.1V100.2h155.8L333.9,345L333.9,345z"/>
<rect x="111.3" y="478.6" width="289.4" height="33.4"/>
<rect x="233.7" y="411.8" width="44.5" height="33.4"/>
</svg>
