<?xml version="1.0" encoding="UTF-8"?>
<svg id="b" data-name="Layer 2" xmlns="http://www.w3.org/2000/svg" width="1452.802" height="1452.81" viewBox="0 0 1452.802 1452.81">
  <g id="c" data-name="svg8">
    <g id="d" data-name="g5817">
      <g id="e" data-name="g4499">
        <path id="f" data-name="rect4471" d="m551.06,100.194h50.096v50.098h-50.096v-50.098Z" fill="#547580"/>
        <path id="g" data-name="rect4473" d="m601.155,100.194h50.097v50.098h-50.097v-50.098Z" fill="#547580"/>
        <path id="h" data-name="rect4475" d="m651.252,100.194h50.097v50.098h-50.097v-50.098Z" fill="#547580"/>
        <path id="i" data-name="rect4477" d="m701.349,100.194h50.097v50.098h-50.097v-50.098Z" fill="#547580"/>
        <path id="j" data-name="rect4479" d="m751.445,100.194h50.097v50.098h-50.097v-50.098Z" fill="#547580"/>
        <path id="k" data-name="rect4481" d="m801.542,100.194h50.096v50.098h-50.096v-50.098Z" fill="#547580"/>
        <path id="l" data-name="rect4483" d="m500.963,200.389h50.097v50.098h-50.097v-50.098Z" fill="#547580"/>
        <path id="m" data-name="rect4485" d="m551.06,200.389h50.096v50.098h-50.096v-50.098Z" fill="#547580"/>
        <path id="n" data-name="rect4487" d="m601.155,200.389h50.097v50.098h-50.097v-50.098Z" fill="#547580"/>
        <path id="o" data-name="rect4489" d="m651.252,200.389h50.097v50.098h-50.097v-50.098Z" fill="#547580"/>
        <path id="p" data-name="rect4491" d="m701.349,200.389h50.097v50.098h-50.097v-50.098Z" fill="#547580"/>
        <path id="q" data-name="rect4493" d="m751.444,200.389h50.097v50.098h-50.097v-50.098Z" fill="#547580"/>
        <path id="r" data-name="rect4495" d="m801.542,200.389h50.096v50.098h-50.096v-50.098Z" fill="#547580"/>
        <path id="s" data-name="rect4497" d="m851.638,200.389h50.097v50.098h-50.097v-50.098Z" fill="#547580"/>
      </g>
      <g id="t" data-name="g4505">
        <path id="u" data-name="rect4501" d="m250.483,801.531h50.096v50.097h-50.096v-50.097Z" fill="#cef2ff"/>
        <path id="v" data-name="rect4503" d="m300.577,751.44h50.097v50.098h-50.097v-50.098Z" fill="#cef2ff"/>
      </g>
      <g id="w" data-name="g4521">
        <path id="x" data-name="rect4507" d="m250.483,751.434h50.097v50.098h-50.097v-50.098Z" fill="#a6e0f7"/>
        <path id="y" data-name="rect4509" d="m250.483,851.623h50.097v50.097h-50.097v-50.097Z" fill="#a6e0f7"/>
        <path id="z" data-name="rect4511" d="m350.674,751.44h50.097v50.098h-50.097v-50.098Z" fill="#a6e0f7"/>
        <path id="aa" data-name="rect4513" d="m300.577,801.537h50.097v50.097h-50.097v-50.097Z" fill="#a6e0f7"/>
        <path id="ab" data-name="rect4515" d="m350.673,801.537h50.097v50.097h-50.097v-50.097Z" fill="#a6e0f7"/>
        <path id="ac" data-name="rect4517" d="m300.577,851.628h50.097v50.098h-50.097v-50.098Z" fill="#a6e0f7"/>
        <path id="ad" data-name="rect4519" d="m350.674,851.628h50.097v50.098h-50.097v-50.098Z" fill="#a6e0f7"/>
      </g>
      <g id="ae" data-name="g4619">
        <path id="af" data-name="rect4523" d="m551.059,0h50.097v50.097h-50.097V0Z" fill="#f3d55b"/>
        <path id="ag" data-name="rect4525" d="m601.155,0h50.097v50.097h-50.097V0Z" fill="#f3d55b"/>
        <path id="ah" data-name="rect4527" d="m651.252,0h50.097v50.097h-50.097V0Z" fill="#f3d55b"/>
        <path id="ai" data-name="rect4529" d="m701.349,0h50.096v50.097h-50.096V0Z" fill="#f3d55b"/>
        <path id="aj" data-name="rect4531" d="m751.444,0h50.097v50.097h-50.097V0Z" fill="#f3d55b"/>
        <path id="ak" data-name="rect4533" d="m801.541,0h50.097v50.097h-50.097V0Z" fill="#f3d55b"/>
        <path id="al" data-name="rect4535" d="m500.963,50.092h50.097v50.097h-50.097v-50.097Z" fill="#f3d55b"/>
        <path id="am" data-name="rect4537" d="m551.06,50.092h50.096v50.097h-50.096v-50.097Z" fill="#f3d55b"/>
        <path id="an" data-name="rect4539" d="m601.155,50.092h50.097v50.097h-50.097v-50.097Z" fill="#f3d55b"/>
        <path id="ao" data-name="rect4541" d="m651.252,50.092h50.097v50.097h-50.097v-50.097Z" fill="#f3d55b"/>
        <path id="ap" data-name="rect4543" d="m701.349,50.092h50.097v50.097h-50.097v-50.097Z" fill="#f3d55b"/>
        <path id="aq" data-name="rect4545" d="m751.444,50.092h50.097v50.097h-50.097v-50.097Z" fill="#f3d55b"/>
        <path id="ar" data-name="rect4547" d="m801.542,50.092h50.096v50.097h-50.096v-50.097Z" fill="#f3d55b"/>
        <path id="as" data-name="rect4549" d="m851.638,50.092h50.097v50.097h-50.097v-50.097Z" fill="#f3d55b"/>
        <path id="at" data-name="rect4551" d="m450.866,100.194h50.097v50.098h-50.097v-50.098Z" fill="#f3d55b"/>
        <path id="au" data-name="rect4553" d="m500.963,100.194h50.097v50.098h-50.097v-50.098Z" fill="#f3d55b"/>
        <path id="av" data-name="rect4555" d="m851.638,100.194h50.097v50.098h-50.097v-50.098Z" fill="#f3d55b"/>
        <path id="aw" data-name="rect4557" d="m450.866,150.292h50.097v50.097h-50.097v-50.097Z" fill="#f3d55b"/>
        <path id="ax" data-name="rect4559" d="m500.963,150.292h50.097v50.097h-50.097v-50.097Z" fill="#f3d55b"/>
        <path id="ay" data-name="rect4561" d="m551.06,150.292h50.096v50.097h-50.096v-50.097Z" fill="#f3d55b"/>
        <path id="az" data-name="rect4563" d="m601.155,150.292h50.097v50.097h-50.097v-50.097Z" fill="#f3d55b"/>
        <path id="ba" data-name="rect4565" d="m651.252,150.292h50.097v50.097h-50.097v-50.097Z" fill="#f3d55b"/>
        <path id="bb" data-name="rect4567" d="m701.349,150.292h50.097v50.097h-50.097v-50.097Z" fill="#f3d55b"/>
        <path id="bc" data-name="rect4569" d="m751.445,150.292h50.097v50.097h-50.097v-50.097Z" fill="#f3d55b"/>
        <path id="bd" data-name="rect4571" d="m801.542,150.292h50.096v50.097h-50.096v-50.097Z" fill="#f3d55b"/>
        <path id="be" data-name="rect4573" d="m851.638,150.292h50.097v50.097h-50.097v-50.097Z" fill="#f3d55b"/>
        <path id="bf" data-name="rect4575" d="m450.866,200.389h50.096v50.098h-50.096v-50.098Z" fill="#f3d55b"/>
        <path id="bg" data-name="rect4577" d="m450.866,250.481h50.097v50.098h-50.097v-50.098Z" fill="#f3d55b"/>
        <path id="bh" data-name="rect4579" d="m500.963,250.481h50.097v50.098h-50.097v-50.098Z" fill="#f3d55b"/>
        <path id="bi" data-name="rect4581" d="m551.06,250.481h50.096v50.098h-50.096v-50.098Z" fill="#f3d55b"/>
        <path id="bj" data-name="rect4583" d="m601.155,250.481h50.097v50.098h-50.097v-50.098Z" fill="#f3d55b"/>
        <path id="bk" data-name="rect4585" d="m651.252,250.481h50.097v50.098h-50.097v-50.098Z" fill="#f3d55b"/>
        <path id="bl" data-name="rect4587" d="m701.349,250.481h50.097v50.098h-50.097v-50.098Z" fill="#f3d55b"/>
        <path id="bm" data-name="rect4589" d="m751.445,250.481h50.097v50.098h-50.097v-50.098Z" fill="#f3d55b"/>
        <path id="bn" data-name="rect4591" d="m801.542,250.481h50.096v50.098h-50.096v-50.098Z" fill="#f3d55b"/>
        <path id="bo" data-name="rect4593" d="m851.638,250.481h50.097v50.098h-50.097v-50.098Z" fill="#f3d55b"/>
        <path id="bp" data-name="rect4595" d="m500.963,300.578h50.097v50.097h-50.097v-50.097Z" fill="#f3d55b"/>
        <path id="bq" data-name="rect4597" d="m551.06,300.578h50.096v50.097h-50.096v-50.097Z" fill="#f3d55b"/>
        <path id="br" data-name="rect4599" d="m601.155,300.578h50.097v50.097h-50.097v-50.097Z" fill="#f3d55b"/>
        <path id="bs" data-name="rect4601" d="m651.252,300.578h50.097v50.097h-50.097v-50.097Z" fill="#f3d55b"/>
        <path id="bt" data-name="rect4603" d="m701.349,300.578h50.097v50.097h-50.097v-50.097Z" fill="#f3d55b"/>
        <path id="bu" data-name="rect4605" d="m751.444,300.578h50.097v50.097h-50.097v-50.097Z" fill="#f3d55b"/>
        <path id="bv" data-name="rect4607" d="m801.542,300.578h50.096v50.097h-50.096v-50.097Z" fill="#f3d55b"/>
        <path id="bw" data-name="rect4609" d="m851.638,300.578h50.097v50.097h-50.097v-50.097Z" fill="#f3d55b"/>
        <path id="bx" data-name="rect4611" d="m901.737,100.189h50.096v50.097h-50.096v-50.097Z" fill="#f3d55b"/>
        <path id="by" data-name="rect4613" d="m901.737,150.286h50.096v50.098h-50.096v-50.098Z" fill="#f3d55b"/>
        <path id="bz" data-name="rect4615" d="m901.737,200.384h50.096v50.097h-50.096v-50.097Z" fill="#f3d55b"/>
        <path id="ca" data-name="rect4617" d="m901.737,250.475h50.096v50.098h-50.096v-50.098Z" fill="#f3d55b"/>
      </g>
      <g id="cb" data-name="g4709">
        <path id="cc" data-name="rect4621" d="m200.386,350.669h50.097v50.098h-50.097v-50.098Z" fill="#4fba6f"/>
        <path id="cd" data-name="rect4623" d="m200.386,400.767h50.097v50.098h-50.097v-50.098Z" fill="#4fba6f"/>
        <path id="ce" data-name="rect4625" d="m200.386,450.864h50.097v50.097h-50.097v-50.097Z" fill="#4fba6f"/>
        <path id="cf" data-name="rect4627" d="m200.386,500.961h50.097v50.098h-50.097v-50.098Z" fill="#4fba6f"/>
        <path id="cg" data-name="rect4629" d="m250.48,350.675h50.097v50.098h-50.097v-50.098Z" fill="#4fba6f"/>
        <path id="ch" data-name="rect4631" d="m300.576,350.675h50.097v50.098h-50.097v-50.098Z" fill="#4fba6f"/>
        <path id="ci" data-name="rect4633" d="m500.963,350.675h50.097v50.098h-50.097v-50.098Z" fill="#4fba6f"/>
        <path id="cj" data-name="rect4635" d="m551.06,350.675h50.096v50.098h-50.096v-50.098Z" fill="#4fba6f"/>
        <path id="ck" data-name="rect4637" d="m601.155,350.675h50.097v50.098h-50.097v-50.098Z" fill="#4fba6f"/>
        <path id="cl" data-name="rect4639" d="m250.48,400.773h50.097v50.098h-50.097v-50.098Z" fill="#4fba6f"/>
        <path id="cm" data-name="rect4641" d="m300.576,400.773h50.097v50.098h-50.097v-50.098Z" fill="#4fba6f"/>
        <path id="cn" data-name="rect4643" d="m500.963,400.773h50.097v50.098h-50.097v-50.098Z" fill="#4fba6f"/>
        <path id="co" data-name="rect4645" d="m551.059,400.773h50.097v50.098h-50.097v-50.098Z" fill="#4fba6f"/>
        <path id="cp" data-name="rect4647" d="m601.155,400.773h50.097v50.098h-50.097v-50.098Z" fill="#4fba6f"/>
        <path id="cq" data-name="rect4649" d="m250.48,450.87h50.097v50.097h-50.097v-50.097Z" fill="#4fba6f"/>
        <path id="cr" data-name="rect4651" d="m300.576,450.87h50.097v50.097h-50.097v-50.097Z" fill="#4fba6f"/>
        <path id="cs" data-name="rect4653" d="m500.963,450.87h50.097v50.097h-50.097v-50.097Z" fill="#4fba6f"/>
        <path id="ct" data-name="rect4655" d="m551.06,450.87h50.096v50.097h-50.096v-50.097Z" fill="#4fba6f"/>
        <path id="cu" data-name="rect4657" d="m601.155,450.87h50.097v50.097h-50.097v-50.097Z" fill="#4fba6f"/>
        <path id="cv" data-name="rect4659" d="m250.48,500.967h50.097v50.098h-50.097v-50.098Z" fill="#4fba6f"/>
        <path id="cw" data-name="rect4661" d="m500.963,500.967h50.097v50.098h-50.097v-50.098Z" fill="#4fba6f"/>
        <path id="cx" data-name="rect4663" d="m551.059,500.967h50.097v50.098h-50.097v-50.098Z" fill="#4fba6f"/>
        <path id="cy" data-name="rect4665" d="m801.542,350.675h50.096v50.098h-50.096v-50.098Z" fill="#4fba6f"/>
        <path id="cz" data-name="rect4667" d="m851.638,350.675h50.097v50.098h-50.097v-50.098Z" fill="#4fba6f"/>
        <path id="da" data-name="rect4669" d="m801.541,400.773h50.097v50.098h-50.097v-50.098Z" fill="#4fba6f"/>
        <path id="db" data-name="rect4671" d="m851.638,400.773h50.097v50.098h-50.097v-50.098Z" fill="#4fba6f"/>
        <path id="dc" data-name="rect4673" d="m801.542,450.87h50.096v50.097h-50.096v-50.097Z" fill="#4fba6f"/>
        <path id="dd" data-name="rect4675" d="m851.638,450.87h50.097v50.097h-50.097v-50.097Z" fill="#4fba6f"/>
        <path id="de" data-name="rect4677" d="m851.638,500.967h50.097v50.098h-50.097v-50.098Z" fill="#4fba6f"/>
        <path id="df" data-name="rect4679" d="m901.737,350.669h50.096v50.098h-50.096v-50.098Z" fill="#4fba6f"/>
        <path id="dg" data-name="rect4681" d="m901.737,400.767h50.096v50.098h-50.096v-50.098Z" fill="#4fba6f"/>
        <path id="dh" data-name="rect4683" d="m901.737,450.864h50.096v50.097h-50.096v-50.097Z" fill="#4fba6f"/>
        <path id="di" data-name="rect4685" d="m901.737,500.961h50.096v50.098h-50.096v-50.098Z" fill="#4fba6f"/>
        <path id="dj" data-name="rect4687" d="m1102.123,350.675h50.097v50.098h-50.097v-50.098Z" fill="#4fba6f"/>
        <path id="dk" data-name="rect4689" d="m1102.123,400.773h50.097v50.098h-50.097v-50.098Z" fill="#4fba6f"/>
        <path id="dl" data-name="rect4691" d="m1102.123,450.87h50.097v50.097h-50.097v-50.097Z" fill="#4fba6f"/>
        <path id="dm" data-name="rect4693" d="m1152.22,350.669h50.096v50.098h-50.096v-50.098Z" fill="#4fba6f"/>
        <path id="dn" data-name="rect4695" d="m1152.22,400.767h50.096v50.098h-50.096v-50.098Z" fill="#4fba6f"/>
        <path id="do" data-name="rect4697" d="m1152.22,450.864h50.096v50.097h-50.096v-50.097Z" fill="#4fba6f"/>
        <path id="dp" data-name="rect4699" d="m1152.22,500.961h50.096v50.098h-50.096v-50.098Z" fill="#4fba6f"/>
        <path id="dq" data-name="rect4701" d="m1202.316,350.675h50.097v50.098h-50.097v-50.098Z" fill="#4fba6f"/>
        <path id="dr" data-name="rect4703" d="m1202.316,400.773h50.097v50.098h-50.097v-50.098Z" fill="#4fba6f"/>
        <path id="ds" data-name="rect4705" d="m1202.316,450.87h50.097v50.097h-50.097v-50.097Z" fill="#4fba6f"/>
        <path id="dt" data-name="rect4707" d="m1202.316,500.967h50.097v50.098h-50.097v-50.098Z" fill="#4fba6f"/>
      </g>
      <g id="du" data-name="g4767">
        <path id="dv" data-name="rect4711" d="m150.29,250.481h50.096v50.098h-50.096v-50.098Z" fill="#269856"/>
        <path id="dw" data-name="rect4713" d="m100.193,300.578h50.097v50.097h-50.097v-50.097Z" fill="#269856"/>
        <path id="dx" data-name="rect4715" d="m150.29,300.578h50.096v50.097h-50.096v-50.097Z" fill="#269856"/>
        <path id="dy" data-name="rect4717" d="m200.386,250.475h50.098v50.098h-50.098v-50.098Z" fill="#269856"/>
        <path id="dz" data-name="rect4719" d="m200.386,300.572h50.097v50.097h-50.097v-50.097Z" fill="#269856"/>
        <path id="ea" data-name="rect4721" d="m250.48,250.481h50.097v50.098h-50.097v-50.098Z" fill="#269856"/>
        <path id="eb" data-name="rect4723" d="m300.577,250.481h50.096v50.098h-50.096v-50.098Z" fill="#269856"/>
        <path id="ec" data-name="rect4725" d="m350.673,250.481h50.097v50.098h-50.097v-50.098Z" fill="#269856"/>
        <path id="ed" data-name="rect4727" d="m400.77,250.481h50.097v50.098h-50.097v-50.098Z" fill="#269856"/>
        <path id="ee" data-name="rect4729" d="m250.48,300.578h50.097v50.097h-50.097v-50.097Z" fill="#269856"/>
        <path id="ef" data-name="rect4731" d="m300.576,300.578h50.097v50.097h-50.097v-50.097Z" fill="#269856"/>
        <path id="eg" data-name="rect4733" d="m350.673,300.578h50.097v50.097h-50.097v-50.097Z" fill="#269856"/>
        <path id="eh" data-name="rect4735" d="m400.77,300.578h50.097v50.097h-50.097v-50.097Z" fill="#269856"/>
        <path id="ei" data-name="rect4737" d="m450.866,300.578h50.096v50.097h-50.096v-50.097Z" fill="#269856"/>
        <path id="ej" data-name="rect4739" d="m951.834,250.481h50.097v50.098h-50.097v-50.098Z" fill="#269856"/>
        <path id="ek" data-name="rect4741" d="m1001.931,250.481h50.096v50.098h-50.096v-50.098Z" fill="#269856"/>
        <path id="el" data-name="rect4743" d="m1052.026,250.481h50.097v50.098h-50.097v-50.098Z" fill="#269856"/>
        <path id="em" data-name="rect4745" d="m1102.123,250.481h50.097v50.098h-50.097v-50.098Z" fill="#269856"/>
        <path id="en" data-name="rect4747" d="m951.833,300.578h50.097v50.097h-50.097v-50.097Z" fill="#269856"/>
        <path id="eo" data-name="rect4749" d="m1001.93,300.578h50.097v50.097h-50.097v-50.097Z" fill="#269856"/>
        <path id="ep" data-name="rect4751" d="m1052.026,300.578h50.097v50.097h-50.097v-50.097Z" fill="#269856"/>
        <path id="eq" data-name="rect4753" d="m1102.123,300.578h50.097v50.097h-50.097v-50.097Z" fill="#269856"/>
        <path id="er" data-name="rect4755" d="m901.737,300.572h50.096v50.097h-50.096v-50.097Z" fill="#269856"/>
        <path id="es" data-name="rect4757" d="m1152.22,250.475h50.096v50.098h-50.096v-50.098Z" fill="#269856"/>
        <path id="et" data-name="rect4759" d="m1152.22,300.572h50.096v50.097h-50.096v-50.097Z" fill="#269856"/>
        <path id="eu" data-name="rect4761" d="m1202.316,250.481h50.097v50.098h-50.097v-50.098Z" fill="#269856"/>
        <path id="ev" data-name="rect4763" d="m1202.316,300.578h50.097v50.097h-50.097v-50.097Z" fill="#269856"/>
        <path id="ew" data-name="rect4765" d="m1252.415,300.572h50.097v50.097h-50.097v-50.097Z" fill="#269856"/>
      </g>
      <g id="ex" data-name="g4875">
        <path id="ey" data-name="rect4769" d="m50.097,350.675h50.097v50.098h-50.097v-50.098Z" fill="#f0c419"/>
        <path id="ez" data-name="rect4771" d="m100.193,350.675h50.097v50.098h-50.097v-50.098Z" fill="#f0c419"/>
        <path id="fa" data-name="rect4773" d="m150.29,350.675h50.096v50.098h-50.096v-50.098Z" fill="#f0c419"/>
        <path id="fb" data-name="rect4775" d="m50.097,400.773h50.097v50.098h-50.097v-50.098Z" fill="#f0c419"/>
        <path id="fc" data-name="rect4777" d="m100.193,400.773h50.097v50.098h-50.097v-50.098Z" fill="#f0c419"/>
        <path id="fd" data-name="rect4779" d="m150.29,400.773h50.096v50.098h-50.096v-50.098Z" fill="#f0c419"/>
        <path id="fe" data-name="rect4781" d="m50.097,450.87h50.097v50.097h-50.097v-50.097Z" fill="#f0c419"/>
        <path id="ff" data-name="rect4783" d="m100.193,450.87h50.097v50.097h-50.097v-50.097Z" fill="#f0c419"/>
        <path id="fg" data-name="rect4785" d="m150.29,450.87h50.096v50.097h-50.096v-50.097Z" fill="#f0c419"/>
        <path id="fh" data-name="rect4787" d="m50.097,500.967h50.097v50.098h-50.097v-50.098Z" fill="#f0c419"/>
        <path id="fi" data-name="rect4789" d="m100.193,500.967h50.097v50.098h-50.097v-50.098Z" fill="#f0c419"/>
        <path id="fj" data-name="rect4791" d="m350.673,350.675h50.097v50.098h-50.097v-50.098Z" fill="#f0c419"/>
        <path id="fk" data-name="rect4793" d="m400.77,350.675h50.097v50.098h-50.097v-50.098Z" fill="#f0c419"/>
        <path id="fl" data-name="rect4795" d="m450.866,350.675h50.096v50.098h-50.096v-50.098Z" fill="#f0c419"/>
        <path id="fm" data-name="rect4797" d="m350.673,400.773h50.097v50.098h-50.097v-50.098Z" fill="#f0c419"/>
        <path id="fn" data-name="rect4799" d="m400.77,400.773h50.096v50.098h-50.096v-50.098Z" fill="#f0c419"/>
        <path id="fo" data-name="rect4801" d="m450.866,400.773h50.096v50.098h-50.096v-50.098Z" fill="#f0c419"/>
        <path id="fp" data-name="rect4803" d="m350.673,450.87h50.097v50.097h-50.097v-50.097Z" fill="#f0c419"/>
        <path id="fq" data-name="rect4805" d="m400.77,450.87h50.097v50.097h-50.097v-50.097Z" fill="#f0c419"/>
        <path id="fr" data-name="rect4807" d="m450.866,450.87h50.096v50.097h-50.096v-50.097Z" fill="#f0c419"/>
        <path id="fs" data-name="rect4809" d="m350.673,500.967h50.097v50.098h-50.097v-50.098Z" fill="#f0c419"/>
        <path id="ft" data-name="rect4811" d="m400.77,500.967h50.096v50.098h-50.096v-50.098Z" fill="#f0c419"/>
        <path id="fu" data-name="rect4813" d="m651.252,350.675h50.097v50.098h-50.097v-50.098Z" fill="#f0c419"/>
        <path id="fv" data-name="rect4815" d="m701.349,350.675h50.097v50.098h-50.097v-50.098Z" fill="#f0c419"/>
        <path id="fw" data-name="rect4817" d="m751.444,350.675h50.097v50.098h-50.097v-50.098Z" fill="#f0c419"/>
        <path id="fx" data-name="rect4819" d="m651.252,400.773h50.097v50.098h-50.097v-50.098Z" fill="#f0c419"/>
        <path id="fy" data-name="rect4821" d="m701.349,400.773h50.096v50.098h-50.096v-50.098Z" fill="#f0c419"/>
        <path id="fz" data-name="rect4823" d="m751.444,400.773h50.097v50.098h-50.097v-50.098Z" fill="#f0c419"/>
        <path id="ga" data-name="rect4825" d="m651.252,450.87h50.097v50.097h-50.097v-50.097Z" fill="#f0c419"/>
        <path id="gb" data-name="rect4827" d="m701.349,450.87h50.097v50.097h-50.097v-50.097Z" fill="#f0c419"/>
        <path id="gc" data-name="rect4829" d="m751.444,450.87h50.097v50.097h-50.097v-50.097Z" fill="#f0c419"/>
        <path id="gd" data-name="rect4831" d="m701.349,500.967h50.096v50.098h-50.096v-50.098Z" fill="#f0c419"/>
        <path id="ge" data-name="rect4833" d="m951.833,350.675h50.097v50.098h-50.097v-50.098Z" fill="#f0c419"/>
        <path id="gf" data-name="rect4835" d="m1001.93,350.675h50.097v50.098h-50.097v-50.098Z" fill="#f0c419"/>
        <path id="gg" data-name="rect4837" d="m1052.026,350.675h50.097v50.098h-50.097v-50.098Z" fill="#f0c419"/>
        <path id="gh" data-name="rect4839" d="m951.833,400.773h50.097v50.098h-50.097v-50.098Z" fill="#f0c419"/>
        <path id="gi" data-name="rect4841" d="m1001.93,400.773h50.097v50.098h-50.097v-50.098Z" fill="#f0c419"/>
        <path id="gj" data-name="rect4843" d="m1052.026,400.773h50.097v50.098h-50.097v-50.098Z" fill="#f0c419"/>
        <path id="gk" data-name="rect4845" d="m951.833,450.87h50.097v50.097h-50.097v-50.097Z" fill="#f0c419"/>
        <path id="gl" data-name="rect4847" d="m1001.93,450.87h50.097v50.097h-50.097v-50.097Z" fill="#f0c419"/>
        <path id="gm" data-name="rect4849" d="m1052.026,450.87h50.097v50.097h-50.097v-50.097Z" fill="#f0c419"/>
        <path id="gn" data-name="rect4851" d="m1001.93,500.967h50.097v50.098h-50.097v-50.098Z" fill="#f0c419"/>
        <path id="go" data-name="rect4853" d="m1052.026,500.967h50.097v50.098h-50.097v-50.098Z" fill="#f0c419"/>
        <path id="gp" data-name="rect4855" d="m1302.512,350.675h50.097v50.098h-50.097v-50.098Z" fill="#f0c419"/>
        <path id="gq" data-name="rect4857" d="m1302.512,400.773h50.097v50.098h-50.097v-50.098Z" fill="#f0c419"/>
        <path id="gr" data-name="rect4859" d="m1352.608,400.773h50.097v50.098h-50.097v-50.098Z" fill="#f0c419"/>
        <path id="gs" data-name="rect4861" d="m1302.512,450.87h50.097v50.097h-50.097v-50.097Z" fill="#f0c419"/>
        <path id="gt" data-name="rect4863" d="m1352.608,450.87h50.097v50.097h-50.097v-50.097Z" fill="#f0c419"/>
        <path id="gu" data-name="rect4865" d="m1302.512,500.967h50.097v50.098h-50.097v-50.098Z" fill="#f0c419"/>
        <path id="gv" data-name="rect4867" d="m1352.608,500.967h50.097v50.098h-50.097v-50.098Z" fill="#f0c419"/>
        <path id="gw" data-name="rect4869" d="m1252.415,350.669h50.097v50.098h-50.097v-50.098Z" fill="#f0c419"/>
        <path id="gx" data-name="rect4871" d="m1252.415,400.767h50.097v50.098h-50.097v-50.098Z" fill="#f0c419"/>
        <path id="gy" data-name="rect4873" d="m1252.415,450.864h50.097v50.097h-50.097v-50.097Z" fill="#f0c419"/>
      </g>
      <g id="gz" data-name="g4881">
        <path id="ha" data-name="rect4877" d="m200.387,1001.932h50.097v50.098h-50.097v-50.098Z" fill="#bdc3c7"/>
        <path id="hb" data-name="rect4879" d="m200.387,1052.024h50.097v50.097h-50.097v-50.097Z" fill="#bdc3c7"/>
      </g>
      <g id="hc" data-name="g4891">
        <path id="hd" data-name="rect4883" d="m901.734,1102.128h50.097v50.098h-50.097v-50.098Z" fill="#999"/>
        <path id="he" data-name="rect4885" d="m901.734,1152.226h50.097v50.098h-50.097v-50.098Z" fill="#999"/>
        <path id="hf" data-name="rect4887" d="m901.734,1202.323h50.097v50.097h-50.097v-50.097Z" fill="#999"/>
        <path id="hg" data-name="rect4889" d="m901.735,1052.014h50.096v50.098h-50.096v-50.098Z" fill="#999"/>
      </g>
      <g id="hh" data-name="g5063">
        <path id="hi" data-name="rect4893" d="m200.387,651.245h50.097v50.098h-50.097v-50.098Z" fill="#cb8252"/>
        <path id="hj" data-name="rect4895" d="m150.29,701.343h50.097v50.097h-50.097v-50.097Z" fill="#cb8252"/>
        <path id="hk" data-name="rect4897" d="m200.387,701.343h50.097v50.097h-50.097v-50.097Z" fill="#cb8252"/>
        <path id="hl" data-name="rect4899" d="m150.29,751.44h50.097v50.098h-50.097v-50.098Z" fill="#cb8252"/>
        <path id="hm" data-name="rect4901" d="m200.387,751.44h50.097v50.098h-50.097v-50.098Z" fill="#cb8252"/>
        <path id="hn" data-name="rect4903" d="m150.29,801.537h50.097v50.097h-50.097v-50.097Z" fill="#cb8252"/>
        <path id="ho" data-name="rect4905" d="m200.387,801.537h50.097v50.097h-50.097v-50.097Z" fill="#cb8252"/>
        <path id="hp" data-name="rect4907" d="m150.29,851.628h50.097v50.098h-50.097v-50.098Z" fill="#cb8252"/>
        <path id="hq" data-name="rect4909" d="m200.387,851.628h50.097v50.098h-50.097v-50.098Z" fill="#cb8252"/>
        <path id="hr" data-name="rect4911" d="m250.483,651.239h50.097v50.098h-50.097v-50.098Z" fill="#cb8252"/>
        <path id="hs" data-name="rect4913" d="m250.483,701.337h50.097v50.097h-50.097v-50.097Z" fill="#cb8252"/>
        <path id="ht" data-name="rect4915" d="m300.577,651.245h50.097v50.098h-50.097v-50.098Z" fill="#cb8252"/>
        <path id="hu" data-name="rect4917" d="m350.674,651.245h50.097v50.098h-50.097v-50.098Z" fill="#cb8252"/>
        <path id="hv" data-name="rect4919" d="m400.771,651.245h50.096v50.098h-50.096v-50.098Z" fill="#cb8252"/>
        <path id="hw" data-name="rect4921" d="m300.577,701.343h50.097v50.097h-50.097v-50.097Z" fill="#cb8252"/>
        <path id="hx" data-name="rect4923" d="m350.674,701.343h50.097v50.097h-50.097v-50.097Z" fill="#cb8252"/>
        <path id="hy" data-name="rect4925" d="m400.771,701.343h50.096v50.097h-50.096v-50.097Z" fill="#cb8252"/>
        <path id="hz" data-name="rect4927" d="m450.866,701.343h50.097v50.097h-50.097v-50.097Z" fill="#cb8252"/>
        <path id="ia" data-name="rect4929" d="m400.771,751.44h50.096v50.098h-50.096v-50.098Z" fill="#cb8252"/>
        <path id="ib" data-name="rect4931" d="m450.866,751.44h50.097v50.098h-50.097v-50.098Z" fill="#cb8252"/>
        <path id="ic" data-name="rect4933" d="m400.77,801.537h50.097v50.097h-50.097v-50.097Z" fill="#cb8252"/>
        <path id="id" data-name="rect4935" d="m450.866,801.537h50.097v50.097h-50.097v-50.097Z" fill="#cb8252"/>
        <path id="ie" data-name="rect4937" d="m400.771,851.628h50.096v50.098h-50.096v-50.098Z" fill="#cb8252"/>
        <path id="if" data-name="rect4939" d="m450.866,851.628h50.097v50.098h-50.097v-50.098Z" fill="#cb8252"/>
        <path id="ig" data-name="rect4941" d="m150.291,901.737h50.097v50.098h-50.097v-50.098Z" fill="#cb8252"/>
        <path id="ih" data-name="rect4943" d="m200.387,901.737h50.097v50.098h-50.097v-50.098Z" fill="#cb8252"/>
        <path id="ii" data-name="rect4945" d="m150.291,951.835h50.097v50.097h-50.097v-50.097Z" fill="#cb8252"/>
        <path id="ij" data-name="rect4947" d="m200.387,951.835h50.097v50.097h-50.097v-50.097Z" fill="#cb8252"/>
        <path id="ik" data-name="rect4949" d="m150.29,1001.932h50.097v50.098h-50.097v-50.098Z" fill="#cb8252"/>
        <path id="il" data-name="rect4951" d="m150.291,1052.024h50.097v50.097h-50.097v-50.097Z" fill="#cb8252"/>
        <path id="im" data-name="rect4953" d="m150.29,1102.12h50.097v50.098h-50.097v-50.098Z" fill="#cb8252"/>
        <path id="in" data-name="rect4955" d="m200.387,1102.12h50.097v50.098h-50.097v-50.098Z" fill="#cb8252"/>
        <path id="io" data-name="rect4957" d="m150.29,1152.218h50.097v50.098h-50.097v-50.098Z" fill="#cb8252"/>
        <path id="ip" data-name="rect4959" d="m200.387,1152.218h50.097v50.098h-50.097v-50.098Z" fill="#cb8252"/>
        <path id="iq" data-name="rect4961" d="m150.29,1202.316h50.097v50.097h-50.097v-50.097Z" fill="#cb8252"/>
        <path id="ir" data-name="rect4963" d="m200.387,1202.316h50.097v50.097h-50.097v-50.097Z" fill="#cb8252"/>
        <path id="is" data-name="rect4965" d="m150.29,1252.412h50.097v50.098h-50.097v-50.098Z" fill="#cb8252"/>
        <path id="it" data-name="rect4967" d="m200.387,1252.412h50.097v50.098h-50.097v-50.098Z" fill="#cb8252"/>
        <path id="iu" data-name="rect4969" d="m150.29,1302.51h50.097v50.097h-50.097v-50.097Z" fill="#cb8252"/>
        <path id="iv" data-name="rect4971" d="m200.387,1302.51h50.097v50.097h-50.097v-50.097Z" fill="#cb8252"/>
        <path id="iw" data-name="rect4973" d="m250.483,901.731h50.097v50.098h-50.097v-50.098Z" fill="#cb8252"/>
        <path id="ix" data-name="rect4975" d="m250.483,951.829h50.097v50.097h-50.097v-50.097Z" fill="#cb8252"/>
        <path id="iy" data-name="rect4977" d="m250.483,1001.926h50.097v50.098h-50.097v-50.098Z" fill="#cb8252"/>
        <path id="iz" data-name="rect4979" d="m250.483,1052.018h50.097v50.097h-50.097v-50.097Z" fill="#cb8252"/>
        <path id="ja" data-name="rect4981" d="m250.483,1102.114h50.097v50.098h-50.097v-50.098Z" fill="#cb8252"/>
        <path id="jb" data-name="rect4983" d="m250.483,1152.212h50.097v50.098h-50.097v-50.098Z" fill="#cb8252"/>
        <path id="jc" data-name="rect4985" d="m250.483,1202.31h50.097v50.097h-50.097v-50.097Z" fill="#cb8252"/>
        <path id="jd" data-name="rect4987" d="m250.483,1252.406h50.097v50.098h-50.097v-50.098Z" fill="#cb8252"/>
        <path id="je" data-name="rect4989" d="m250.483,1302.504h50.097v50.097h-50.097v-50.097Z" fill="#cb8252"/>
        <path id="jf" data-name="rect4991" d="m300.577,901.737h50.097v50.098h-50.097v-50.098Z" fill="#cb8252"/>
        <path id="jg" data-name="rect4993" d="m350.674,901.737h50.097v50.098h-50.097v-50.098Z" fill="#cb8252"/>
        <path id="jh" data-name="rect4995" d="m400.771,901.737h50.096v50.098h-50.096v-50.098Z" fill="#cb8252"/>
        <path id="ji" data-name="rect4997" d="m450.867,901.737h50.096v50.098h-50.096v-50.098Z" fill="#cb8252"/>
        <path id="jj" data-name="rect4999" d="m300.577,951.835h50.097v50.097h-50.097v-50.097Z" fill="#cb8252"/>
        <path id="jk" data-name="rect5001" d="m350.674,951.835h50.097v50.097h-50.097v-50.097Z" fill="#cb8252"/>
        <path id="jl" data-name="rect5003" d="m400.771,951.835h50.096v50.097h-50.096v-50.097Z" fill="#cb8252"/>
        <path id="jm" data-name="rect5005" d="m450.867,951.835h50.096v50.097h-50.096v-50.097Z" fill="#cb8252"/>
        <path id="jn" data-name="rect5007" d="m300.577,1001.932h50.097v50.098h-50.097v-50.098Z" fill="#cb8252"/>
        <path id="jo" data-name="rect5009" d="m350.674,1001.932h50.097v50.098h-50.097v-50.098Z" fill="#cb8252"/>
        <path id="jp" data-name="rect5011" d="m400.771,1001.932h50.096v50.098h-50.096v-50.098Z" fill="#cb8252"/>
        <path id="jq" data-name="rect5013" d="m450.866,1001.932h50.097v50.098h-50.097v-50.098Z" fill="#cb8252"/>
        <path id="jr" data-name="rect5015" d="m300.577,1052.024h50.097v50.097h-50.097v-50.097Z" fill="#cb8252"/>
        <path id="js" data-name="rect5017" d="m350.674,1052.024h50.097v50.097h-50.097v-50.097Z" fill="#cb8252"/>
        <path id="jt" data-name="rect5019" d="m400.771,1052.024h50.096v50.097h-50.096v-50.097Z" fill="#cb8252"/>
        <path id="ju" data-name="rect5021" d="m450.867,1052.024h50.096v50.097h-50.096v-50.097Z" fill="#cb8252"/>
        <path id="jv" data-name="rect5023" d="m300.577,1102.12h50.097v50.098h-50.097v-50.098Z" fill="#cb8252"/>
        <path id="jw" data-name="rect5025" d="m350.674,1102.12h50.097v50.098h-50.097v-50.098Z" fill="#cb8252"/>
        <path id="jx" data-name="rect5027" d="m400.771,1102.12h50.096v50.098h-50.096v-50.098Z" fill="#cb8252"/>
        <path id="jy" data-name="rect5029" d="m450.866,1102.12h50.097v50.098h-50.097v-50.098Z" fill="#cb8252"/>
        <path id="jz" data-name="rect5031" d="m300.577,1152.218h50.097v50.098h-50.097v-50.098Z" fill="#cb8252"/>
        <path id="ka" data-name="rect5033" d="m350.674,1152.218h50.097v50.098h-50.097v-50.098Z" fill="#cb8252"/>
        <path id="kb" data-name="rect5035" d="m400.771,1152.218h50.096v50.098h-50.096v-50.098Z" fill="#cb8252"/>
        <path id="kc" data-name="rect5037" d="m450.866,1152.218h50.097v50.098h-50.097v-50.098Z" fill="#cb8252"/>
        <path id="kd" data-name="rect5039" d="m300.577,1202.316h50.097v50.097h-50.097v-50.097Z" fill="#cb8252"/>
        <path id="ke" data-name="rect5041" d="m350.674,1202.316h50.097v50.097h-50.097v-50.097Z" fill="#cb8252"/>
        <path id="kf" data-name="rect5043" d="m400.771,1202.316h50.096v50.097h-50.096v-50.097Z" fill="#cb8252"/>
        <path id="kg" data-name="rect5045" d="m450.866,1202.316h50.097v50.097h-50.097v-50.097Z" fill="#cb8252"/>
        <path id="kh" data-name="rect5047" d="m300.577,1252.412h50.097v50.098h-50.097v-50.098Z" fill="#cb8252"/>
        <path id="ki" data-name="rect5049" d="m350.674,1252.412h50.097v50.098h-50.097v-50.098Z" fill="#cb8252"/>
        <path id="kj" data-name="rect5051" d="m400.771,1252.412h50.096v50.098h-50.096v-50.098Z" fill="#cb8252"/>
        <path id="kk" data-name="rect5053" d="m450.866,1252.412h50.097v50.098h-50.097v-50.098Z" fill="#cb8252"/>
        <path id="kl" data-name="rect5055" d="m300.577,1302.51h50.097v50.097h-50.097v-50.097Z" fill="#cb8252"/>
        <path id="km" data-name="rect5057" d="m350.674,1302.51h50.097v50.097h-50.097v-50.097Z" fill="#cb8252"/>
        <path id="kn" data-name="rect5059" d="m400.771,1302.51h50.096v50.097h-50.096v-50.097Z" fill="#cb8252"/>
        <path id="ko" data-name="rect5061" d="m450.866,1302.51h50.097v50.097h-50.097v-50.097Z" fill="#cb8252"/>
      </g>
      <g id="kp" data-name="g5097">
        <path id="kq" data-name="rect5065" d="m651.252,951.843h50.097v50.097h-50.097v-50.097Z" fill="#c1c1c1"/>
        <path id="kr" data-name="rect5067" d="m651.252,1001.94h50.097v50.098h-50.097v-50.098Z" fill="#c1c1c1"/>
        <path id="ks" data-name="rect5069" d="m651.252,1052.031h50.097v50.097h-50.097v-50.097Z" fill="#c1c1c1"/>
        <path id="kt" data-name="rect5071" d="m651.252,1102.128h50.097v50.098h-50.097v-50.098Z" fill="#c1c1c1"/>
        <path id="ku" data-name="rect5073" d="m651.252,1152.226h50.097v50.098h-50.097v-50.098Z" fill="#c1c1c1"/>
        <path id="kv" data-name="rect5075" d="m751.445,1152.226h50.097v50.098h-50.097v-50.098Z" fill="#c1c1c1"/>
        <path id="kw" data-name="rect5077" d="m651.252,1202.323h50.097v50.097h-50.097v-50.097Z" fill="#c1c1c1"/>
        <path id="kx" data-name="rect5079" d="m751.444,1202.323h50.098v50.097h-50.098v-50.097Z" fill="#c1c1c1"/>
        <path id="ky" data-name="rect5081" d="m1152.22,951.843h50.097v50.097h-50.097v-50.097Z" fill="#c1c1c1"/>
        <path id="kz" data-name="rect5083" d="m1152.22,1001.94h50.097v50.098h-50.097v-50.098Z" fill="#c1c1c1"/>
        <path id="la" data-name="rect5085" d="m1152.22,1052.031h50.097v50.097h-50.097v-50.097Z" fill="#c1c1c1"/>
        <path id="lb" data-name="rect5087" d="m1152.22,1102.128h50.097v50.098h-50.097v-50.098Z" fill="#c1c1c1"/>
        <path id="lc" data-name="rect5089" d="m1052.026,1152.226h50.097v50.098h-50.097v-50.098Z" fill="#c1c1c1"/>
        <path id="ld" data-name="rect5091" d="m1152.22,1152.226h50.097v50.098h-50.097v-50.098Z" fill="#c1c1c1"/>
        <path id="le" data-name="rect5093" d="m1052.026,1202.323h50.097v50.097h-50.097v-50.097Z" fill="#c1c1c1"/>
        <path id="lf" data-name="rect5095" d="m1152.22,1202.323h50.097v50.097h-50.097v-50.097Z" fill="#c1c1c1"/>
      </g>
      <g id="lg" data-name="g5109">
        <path id="lh" data-name="rect5099" d="m801.539,1001.926h50.097v50.097h-50.097v-50.097Z" fill="#cb8252"/>
        <path id="li" data-name="rect5101" d="m851.636,1001.926h50.096v50.097h-50.096v-50.097Z" fill="#cb8252"/>
        <path id="lj" data-name="rect5103" d="m901.732,1001.926h50.097v50.097h-50.097v-50.097Z" fill="#cb8252"/>
        <path id="lk" data-name="rect5105" d="m1001.928,1001.926h50.097v50.097h-50.097v-50.097Z" fill="#cb8252"/>
        <path id="ll" data-name="rect5107" d="m951.831,1001.92h50.097v50.097h-50.097v-50.097Z" fill="#cb8252"/>
      </g>
      <g id="lm" data-name="g5171">
        <path id="ln" data-name="rect5111" d="m551.06,1252.42h50.096v50.098h-50.096v-50.098Z" fill="#fac176"/>
        <path id="lo" data-name="rect5113" d="m601.155,1252.42h50.098v50.098h-50.098v-50.098Z" fill="#fac176"/>
        <path id="lp" data-name="rect5115" d="m651.252,1252.42h50.097v50.098h-50.097v-50.098Z" fill="#fac176"/>
        <path id="lq" data-name="rect5117" d="m701.349,1252.42h50.096v50.098h-50.096v-50.098Z" fill="#fac176"/>
        <path id="lr" data-name="rect5119" d="m751.445,1252.42h50.097v50.098h-50.097v-50.098Z" fill="#fac176"/>
        <path id="ls" data-name="rect5121" d="m801.542,1252.42h50.096v50.098h-50.096v-50.098Z" fill="#fac176"/>
        <path id="lt" data-name="rect5123" d="m851.638,1252.42h50.097v50.098h-50.097v-50.098Z" fill="#fac176"/>
        <path id="lu" data-name="rect5125" d="m901.734,1252.42h50.097v50.098h-50.097v-50.098Z" fill="#fac176"/>
        <path id="lv" data-name="rect5127" d="m551.06,1302.518h50.096v50.097h-50.096v-50.097Z" fill="#fac176"/>
        <path id="lw" data-name="rect5129" d="m601.155,1302.518h50.096v50.097h-50.096v-50.097Z" fill="#fac176"/>
        <path id="lx" data-name="rect5131" d="m651.252,1302.518h50.097v50.097h-50.097v-50.097Z" fill="#fac176"/>
        <path id="ly" data-name="rect5133" d="m701.349,1302.518h50.096v50.097h-50.096v-50.097Z" fill="#fac176"/>
        <path id="lz" data-name="rect5135" d="m751.444,1302.518h50.098v50.097h-50.098v-50.097Z" fill="#fac176"/>
        <path id="ma" data-name="rect5137" d="m801.541,1302.518h50.097v50.097h-50.097v-50.097Z" fill="#fac176"/>
        <path id="mb" data-name="rect5139" d="m851.638,1302.518h50.097v50.097h-50.097v-50.097Z" fill="#fac176"/>
        <path id="mc" data-name="rect5141" d="m901.734,1302.518h50.097v50.097h-50.097v-50.097Z" fill="#fac176"/>
        <path id="md" data-name="rect5143" d="m1001.931,1252.42h50.096v50.098h-50.096v-50.098Z" fill="#fac176"/>
        <path id="me" data-name="rect5145" d="m1052.026,1252.42h50.097v50.098h-50.097v-50.098Z" fill="#fac176"/>
        <path id="mf" data-name="rect5147" d="m1102.123,1252.42h50.097v50.098h-50.097v-50.098Z" fill="#fac176"/>
        <path id="mg" data-name="rect5149" d="m1152.22,1252.42h50.097v50.098h-50.097v-50.098Z" fill="#fac176"/>
        <path id="mh" data-name="rect5151" d="m1001.93,1302.518h50.097v50.097h-50.097v-50.097Z" fill="#fac176"/>
        <path id="mi" data-name="rect5153" d="m1052.026,1302.518h50.097v50.097h-50.097v-50.097Z" fill="#fac176"/>
        <path id="mj" data-name="rect5155" d="m1102.123,1302.518h50.097v50.097h-50.097v-50.097Z" fill="#fac176"/>
        <path id="mk" data-name="rect5157" d="m1152.22,1302.518h50.097v50.097h-50.097v-50.097Z" fill="#fac176"/>
        <path id="ml" data-name="rect5159" d="m951.834,1252.414h50.096v50.098h-50.096v-50.098Z" fill="#fac176"/>
        <path id="mm" data-name="rect5161" d="m951.833,1302.512h50.097v50.097h-50.097v-50.097Z" fill="#fac176"/>
        <path id="mn" data-name="rect5163" d="m1202.316,1252.414h50.097v50.098h-50.097v-50.098Z" fill="#fac176"/>
        <path id="mo" data-name="rect5165" d="m1202.315,1302.512h50.097v50.097h-50.097v-50.097Z" fill="#fac176"/>
        <path id="mp" data-name="rect5167" d="m1252.413,1252.42h50.097v50.098h-50.097v-50.098Z" fill="#fac176"/>
        <path id="mq" data-name="rect5169" d="m1252.413,1302.518h50.097v50.097h-50.097v-50.097Z" fill="#fac176"/>
      </g>
      <g id="mr" data-name="g5289">
        <path id="ms" data-name="rect5173" d="m0,1352.614h50.097v50.098H0v-50.098Z" fill="#979796"/>
        <path id="mt" data-name="rect5175" d="m50.097,1352.614h50.097v50.098h-50.097v-50.098Z" fill="#979796"/>
        <path id="mu" data-name="rect5177" d="m100.193,1352.614h50.097v50.098h-50.097v-50.098Z" fill="#979796"/>
        <path id="mv" data-name="rect5179" d="m150.29,1352.614h50.097v50.098h-50.097v-50.098Z" fill="#979796"/>
        <path id="mw" data-name="rect5181" d="m0,1402.712h50.097v50.098H0v-50.098Z" fill="#979796"/>
        <path id="mx" data-name="rect5183" d="m50.097,1402.712h50.097v50.098h-50.097v-50.098Z" fill="#979796"/>
        <path id="my" data-name="rect5185" d="m100.193,1402.712h50.097v50.098h-50.097v-50.098Z" fill="#979796"/>
        <path id="mz" data-name="rect5187" d="m150.29,1402.712h50.097v50.098h-50.097v-50.098Z" fill="#979796"/>
        <path id="na" data-name="rect5189" d="m200.386,1352.608h50.097v50.098h-50.097v-50.098Z" fill="#979796"/>
        <path id="nb" data-name="rect5191" d="m200.386,1402.706h50.097v50.098h-50.097v-50.098Z" fill="#979796"/>
        <path id="nc" data-name="rect5193" d="m250.481,1352.614h50.097v50.098h-50.097v-50.098Z" fill="#979796"/>
        <path id="nd" data-name="rect5195" d="m300.576,1352.614h50.097v50.098h-50.097v-50.098Z" fill="#979796"/>
        <path id="ne" data-name="rect5197" d="m350.673,1352.614h50.097v50.098h-50.097v-50.098Z" fill="#979796"/>
        <path id="nf" data-name="rect5199" d="m400.77,1352.614h50.097v50.098h-50.097v-50.098Z" fill="#979796"/>
        <path id="ng" data-name="rect5201" d="m450.866,1352.614h50.096v50.098h-50.096v-50.098Z" fill="#979796"/>
        <path id="nh" data-name="rect5203" d="m500.963,1352.614h50.097v50.098h-50.097v-50.098Z" fill="#979796"/>
        <path id="ni" data-name="rect5205" d="m551.059,1352.614h50.097v50.098h-50.097v-50.098Z" fill="#979796"/>
        <path id="nj" data-name="rect5207" d="m601.155,1352.614h50.097v50.098h-50.097v-50.098Z" fill="#979796"/>
        <path id="nk" data-name="rect5209" d="m651.252,1352.614h50.097v50.098h-50.097v-50.098Z" fill="#979796"/>
        <path id="nl" data-name="rect5211" d="m701.349,1352.614h50.097v50.098h-50.097v-50.098Z" fill="#979796"/>
        <path id="nm" data-name="rect5213" d="m751.444,1352.614h50.097v50.098h-50.097v-50.098Z" fill="#979796"/>
        <path id="nn" data-name="rect5215" d="m801.542,1352.614h50.096v50.098h-50.096v-50.098Z" fill="#979796"/>
        <path id="no" data-name="rect5217" d="m851.638,1352.614h50.097v50.098h-50.097v-50.098Z" fill="#979796"/>
        <path id="np" data-name="rect5219" d="m250.481,1402.712h50.097v50.098h-50.097v-50.098Z" fill="#979796"/>
        <path id="nq" data-name="rect5221" d="m300.576,1402.712h50.097v50.098h-50.097v-50.098Z" fill="#979796"/>
        <path id="nr" data-name="rect5223" d="m350.673,1402.712h50.097v50.098h-50.097v-50.098Z" fill="#979796"/>
        <path id="ns" data-name="rect5225" d="m400.77,1402.712h50.096v50.098h-50.096v-50.098Z" fill="#979796"/>
        <path id="nt" data-name="rect5227" d="m450.866,1402.712h50.096v50.098h-50.096v-50.098Z" fill="#979796"/>
        <path id="nu" data-name="rect5229" d="m500.963,1402.712h50.097v50.098h-50.097v-50.098Z" fill="#979796"/>
        <path id="nv" data-name="rect5231" d="m551.059,1402.712h50.097v50.098h-50.097v-50.098Z" fill="#979796"/>
        <path id="nw" data-name="rect5233" d="m601.155,1402.712h50.097v50.098h-50.097v-50.098Z" fill="#979796"/>
        <path id="nx" data-name="rect5235" d="m651.252,1402.712h50.097v50.098h-50.097v-50.098Z" fill="#979796"/>
        <path id="ny" data-name="rect5237" d="m701.348,1402.712h50.097v50.098h-50.097v-50.098Z" fill="#979796"/>
        <path id="nz" data-name="rect5239" d="m751.444,1402.712h50.097v50.098h-50.097v-50.098Z" fill="#979796"/>
        <path id="oa" data-name="rect5241" d="m801.542,1402.712h50.096v50.098h-50.096v-50.098Z" fill="#979796"/>
        <path id="ob" data-name="rect5243" d="m851.638,1402.712h50.097v50.098h-50.097v-50.098Z" fill="#979796"/>
        <path id="oc" data-name="rect5245" d="m951.833,1352.614h50.097v50.098h-50.097v-50.098Z" fill="#979796"/>
        <path id="od" data-name="rect5247" d="m1001.93,1352.614h50.097v50.098h-50.097v-50.098Z" fill="#979796"/>
        <path id="oe" data-name="rect5249" d="m1052.026,1352.614h50.097v50.098h-50.097v-50.098Z" fill="#979796"/>
        <path id="of" data-name="rect5251" d="m1102.124,1352.614h50.096v50.098h-50.096v-50.098Z" fill="#979796"/>
        <path id="og" data-name="rect5253" d="m951.833,1402.712h50.097v50.098h-50.097v-50.098Z" fill="#979796"/>
        <path id="oh" data-name="rect5255" d="m1001.93,1402.712h50.097v50.098h-50.097v-50.098Z" fill="#979796"/>
        <path id="oi" data-name="rect5257" d="m1052.026,1402.712h50.097v50.098h-50.097v-50.098Z" fill="#979796"/>
        <path id="oj" data-name="rect5259" d="m1102.124,1402.712h50.096v50.098h-50.096v-50.098Z" fill="#979796"/>
        <path id="ok" data-name="rect5261" d="m901.737,1352.608h50.096v50.098h-50.096v-50.098Z" fill="#979796"/>
        <path id="ol" data-name="rect5263" d="m901.737,1402.706h50.096v50.098h-50.096v-50.098Z" fill="#979796"/>
        <path id="om" data-name="rect5265" d="m1152.22,1352.608h50.096v50.098h-50.096v-50.098Z" fill="#979796"/>
        <path id="on" data-name="rect5267" d="m1152.22,1402.706h50.096v50.098h-50.096v-50.098Z" fill="#979796"/>
        <path id="oo" data-name="rect5269" d="m1202.316,1352.614h50.097v50.098h-50.097v-50.098Z" fill="#979796"/>
        <path id="op" data-name="rect5271" d="m1202.316,1402.712h50.097v50.098h-50.097v-50.098Z" fill="#979796"/>
        <path id="oq" data-name="rect5273" d="m1302.512,1352.614h50.097v50.098h-50.097v-50.098Z" fill="#979796"/>
        <path id="or" data-name="rect5275" d="m1352.608,1352.614h50.097v50.098h-50.097v-50.098Z" fill="#979796"/>
        <path id="os" data-name="rect5277" d="m1402.705,1352.614h50.097v50.098h-50.097v-50.098Z" fill="#979796"/>
        <path id="ot" data-name="rect5279" d="m1302.512,1402.712h50.097v50.098h-50.097v-50.098Z" fill="#979796"/>
        <path id="ou" data-name="rect5281" d="m1352.608,1402.712h50.097v50.098h-50.097v-50.098Z" fill="#979796"/>
        <path id="ov" data-name="rect5283" d="m1402.704,1402.712h50.097v50.098h-50.097v-50.098Z" fill="#979796"/>
        <path id="ow" data-name="rect5285" d="m1252.415,1352.608h50.097v50.098h-50.097v-50.098Z" fill="#979796"/>
        <path id="ox" data-name="rect5287" d="m1252.415,1402.706h50.097v50.098h-50.097v-50.098Z" fill="#979796"/>
      </g>
      <g id="oy" data-name="g5583">
        <path id="oz" data-name="rect5291" d="m601.156,651.249h50.096v50.098h-50.096v-50.098Z" fill="#3f5c6c"/>
        <path id="pa" data-name="rect5293" d="m651.253,651.249h50.096v50.098h-50.096v-50.098Z" fill="#3f5c6c"/>
        <path id="pb" data-name="rect5295" d="m701.349,651.249h50.097v50.098h-50.097v-50.098Z" fill="#3f5c6c"/>
        <path id="pc" data-name="rect5297" d="m751.445,651.249h50.097v50.098h-50.097v-50.098Z" fill="#3f5c6c"/>
        <path id="pd" data-name="rect5299" d="m801.542,651.249h50.097v50.098h-50.097v-50.098Z" fill="#3f5c6c"/>
        <path id="pe" data-name="rect5301" d="m851.639,651.249h50.097v50.098h-50.097v-50.098Z" fill="#3f5c6c"/>
        <path id="pf" data-name="rect5303" d="m551.06,701.347h50.097v50.097h-50.097v-50.097Z" fill="#3f5c6c"/>
        <path id="pg" data-name="rect5305" d="m601.156,701.347h50.096v50.097h-50.096v-50.097Z" fill="#3f5c6c"/>
        <path id="ph" data-name="rect5307" d="m651.252,701.347h50.097v50.097h-50.097v-50.097Z" fill="#3f5c6c"/>
        <path id="pi" data-name="rect5309" d="m701.349,701.347h50.097v50.097h-50.097v-50.097Z" fill="#3f5c6c"/>
        <path id="pj" data-name="rect5311" d="m751.445,701.347h50.097v50.097h-50.097v-50.097Z" fill="#3f5c6c"/>
        <path id="pk" data-name="rect5313" d="m801.542,701.347h50.096v50.097h-50.096v-50.097Z" fill="#3f5c6c"/>
        <path id="pl" data-name="rect5315" d="m851.639,701.347h50.097v50.097h-50.097v-50.097Z" fill="#3f5c6c"/>
        <path id="pm" data-name="rect5317" d="m551.06,751.443h50.097v50.098h-50.097v-50.098Z" fill="#3f5c6c"/>
        <path id="pn" data-name="rect5319" d="m601.156,751.443h50.096v50.098h-50.096v-50.098Z" fill="#3f5c6c"/>
        <path id="po" data-name="rect5321" d="m651.252,751.443h50.097v50.098h-50.097v-50.098Z" fill="#3f5c6c"/>
        <path id="pp" data-name="rect5323" d="m701.349,751.443h50.097v50.098h-50.097v-50.098Z" fill="#3f5c6c"/>
        <path id="pq" data-name="rect5325" d="m751.445,751.443h50.097v50.098h-50.097v-50.098Z" fill="#3f5c6c"/>
        <path id="pr" data-name="rect5327" d="m801.542,751.443h50.096v50.098h-50.096v-50.098Z" fill="#3f5c6c"/>
        <path id="ps" data-name="rect5329" d="m851.639,751.443h50.097v50.098h-50.097v-50.098Z" fill="#3f5c6c"/>
        <path id="pt" data-name="rect5331" d="m551.06,801.541h50.097v50.097h-50.097v-50.097Z" fill="#3f5c6c"/>
        <path id="pu" data-name="rect5333" d="m601.155,801.541h50.097v50.097h-50.097v-50.097Z" fill="#3f5c6c"/>
        <path id="pv" data-name="rect5335" d="m651.252,801.541h50.097v50.097h-50.097v-50.097Z" fill="#3f5c6c"/>
        <path id="pw" data-name="rect5337" d="m701.349,801.541h50.097v50.097h-50.097v-50.097Z" fill="#3f5c6c"/>
        <path id="px" data-name="rect5339" d="m751.445,801.541h50.097v50.097h-50.097v-50.097Z" fill="#3f5c6c"/>
        <path id="py" data-name="rect5341" d="m801.542,801.541h50.096v50.097h-50.096v-50.097Z" fill="#3f5c6c"/>
        <path id="pz" data-name="rect5343" d="m851.638,801.541h50.097v50.097h-50.097v-50.097Z" fill="#3f5c6c"/>
        <path id="qa" data-name="rect5345" d="m901.735,801.541h50.096v50.097h-50.096v-50.097Z" fill="#3f5c6c"/>
        <path id="qb" data-name="rect5347" d="m551.06,851.632h50.097v50.098h-50.097v-50.098Z" fill="#3f5c6c"/>
        <path id="qc" data-name="rect5349" d="m601.156,851.632h50.096v50.098h-50.096v-50.098Z" fill="#3f5c6c"/>
        <path id="qd" data-name="rect5351" d="m651.252,851.632h50.097v50.098h-50.097v-50.098Z" fill="#3f5c6c"/>
        <path id="qe" data-name="rect5353" d="m701.349,851.632h50.097v50.098h-50.097v-50.098Z" fill="#3f5c6c"/>
        <path id="qf" data-name="rect5355" d="m751.445,851.632h50.097v50.098h-50.097v-50.098Z" fill="#3f5c6c"/>
        <path id="qg" data-name="rect5357" d="m801.542,851.632h50.096v50.098h-50.096v-50.098Z" fill="#3f5c6c"/>
        <path id="qh" data-name="rect5359" d="m851.639,851.632h50.097v50.098h-50.097v-50.098Z" fill="#3f5c6c"/>
        <path id="qi" data-name="rect5361" d="m901.735,851.632h50.096v50.098h-50.096v-50.098Z" fill="#3f5c6c"/>
        <path id="qj" data-name="rect5363" d="m1001.931,651.249h50.097v50.098h-50.097v-50.098Z" fill="#3f5c6c"/>
        <path id="qk" data-name="rect5365" d="m1052.027,651.249h50.097v50.098h-50.097v-50.098Z" fill="#3f5c6c"/>
        <path id="ql" data-name="rect5367" d="m1102.124,651.249h50.096v50.098h-50.096v-50.098Z" fill="#3f5c6c"/>
        <path id="qm" data-name="rect5369" d="m1152.22,651.249h50.097v50.098h-50.097v-50.098Z" fill="#3f5c6c"/>
        <path id="qn" data-name="rect5371" d="m1001.931,701.347h50.096v50.097h-50.096v-50.097Z" fill="#3f5c6c"/>
        <path id="qo" data-name="rect5373" d="m1052.026,701.347h50.098v50.097h-50.098v-50.097Z" fill="#3f5c6c"/>
        <path id="qp" data-name="rect5375" d="m1102.124,701.347h50.096v50.097h-50.096v-50.097Z" fill="#3f5c6c"/>
        <path id="qq" data-name="rect5377" d="m1152.22,701.347h50.097v50.097h-50.097v-50.097Z" fill="#3f5c6c"/>
        <path id="qr" data-name="rect5379" d="m1001.931,751.443h50.096v50.098h-50.096v-50.098Z" fill="#3f5c6c"/>
        <path id="qs" data-name="rect5381" d="m1052.026,751.443h50.098v50.098h-50.098v-50.098Z" fill="#3f5c6c"/>
        <path id="qt" data-name="rect5383" d="m1102.124,751.443h50.096v50.098h-50.096v-50.098Z" fill="#3f5c6c"/>
        <path id="qu" data-name="rect5385" d="m1152.22,751.443h50.097v50.098h-50.097v-50.098Z" fill="#3f5c6c"/>
        <path id="qv" data-name="rect5387" d="m1001.931,801.541h50.096v50.097h-50.096v-50.097Z" fill="#3f5c6c"/>
        <path id="qw" data-name="rect5389" d="m1052.026,801.541h50.097v50.097h-50.097v-50.097Z" fill="#3f5c6c"/>
        <path id="qx" data-name="rect5391" d="m1102.123,801.541h50.097v50.097h-50.097v-50.097Z" fill="#3f5c6c"/>
        <path id="qy" data-name="rect5393" d="m1152.22,801.541h50.097v50.097h-50.097v-50.097Z" fill="#3f5c6c"/>
        <path id="qz" data-name="rect5395" d="m1001.931,851.632h50.096v50.098h-50.096v-50.098Z" fill="#3f5c6c"/>
        <path id="ra" data-name="rect5397" d="m1052.026,851.632h50.098v50.098h-50.098v-50.098Z" fill="#3f5c6c"/>
        <path id="rb" data-name="rect5399" d="m1102.124,851.632h50.096v50.098h-50.096v-50.098Z" fill="#3f5c6c"/>
        <path id="rc" data-name="rect5401" d="m1152.22,851.632h50.097v50.098h-50.097v-50.098Z" fill="#3f5c6c"/>
        <path id="rd" data-name="rect5403" d="m951.834,651.243h50.097v50.098h-50.097v-50.098Z" fill="#3f5c6c"/>
        <path id="re" data-name="rect5405" d="m951.834,701.341h50.097v50.097h-50.097v-50.097Z" fill="#3f5c6c"/>
        <path id="rf" data-name="rect5407" d="m951.834,751.438h50.097v50.098h-50.097v-50.098Z" fill="#3f5c6c"/>
        <path id="rg" data-name="rect5409" d="m951.834,801.535h50.097v50.097h-50.097v-50.097Z" fill="#3f5c6c"/>
        <path id="rh" data-name="rect5411" d="m951.834,851.627h50.097v50.097h-50.097v-50.097Z" fill="#3f5c6c"/>
        <path id="ri" data-name="rect5413" d="m1202.316,651.243h50.097v50.098h-50.097v-50.098Z" fill="#3f5c6c"/>
        <path id="rj" data-name="rect5415" d="m1202.316,701.341h50.097v50.097h-50.097v-50.097Z" fill="#3f5c6c"/>
        <path id="rk" data-name="rect5417" d="m1202.316,751.438h50.097v50.098h-50.097v-50.098Z" fill="#3f5c6c"/>
        <path id="rl" data-name="rect5419" d="m1202.316,801.535h50.097v50.097h-50.097v-50.097Z" fill="#3f5c6c"/>
        <path id="rm" data-name="rect5421" d="m1202.316,851.627h50.097v50.097h-50.097v-50.097Z" fill="#3f5c6c"/>
        <path id="rn" data-name="rect5423" d="m1252.413,701.347h50.097v50.097h-50.097v-50.097Z" fill="#3f5c6c"/>
        <path id="ro" data-name="rect5425" d="m1252.413,751.443h50.097v50.098h-50.097v-50.098Z" fill="#3f5c6c"/>
        <path id="rp" data-name="rect5427" d="m1252.413,801.541h50.097v50.097h-50.097v-50.097Z" fill="#3f5c6c"/>
        <path id="rq" data-name="rect5429" d="m1252.413,851.632h50.097v50.098h-50.097v-50.098Z" fill="#3f5c6c"/>
        <path id="rr" data-name="rect5431" d="m551.06,901.741h50.097v50.098h-50.097v-50.098Z" fill="#3f5c6c"/>
        <path id="rs" data-name="rect5433" d="m601.156,901.741h50.097v50.098h-50.097v-50.098Z" fill="#3f5c6c"/>
        <path id="rt" data-name="rect5435" d="m651.253,901.741h50.096v50.098h-50.096v-50.098Z" fill="#3f5c6c"/>
        <path id="ru" data-name="rect5437" d="m701.349,901.741h50.097v50.098h-50.097v-50.098Z" fill="#3f5c6c"/>
        <path id="rv" data-name="rect5439" d="m751.446,901.741h50.096v50.098h-50.096v-50.098Z" fill="#3f5c6c"/>
        <path id="rw" data-name="rect5441" d="m801.542,901.741h50.097v50.098h-50.097v-50.098Z" fill="#3f5c6c"/>
        <path id="rx" data-name="rect5443" d="m851.639,901.741h50.097v50.098h-50.097v-50.098Z" fill="#3f5c6c"/>
        <path id="ry" data-name="rect5445" d="m901.735,901.741h50.097v50.098h-50.097v-50.098Z" fill="#3f5c6c"/>
        <path id="rz" data-name="rect5447" d="m551.06,951.839h50.097v50.097h-50.097v-50.097Z" fill="#3f5c6c"/>
        <path id="sa" data-name="rect5449" d="m601.156,951.839h50.097v50.097h-50.097v-50.097Z" fill="#3f5c6c"/>
        <path id="sb" data-name="rect5451" d="m701.349,951.839h50.097v50.097h-50.097v-50.097Z" fill="#3f5c6c"/>
        <path id="sc" data-name="rect5453" d="m751.446,951.839h50.096v50.097h-50.096v-50.097Z" fill="#3f5c6c"/>
        <path id="sd" data-name="rect5455" d="m801.542,951.839h50.097v50.097h-50.097v-50.097Z" fill="#3f5c6c"/>
        <path id="se" data-name="rect5457" d="m851.639,951.839h50.097v50.097h-50.097v-50.097Z" fill="#3f5c6c"/>
        <path id="sf" data-name="rect5459" d="m901.735,951.839h50.097v50.097h-50.097v-50.097Z" fill="#3f5c6c"/>
        <path id="sg" data-name="rect5461" d="m551.06,1001.936h50.097v50.098h-50.097v-50.098Z" fill="#3f5c6c"/>
        <path id="sh" data-name="rect5463" d="m601.156,1001.936h50.097v50.098h-50.097v-50.098Z" fill="#3f5c6c"/>
        <path id="si" data-name="rect5465" d="m701.349,1001.936h50.097v50.098h-50.097v-50.098Z" fill="#3f5c6c"/>
        <path id="sj" data-name="rect5467" d="m751.445,1001.936h50.097v50.098h-50.097v-50.098Z" fill="#3f5c6c"/>
        <path id="sk" data-name="rect5469" d="m551.06,1052.027h50.097v50.097h-50.097v-50.097Z" fill="#3f5c6c"/>
        <path id="sl" data-name="rect5471" d="m601.156,1052.027h50.097v50.097h-50.097v-50.097Z" fill="#3f5c6c"/>
        <path id="sm" data-name="rect5473" d="m701.349,1052.027h50.097v50.097h-50.097v-50.097Z" fill="#3f5c6c"/>
        <path id="sn" data-name="rect5475" d="m751.446,1052.027h50.096v50.097h-50.096v-50.097Z" fill="#3f5c6c"/>
        <path id="so" data-name="rect5477" d="m551.06,1102.124h50.097v50.098h-50.097v-50.098Z" fill="#3f5c6c"/>
        <path id="sp" data-name="rect5479" d="m601.156,1102.124h50.097v50.098h-50.097v-50.098Z" fill="#3f5c6c"/>
        <path id="sq" data-name="rect5481" d="m801.542,1102.124h50.096v50.098h-50.096v-50.098Z" fill="#3f5c6c"/>
        <path id="sr" data-name="rect5483" d="m851.639,1102.124h50.097v50.098h-50.097v-50.098Z" fill="#3f5c6c"/>
        <path id="ss" data-name="rect5485" d="m551.06,1152.222h50.097v50.098h-50.097v-50.098Z" fill="#3f5c6c"/>
        <path id="st" data-name="rect5487" d="m601.156,1152.222h50.097v50.098h-50.097v-50.098Z" fill="#3f5c6c"/>
        <path id="su" data-name="rect5489" d="m701.349,1152.222h50.097v50.098h-50.097v-50.098Z" fill="#3f5c6c"/>
        <path id="sv" data-name="rect5491" d="m801.542,1152.222h50.096v50.098h-50.096v-50.098Z" fill="#3f5c6c"/>
        <path id="sw" data-name="rect5493" d="m851.639,1152.222h50.097v50.098h-50.097v-50.098Z" fill="#3f5c6c"/>
        <path id="sx" data-name="rect5495" d="m551.06,1202.319h50.097v50.097h-50.097v-50.097Z" fill="#3f5c6c"/>
        <path id="sy" data-name="rect5497" d="m601.155,1202.319h50.097v50.097h-50.097v-50.097Z" fill="#3f5c6c"/>
        <path id="sz" data-name="rect5499" d="m701.349,1202.319h50.097v50.097h-50.097v-50.097Z" fill="#3f5c6c"/>
        <path id="ta" data-name="rect5501" d="m801.542,1202.319h50.096v50.097h-50.096v-50.097Z" fill="#3f5c6c"/>
        <path id="tb" data-name="rect5503" d="m851.639,1202.319h50.097v50.097h-50.097v-50.097Z" fill="#3f5c6c"/>
        <path id="tc" data-name="rect5505" d="m1001.931,901.741h50.097v50.098h-50.097v-50.098Z" fill="#3f5c6c"/>
        <path id="td" data-name="rect5507" d="m1052.027,901.741h50.097v50.098h-50.097v-50.098Z" fill="#3f5c6c"/>
        <path id="te" data-name="rect5509" d="m1102.124,901.741h50.096v50.098h-50.096v-50.098Z" fill="#3f5c6c"/>
        <path id="tf" data-name="rect5511" d="m1152.221,901.741h50.097v50.098h-50.097v-50.098Z" fill="#3f5c6c"/>
        <path id="tg" data-name="rect5513" d="m1001.931,951.839h50.097v50.097h-50.097v-50.097Z" fill="#3f5c6c"/>
        <path id="th" data-name="rect5515" d="m1052.027,951.839h50.097v50.097h-50.097v-50.097Z" fill="#3f5c6c"/>
        <path id="ti" data-name="rect5517" d="m1102.124,951.839h50.096v50.097h-50.096v-50.097Z" fill="#3f5c6c"/>
        <path id="tj" data-name="rect5519" d="m1052.027,1001.936h50.097v50.098h-50.097v-50.098Z" fill="#3f5c6c"/>
        <path id="tk" data-name="rect5521" d="m1102.124,1001.936h50.096v50.098h-50.096v-50.098Z" fill="#3f5c6c"/>
        <path id="tl" data-name="rect5523" d="m1052.027,1052.027h50.097v50.097h-50.097v-50.097Z" fill="#3f5c6c"/>
        <path id="tm" data-name="rect5525" d="m1102.124,1052.027h50.096v50.097h-50.096v-50.097Z" fill="#3f5c6c"/>
        <path id="tn" data-name="rect5527" d="m1001.931,1102.124h50.096v50.098h-50.096v-50.098Z" fill="#3f5c6c"/>
        <path id="to" data-name="rect5529" d="m1001.931,1152.222h50.096v50.098h-50.096v-50.098Z" fill="#3f5c6c"/>
        <path id="tp" data-name="rect5531" d="m1102.124,1152.222h50.096v50.098h-50.096v-50.098Z" fill="#3f5c6c"/>
        <path id="tq" data-name="rect5533" d="m1001.931,1202.319h50.096v50.097h-50.096v-50.097Z" fill="#3f5c6c"/>
        <path id="tr" data-name="rect5535" d="m1102.124,1202.319h50.096v50.097h-50.096v-50.097Z" fill="#3f5c6c"/>
        <path id="ts" data-name="rect5537" d="m951.834,901.735h50.097v50.098h-50.097v-50.098Z" fill="#3f5c6c"/>
        <path id="tt" data-name="rect5539" d="m951.834,951.833h50.097v50.097h-50.097v-50.097Z" fill="#3f5c6c"/>
        <path id="tu" data-name="rect5541" d="m951.834,1102.118h50.097v50.098h-50.097v-50.098Z" fill="#3f5c6c"/>
        <path id="tv" data-name="rect5543" d="m951.834,1152.216h50.097v50.098h-50.097v-50.098Z" fill="#3f5c6c"/>
        <path id="tw" data-name="rect5545" d="m951.834,1202.314h50.097v50.097h-50.097v-50.097Z" fill="#3f5c6c"/>
        <path id="tx" data-name="rect5547" d="m1202.316,901.735h50.097v50.098h-50.097v-50.098Z" fill="#3f5c6c"/>
        <path id="ty" data-name="rect5549" d="m1202.316,951.833h50.097v50.097h-50.097v-50.097Z" fill="#3f5c6c"/>
        <path id="tz" data-name="rect5551" d="m1202.316,1001.93h50.097v50.098h-50.097v-50.098Z" fill="#3f5c6c"/>
        <path id="ua" data-name="rect5553" d="m1202.316,1052.022h50.097v50.097h-50.097v-50.097Z" fill="#3f5c6c"/>
        <path id="ub" data-name="rect5555" d="m1202.316,1102.118h50.097v50.098h-50.097v-50.098Z" fill="#3f5c6c"/>
        <path id="uc" data-name="rect5557" d="m1202.316,1152.216h50.097v50.098h-50.097v-50.098Z" fill="#3f5c6c"/>
        <path id="ud" data-name="rect5559" d="m1202.316,1202.314h50.097v50.097h-50.097v-50.097Z" fill="#3f5c6c"/>
        <path id="ue" data-name="rect5561" d="m1252.413,901.741h50.097v50.098h-50.097v-50.098Z" fill="#3f5c6c"/>
        <path id="uf" data-name="rect5563" d="m1252.413,951.839h50.097v50.097h-50.097v-50.097Z" fill="#3f5c6c"/>
        <path id="ug" data-name="rect5565" d="m1252.413,1001.936h50.097v50.098h-50.097v-50.098Z" fill="#3f5c6c"/>
        <path id="uh" data-name="rect5567" d="m1252.413,1052.027h50.097v50.097h-50.097v-50.097Z" fill="#3f5c6c"/>
        <path id="ui" data-name="rect5569" d="m1252.413,1102.124h50.097v50.098h-50.097v-50.098Z" fill="#3f5c6c"/>
        <path id="uj" data-name="rect5571" d="m1252.413,1152.222h50.097v50.098h-50.097v-50.098Z" fill="#3f5c6c"/>
        <path id="uk" data-name="rect5573" d="m1252.413,1202.319h50.097v50.097h-50.097v-50.097Z" fill="#3f5c6c"/>
        <path id="ul" data-name="rect5575" d="m801.54,1052.016h50.097v50.098h-50.097v-50.098Z" fill="#3f5c6c"/>
        <path id="um" data-name="rect5577" d="m851.636,1052.016h50.097v50.098h-50.097v-50.098Z" fill="#3f5c6c"/>
        <path id="un" data-name="rect5579" d="m1001.929,1052.016h50.096v50.098h-50.096v-50.098Z" fill="#3f5c6c"/>
        <path id="uo" data-name="rect5581" d="m951.832,1052.01h50.097v50.098h-50.097v-50.098Z" fill="#3f5c6c"/>
      </g>
      <g id="up" data-name="g5589">
        <path id="uq" data-name="rect5585" d="m901.735,651.241h50.096v50.098h-50.096v-50.098Z" fill="#263741"/>
        <path id="ur" data-name="rect5587" d="m901.735,701.339h50.096v50.097h-50.096v-50.097Z" fill="#263741"/>
      </g>
      <path id="us" data-name="rect5591" d="m901.735,751.436h50.096v50.098h-50.096v-50.098Z" fill="#edd867"/>
      <g id="ut" data-name="g5601">
        <path id="uu" data-name="rect5593" d="m701.347,1102.111h50.096v50.097h-50.096v-50.097Z" fill="#e85a33"/>
        <path id="uv" data-name="rect5595" d="m751.442,1102.111h50.097v50.097h-50.097v-50.097Z" fill="#e85a33"/>
        <path id="uw" data-name="rect5597" d="m1052.024,1102.111h50.097v50.097h-50.097v-50.097Z" fill="#e85a33"/>
        <path id="ux" data-name="rect5599" d="m1102.121,1102.111h50.097v50.097h-50.097v-50.097Z" fill="#e85a33"/>
      </g>
      <g id="uy" data-name="g5815">
        <path id="uz" data-name="rect5603" d="m150.29,500.967h50.096v50.098h-50.096v-50.098Z" fill="#f5efca"/>
        <path id="va" data-name="rect5605" d="m100.193,551.065h50.097v50.097h-50.097v-50.097Z" fill="#f5efca"/>
        <path id="vb" data-name="rect5607" d="m150.29,551.065h50.096v50.097h-50.096v-50.097Z" fill="#f5efca"/>
        <path id="vc" data-name="rect5609" d="m100.192,601.161h50.097v50.098h-50.097v-50.098Z" fill="#f5efca"/>
        <path id="vd" data-name="rect5611" d="m150.29,601.161h50.096v50.098h-50.096v-50.098Z" fill="#f5efca"/>
        <path id="ve" data-name="rect5613" d="m100.193,651.253h50.097v50.098h-50.097v-50.098Z" fill="#f5efca"/>
        <path id="vf" data-name="rect5615" d="m200.386,551.059h50.097v50.097h-50.097v-50.097Z" fill="#f5efca"/>
        <path id="vg" data-name="rect5617" d="m200.386,601.155h50.097v50.098h-50.097v-50.098Z" fill="#f5efca"/>
        <path id="vh" data-name="rect5619" d="m300.576,500.967h50.097v50.098h-50.097v-50.098Z" fill="#f5efca"/>
        <path id="vi" data-name="rect5621" d="m450.866,500.967h50.096v50.098h-50.096v-50.098Z" fill="#f5efca"/>
        <path id="vj" data-name="rect5623" d="m601.155,500.967h50.097v50.098h-50.097v-50.098Z" fill="#f5efca"/>
        <path id="vk" data-name="rect5625" d="m651.252,500.967h50.097v50.098h-50.097v-50.098Z" fill="#f5efca"/>
        <path id="vl" data-name="rect5627" d="m751.444,500.967h50.097v50.098h-50.097v-50.098Z" fill="#f5efca"/>
        <path id="vm" data-name="rect5629" d="m801.541,500.967h50.097v50.098h-50.097v-50.098Z" fill="#f5efca"/>
        <path id="vn" data-name="rect5631" d="m250.48,551.065h50.097v50.097h-50.097v-50.097Z" fill="#f5efca"/>
        <path id="vo" data-name="rect5633" d="m300.576,551.065h50.097v50.097h-50.097v-50.097Z" fill="#f5efca"/>
        <path id="vp" data-name="rect5635" d="m350.673,551.065h50.097v50.097h-50.097v-50.097Z" fill="#f5efca"/>
        <path id="vq" data-name="rect5637" d="m400.77,551.065h50.096v50.097h-50.096v-50.097Z" fill="#f5efca"/>
        <path id="vr" data-name="rect5639" d="m450.866,551.065h50.096v50.097h-50.096v-50.097Z" fill="#f5efca"/>
        <path id="vs" data-name="rect5641" d="m500.963,551.065h50.097v50.097h-50.097v-50.097Z" fill="#f5efca"/>
        <path id="vt" data-name="rect5643" d="m551.059,551.065h50.097v50.097h-50.097v-50.097Z" fill="#f5efca"/>
        <path id="vu" data-name="rect5645" d="m601.155,551.065h50.097v50.097h-50.097v-50.097Z" fill="#f5efca"/>
        <path id="vv" data-name="rect5647" d="m651.252,551.065h50.097v50.097h-50.097v-50.097Z" fill="#f5efca"/>
        <path id="vw" data-name="rect5649" d="m701.349,551.065h50.096v50.097h-50.096v-50.097Z" fill="#f5efca"/>
        <path id="vx" data-name="rect5651" d="m751.444,551.065h50.097v50.097h-50.097v-50.097Z" fill="#f5efca"/>
        <path id="vy" data-name="rect5653" d="m801.541,551.065h50.097v50.097h-50.097v-50.097Z" fill="#f5efca"/>
        <path id="vz" data-name="rect5655" d="m851.638,551.065h50.097v50.097h-50.097v-50.097Z" fill="#f5efca"/>
        <path id="wa" data-name="rect5657" d="m250.48,601.161h50.097v50.098h-50.097v-50.098Z" fill="#f5efca"/>
        <path id="wb" data-name="rect5659" d="m300.576,601.161h50.097v50.098h-50.097v-50.098Z" fill="#f5efca"/>
        <path id="wc" data-name="rect5661" d="m350.673,601.161h50.096v50.098h-50.096v-50.098Z" fill="#f5efca"/>
        <path id="wd" data-name="rect5663" d="m400.769,601.161h50.097v50.098h-50.097v-50.098Z" fill="#f5efca"/>
        <path id="we" data-name="rect5665" d="m450.866,601.161h50.096v50.098h-50.096v-50.098Z" fill="#f5efca"/>
        <path id="wf" data-name="rect5667" d="m500.963,601.161h50.097v50.098h-50.097v-50.098Z" fill="#f5efca"/>
        <path id="wg" data-name="rect5669" d="m551.059,601.161h50.097v50.098h-50.097v-50.098Z" fill="#f5efca"/>
        <path id="wh" data-name="rect5671" d="m601.155,601.161h50.096v50.098h-50.096v-50.098Z" fill="#f5efca"/>
        <path id="wi" data-name="rect5673" d="m651.251,601.161h50.097v50.098h-50.097v-50.098Z" fill="#f5efca"/>
        <path id="wj" data-name="rect5675" d="m701.348,601.161h50.097v50.098h-50.097v-50.098Z" fill="#f5efca"/>
        <path id="wk" data-name="rect5677" d="m751.444,601.161h50.097v50.098h-50.097v-50.098Z" fill="#f5efca"/>
        <path id="wl" data-name="rect5679" d="m801.541,601.161h50.097v50.098h-50.097v-50.098Z" fill="#f5efca"/>
        <path id="wm" data-name="rect5681" d="m851.638,601.161h50.097v50.098h-50.097v-50.098Z" fill="#f5efca"/>
        <path id="wn" data-name="rect5683" d="m551.06,651.241h50.097v50.098h-50.097v-50.098Z" fill="#f5efca"/>
        <path id="wo" data-name="rect5685" d="m450.866,651.253h50.097v50.098h-50.097v-50.098Z" fill="#f5efca"/>
        <path id="wp" data-name="rect5687" d="m500.963,651.253h50.097v50.098h-50.097v-50.098Z" fill="#f5efca"/>
        <path id="wq" data-name="rect5689" d="m951.833,500.967h50.097v50.098h-50.097v-50.098Z" fill="#f5efca"/>
        <path id="wr" data-name="rect5691" d="m1102.123,500.967h50.097v50.098h-50.097v-50.098Z" fill="#f5efca"/>
        <path id="ws" data-name="rect5693" d="m951.833,551.065h50.097v50.097h-50.097v-50.097Z" fill="#f5efca"/>
        <path id="wt" data-name="rect5695" d="m1001.93,551.065h50.097v50.097h-50.097v-50.097Z" fill="#f5efca"/>
        <path id="wu" data-name="rect5697" d="m1052.026,551.065h50.097v50.097h-50.097v-50.097Z" fill="#f5efca"/>
        <path id="wv" data-name="rect5699" d="m1102.123,551.065h50.097v50.097h-50.097v-50.097Z" fill="#f5efca"/>
        <path id="ww" data-name="rect5701" d="m951.833,601.161h50.097v50.098h-50.097v-50.098Z" fill="#f5efca"/>
        <path id="wx" data-name="rect5703" d="m1001.93,601.161h50.097v50.098h-50.097v-50.098Z" fill="#f5efca"/>
        <path id="wy" data-name="rect5705" d="m1052.026,601.161h50.096v50.098h-50.096v-50.098Z" fill="#f5efca"/>
        <path id="wz" data-name="rect5707" d="m1102.123,601.161h50.097v50.098h-50.097v-50.098Z" fill="#f5efca"/>
        <path id="xa" data-name="rect5709" d="m901.737,551.059h50.096v50.097h-50.096v-50.097Z" fill="#f5efca"/>
        <path id="xb" data-name="rect5711" d="m901.736,601.155h50.097v50.098h-50.097v-50.098Z" fill="#f5efca"/>
        <path id="xc" data-name="rect5713" d="m1152.22,551.059h50.096v50.097h-50.096v-50.097Z" fill="#f5efca"/>
        <path id="xd" data-name="rect5715" d="m1152.22,601.155h50.096v50.098h-50.096v-50.098Z" fill="#f5efca"/>
        <path id="xe" data-name="rect5717" d="m1202.316,551.065h50.097v50.097h-50.097v-50.097Z" fill="#f5efca"/>
        <path id="xf" data-name="rect5719" d="m1202.316,601.161h50.097v50.098h-50.097v-50.098Z" fill="#f5efca"/>
        <path id="xg" data-name="rect5721" d="m1302.512,551.065h50.097v50.097h-50.097v-50.097Z" fill="#f5efca"/>
        <path id="xh" data-name="rect5723" d="m1302.512,601.161h50.097v50.098h-50.097v-50.098Z" fill="#f5efca"/>
        <path id="xi" data-name="rect5725" d="m1302.513,651.253h50.096v50.098h-50.096v-50.098Z" fill="#f5efca"/>
        <path id="xj" data-name="rect5727" d="m1302.512,701.351h50.097v50.097h-50.097v-50.097Z" fill="#f5efca"/>
        <path id="xk" data-name="rect5729" d="m1302.512,751.447h50.097v50.098h-50.097v-50.098Z" fill="#f5efca"/>
        <path id="xl" data-name="rect5731" d="m1302.512,801.545h50.097v50.097h-50.097v-50.097Z" fill="#f5efca"/>
        <path id="xm" data-name="rect5733" d="m1302.512,851.636h50.097v50.098h-50.097v-50.098Z" fill="#f5efca"/>
        <path id="xn" data-name="rect5735" d="m1252.415,500.961h50.097v50.098h-50.097v-50.098Z" fill="#f5efca"/>
        <path id="xo" data-name="rect5737" d="m1252.415,551.059h50.097v50.097h-50.097v-50.097Z" fill="#f5efca"/>
        <path id="xp" data-name="rect5739" d="m1252.415,601.155h50.097v50.098h-50.097v-50.098Z" fill="#f5efca"/>
        <path id="xq" data-name="rect5741" d="m1252.415,651.247h50.097v50.098h-50.097v-50.098Z" fill="#f5efca"/>
        <path id="xr" data-name="rect5743" d="m1302.513,901.745h50.096v50.098h-50.096v-50.098Z" fill="#f5efca"/>
        <path id="xs" data-name="rect5745" d="m1302.513,951.843h50.096v50.097h-50.096v-50.097Z" fill="#f5efca"/>
        <path id="xt" data-name="rect5747" d="m1302.513,1001.94h50.096v50.098h-50.096v-50.098Z" fill="#f5efca"/>
        <path id="xu" data-name="rect5749" d="m1302.513,1052.031h50.096v50.097h-50.096v-50.097Z" fill="#f5efca"/>
        <path id="xv" data-name="rect5751" d="m1302.513,1102.128h50.096v50.098h-50.096v-50.098Z" fill="#f5efca"/>
        <path id="xw" data-name="rect5753" d="m1302.513,1152.226h50.096v50.098h-50.096v-50.098Z" fill="#f5efca"/>
        <path id="xx" data-name="rect5755" d="m1302.512,1202.323h50.097v50.097h-50.097v-50.097Z" fill="#f5efca"/>
        <path id="xy" data-name="rect5757" d="m1302.513,1252.42h50.096v50.098h-50.096v-50.098Z" fill="#f5efca"/>
        <path id="xz" data-name="rect5759" d="m1302.512,1302.518h50.097v50.097h-50.097v-50.097Z" fill="#f5efca"/>
        <path id="ya" data-name="rect5761" d="m500.963,701.345h50.097v50.097h-50.097v-50.097Z" fill="#f5efca"/>
        <path id="yb" data-name="rect5763" d="m500.963,751.441h50.097v50.098h-50.097v-50.098Z" fill="#f5efca"/>
        <path id="yc" data-name="rect5765" d="m500.963,801.539h50.097v50.097h-50.097v-50.097Z" fill="#f5efca"/>
        <path id="yd" data-name="rect5767" d="m500.963,851.631h50.097v50.097h-50.097v-50.097Z" fill="#f5efca"/>
        <path id="ye" data-name="rect5769" d="m500.964,901.739h50.096v50.098h-50.096v-50.098Z" fill="#f5efca"/>
        <path id="yf" data-name="rect5771" d="m500.964,951.837h50.096v50.097h-50.096v-50.097Z" fill="#f5efca"/>
        <path id="yg" data-name="rect5773" d="m500.964,1001.934h50.096v50.098h-50.096v-50.098Z" fill="#f5efca"/>
        <path id="yh" data-name="rect5775" d="m500.964,1052.025h50.096v50.097h-50.096v-50.097Z" fill="#f5efca"/>
        <path id="yi" data-name="rect5777" d="m500.964,1102.122h50.096v50.098h-50.096v-50.098Z" fill="#f5efca"/>
        <path id="yj" data-name="rect5779" d="m500.964,1152.22h50.096v50.098h-50.096v-50.098Z" fill="#f5efca"/>
        <path id="yk" data-name="rect5781" d="m500.963,1202.317h50.097v50.097h-50.097v-50.097Z" fill="#f5efca"/>
        <path id="yl" data-name="rect5783" d="m500.964,1252.414h50.096v50.098h-50.096v-50.098Z" fill="#f5efca"/>
        <path id="ym" data-name="rect5785" d="m500.963,1302.512h50.097v50.097h-50.097v-50.097Z" fill="#f5efca"/>
        <path id="yn" data-name="rect5787" d="m150.288,651.241h50.096v50.098h-50.096v-50.098Z" fill="#f5efca"/>
        <path id="yo" data-name="rect5789" d="m100.19,701.327h50.097v50.098h-50.097v-50.098Z" fill="#f5efca"/>
        <path id="yp" data-name="rect5791" d="m100.19,751.425h50.097v50.097h-50.097v-50.097Z" fill="#f5efca"/>
        <path id="yq" data-name="rect5793" d="m100.19,801.522h50.097v50.098h-50.097v-50.098Z" fill="#f5efca"/>
        <path id="yr" data-name="rect5795" d="m100.19,851.613h50.097v50.097h-50.097v-50.097Z" fill="#f5efca"/>
        <path id="ys" data-name="rect5797" d="m100.191,901.722h50.097v50.098h-50.097v-50.098Z" fill="#f5efca"/>
        <path id="yt" data-name="rect5799" d="m100.191,951.819h50.097v50.097h-50.097v-50.097Z" fill="#f5efca"/>
        <path id="yu" data-name="rect5801" d="m100.19,1001.916h50.098v50.098h-50.098v-50.098Z" fill="#f5efca"/>
        <path id="yv" data-name="rect5803" d="m100.191,1052.008h50.097v50.098h-50.097v-50.098Z" fill="#f5efca"/>
        <path id="yw" data-name="rect5805" d="m100.19,1102.106h50.098v50.097h-50.098v-50.097Z" fill="#f5efca"/>
        <path id="yx" data-name="rect5807" d="m100.19,1152.202h50.098v50.098h-50.098v-50.098Z" fill="#f5efca"/>
        <path id="yy" data-name="rect5809" d="m100.19,1202.3h50.097v50.098h-50.097v-50.098Z" fill="#f5efca"/>
        <path id="yz" data-name="rect5811" d="m100.19,1252.398h50.098v50.097h-50.098v-50.097Z" fill="#f5efca"/>
        <path id="za" data-name="rect5813" d="m100.19,1302.494h50.097v50.098h-50.097v-50.098Z" fill="#f5efca"/>
      </g>
    </g>
  </g>
</svg>