<?xml version="1.0" encoding="utf-8"?>
<!-- Generator: Adobe Illustrator 27.1.1, SVG Export Plug-In . SVG Version: 6.00 Build 0)  -->
<svg version="1.1" id="Layer_1" xmlns="http://www.w3.org/2000/svg" xmlns:xlink="http://www.w3.org/1999/xlink" x="0px" y="0px"
	 viewBox="0 0 512 512" style="enable-background:new 0 0 512 512;" xml:space="preserve">
<style type="text/css">
	.st0{fill:#27235E;}
	.st1{fill:#FFFFFF;}
	.st2{fill:#EEF2F4;}
	.st3{fill:#EC1D3B;}
</style>
<polygon class="st0" points="478.6,55.7 478.6,55.7 478.6,22.3 33.4,22.3 33.4,55.7 33.4,55.7 0,55.7 0,456.3 33.4,456.3 
	33.4,489.7 478.6,489.7 478.6,456.3 512,456.3 512,55.7 "/>
<polygon class="st1" points="512,155.8 0,155.8 0,456.3 33.4,456.3 33.4,489.7 478.6,489.7 478.6,456.3 512,456.3 "/>
<polygon points="478.6,55.7 478.6,155.8 33.4,155.8 33.4,55.7 0,55.7 0,456.3 33.4,456.3 33.4,189.2 478.6,189.2 478.6,456.3 
	512,456.3 512,55.7 "/>
<rect x="33.4" y="22.3" width="445.2" height="33.4"/>
<rect x="33.4" y="456.3" width="445.2" height="33.4"/>
<rect x="411.8" y="89" class="st2" width="33.4" height="33.4"/>
<rect x="345" y="89" class="st2" width="33.4" height="33.4"/>
<rect x="77.9" y="233.7" class="st3" width="356.2" height="33.4"/>
<rect x="77.9" y="311.7" class="st3" width="178.1" height="33.4"/>
</svg>
