<?xml version="1.0" encoding="UTF-8"?>
<svg id="b" data-name="Layer 2" xmlns="http://www.w3.org/2000/svg" width="867.923" height="864.001" viewBox="0 0 867.923 864.001">
  <g id="c" data-name="LOSANGO SOCIAL NETWORK ICONS 02">
    <g>
      <path d="m39.999,540c0-71.221-.003-142.441.048-213.662,0-.504.734-1.007,1.155-1.55,3.758-1.516,7.726-.584,11.61-.757,3.321-.149,6.655-.031,9.983-.031h11.205c1.02-1.02,1.9-1.489,1.902-1.961.068-22.625.059-45.251.059-67.852,1.039-.747,2.031-2.078,3.043-2.093,10.559-.153,21.122-.094,31.052-.094,1.059-1.156,1.887-1.637,1.888-2.121.064-22.629.055-45.259.055-67.886,1.065-.668,2.113-1.888,3.18-1.906,9.316-.151,18.636-.059,27.954-.123,1.223-.008,2.443-.494,3.664-.76.4-.502,1.148-.999,1.151-1.501.067-10.626.051-21.252.051-31.602.977-1.549,2.056-2.111,3.411-2.109,9.319.014,18.638-.034,27.955.05,1.467.013,2.663-.043,3.596-1.005.346-.522.991-1.043.994-1.567.059-10.604.044-21.208.044-31.234,1.119-1.904,2.221-2.268,3.644-2.266,21.3.041,42.599.007,63.899.075,1.482.005,2.663-.047,3.544-1.133.305-.539.872-1.078.875-1.619.052-10.588.039-21.176.039-31.296.933-.933,1.329-1.565,1.896-1.828.55-.255,1.275-.166,1.924-.166,21.965-.006,43.931.003,65.896-.056.5-.001.997-.756,1.532-1.189,1.448-3.773.558-7.738.724-11.626.142-3.322-.054-6.658.051-9.982.123-3.915-.536-7.871.542-11.716.494-.494.964-1.376,1.435-1.377,69.224-.061,138.448-.058,207.806-.058,1.352,1.288,2.716,2.716,4.239,3.95.402.326,1.291.049,1.957.049,6.695,5.67,4.23,15.128,9.713,22.709,17.613,9.772,40.283-3.74,58.287,9.291,0,11.001-.005,22.003.005,33.004.001,1.627,1.224,2.52,3.995,2.996,10.667-7.313,21.333-8.172,32,0,12.653,0,25.306,0,37.96,0,.681,1.042,1.933,2.075,1.951,3.128.154,9.321.061,18.645.123,27.968.008,1.227.477,2.452.735,3.677.499.409.992,1.173,1.491,1.176,10.633.069,21.266.052,31.648.052,1.521.965,2.099,2.043,2.097,3.392-.011,9.323.036,18.647-.049,27.969-.013,1.467.043,2.664,1.003,3.598.522.347,1.043.993,1.567.996,10.608.059,21.216.044,31.226.044,1.927,1.128,2.279,2.231,2.276,3.659-.043,21.31-.007,42.62-.078,63.93-.005,1.488.048,2.664,1.254,3.597,3.686,1.588,7.661.596,11.539.781,3.322.158,6.66-.039,9.987.052,3.927.106,7.885-.465,11.758.471.489.489,1.13.885,1.383,1.453.248.556.124,1.289.124,1.944.004,21.976-.005,43.952.057,65.928.001.49.801.978,1.255,1.499,3.801,1.319,7.764.51,11.663.661,3.325.129,6.662-.068,9.987.051,3.906.14,7.866-.613,11.685.616.47.51,1.301.992,1.301,1.475.061,35.295.055,70.589.055,105.884s0,70.589,0,105.885c-1.017.706-2.025,2.006-3.054,2.022-9.987.154-19.977.08-29.966.123-.568.002-1.134.449-1.7.688-.427.489-1.226.977-1.228,1.467-.062,22.631-.053,45.262-.053,67.849-1.144.686-2.203,1.863-3.28,1.88-9.321.146-18.645.053-27.968.123-1.213.009-2.422.544-3.627.834-.378.518-1.077,1.028-1.078,1.54-.054,22.609-.047,45.218-.047,67.625-3.558,3.564-7.736,1.557-11.504,1.885-3.966.345-7.992-.074-11.978.12-3.858.188-7.851-.96-11.526.943-.352.588-.949,1.12-.952,1.655-.055,10.598-.041,21.195-.041,31.474-3.866,3.292-7.977,1.531-11.769,1.819-3.973.302-7.997-.112-11.979.119-3.834.223-7.859-1.136-11.489,1.134-1.442,3.854-.573,7.82-.735,11.712-.138,3.324-.029,6.658-.029,9.988v10.884c-1.147,1.253-1.592,2.166-2.042,2.169-12.652.077-25.305.062-37.958.062-6.117,7.055-16.156,3.234-23.024,8.271-5.474,6.317-2.657,14.973-6.139,21.864-1.493,2.883-4.43,4.063-6.837,5.865-21.642,0-43.284-.002-64.926.005-1.719,0-2.627,1.214-3.074,3.995,6.99,9.333,6.988,18.667,0,28-.665,0-1.554-.276-1.955.049-1.521,1.233-2.884,2.661-4.238,3.951h-208.636c-1.823-5.072-.988-9.031-1.144-12.921-.133-3.319.059-6.651-.05-9.972-.128-3.908.558-7.861-.511-11.514-.589-.627-.991-1.447-1.506-1.527-1.299-.2-2.649-.066-3.979-.066-33.247,0-66.494.005-99.741-.052-.494,0-.987-.776-1.481-1.19-.253-.56-.723-1.119-.726-1.681-.047-8.644.002-17.289-.06-25.932-.014-1.914-.144-3.886-.636-5.72-.402-1.499-1.813-1.895-3.337-1.426-6.187,6.802-16.342,3.518-22.828,8.75-5.932,6.884-1.915,17.272-9.172,23.25-.654,0-1.586-.278-1.913.048-1.371,1.371-2.56,2.924-3.428,3.952-21.766,0-42.685-.002-63.604.005-1.696,0-2.601,1.217-3.055,3.995,6.923,9.147,6.922,18.645,1.463,28.412-21.512,16.533-45.486,8.457-68.747,6.481-3.823-.324-7.356-4.215-7.909-8.267-3.118-22.857-5.822-45.774,1.659-65.418,9.416-8.79,19.727-4.272,28.416-11.329,10.522-18.731-4.111-43.729,8.57-61.876,8.58-6.389,17.338-5.061,24.773-8.904,5.096-4.371,5.315-9.89,2.698-16.252-6.817-7.283-18.074-3.189-28.885-12.211-10.693-29.438,2.435-64.93-6.154-96.198-9.675-7.349-20.907-2.771-27.883-10.438Z" fill="#f0f8e9"/>
      <path d="m615.999,788c0-9.817-.015-19.634.043-29.451.003-.518.624-1.033.957-1.549.516-.333,1.031-.954,1.549-.957,9.817-.058,19.634-.043,29.451-.043,0,.653-.278,1.583.048,1.911,1.367,1.372,2.916,2.564,3.952,3.443v29.131c-1.636.92-2.165,1.475-2.696,1.477-11.101.05-22.203.038-33.304.038-1.016-.889-1.354-1.778-1.016-2.667.338-.889.676-1.333,1.016-1.333Z" fill="#689d37"/>
      <path d="m539.999,0c0,9.956,0,19.912,0,29.87-1.007.711-2.013,2.037-3.024,2.041-32.523.109-65.047.089-97.571.089h-109.442c-2.58-4.718-2.684-7.59-1.155-30.809.499-.397.998-1.14,1.498-1.142C353.537-.007,376.768,0,399.999,0h140Z" fill="#689d37"/>
      <path d="m611.999,72c-21.742,0-43.484.006-65.227-.036-.542-.001-1.083-.532-1.624-.815-.383-.5-1.097-.998-1.1-1.501-.066-9.882-.049-19.765-.049-29.648v-4c23.012,0,46.024-.005,69.036.03.559,0,1.118.446,1.677.683.429.48,1.228.957,1.232,1.44.074,9.204.055,18.409.055,28.578-.981.808-2.556,1.985-3.951,3.346-.329.321-.049,1.265-.049,1.922Z" fill="#699d38"/>
      <path d="m647.999,108h-32c0-11.261-.016-22.523.053-33.784.003-.492.782-.979,1.199-1.469.559-.249,1.117-.713,1.678-.716,8.611-.046,17.223-.05,25.835-.018,1.92.007,3.84.188,5.525.276.692.692,1.565,1.157,1.569,1.629.08,9.262.06,18.525.06,27.989-1.214,1.271-2.639,2.629-3.87,4.144-.324.399-.049,1.285-.049,1.948Z" fill="#6a9e3a"/>
      <path d="m720.28,143.998h-32c0-11.261-.016-22.523.053-33.784.003-.492.782-.979,1.199-1.469.559-.249,1.117-.713,1.678-.716,8.611-.046,17.223-.05,25.835-.018,1.92.007,3.84.188,5.525.276.692.692,1.565,1.157,1.569,1.629.08,9.262.06,18.525.06,27.989-1.214,1.271-2.639,2.629-3.87,4.144-.324.399-.049,1.285-.049,1.948Z" fill="#6a9e3a"/>
      <path d="m685.124,108h-32c0-11.261-.016-22.523.053-33.784.003-.492.782-.979,1.199-1.469.559-.249,1.117-.713,1.678-.716,8.611-.046,17.223-.05,25.835-.018,1.92.007,3.84.188,5.525.276.692.692,1.565,1.157,1.569,1.629.08,9.262.06,18.525.06,27.989-1.214,1.271-2.639,2.629-3.87,4.144-.324.399-.049,1.285-.049,1.948Z" fill="#6a9e3a"/>
      <path d="m756.203,180.005h-32c0-11.261-.016-22.523.053-33.784.003-.492.782-.979,1.199-1.469.559-.249,1.117-.713,1.678-.716,8.611-.046,17.223-.05,25.835-.018,1.92.007,3.84.188,5.525.276.692.692,1.565,1.157,1.569,1.629.08,9.262.06,18.525.06,27.989-1.214,1.271-2.639,2.629-3.87,4.144-.324.399-.049,1.285-.049,1.948Z" fill="#6a9e3a"/>
      <path d="m792.126,216.011h-32c0-11.261-.016-22.523.053-33.784.003-.492.782-.979,1.199-1.469.559-.249,1.117-.713,1.678-.716,8.611-.046,17.223-.05,25.835-.018,1.92.007,3.84.188,5.525.276.692.692,1.565,1.157,1.569,1.629.08,9.262.06,18.525.06,27.989-1.214,1.271-2.639,2.629-3.87,4.144-.324.399-.049,1.285-.049,1.948Z" fill="#6a9e3a"/>
      <path d="m792.126,252.018h-32c0-11.261-.016-22.523.053-33.784.003-.492.782-.979,1.199-1.469.559-.249,1.117-.713,1.678-.716,8.611-.046,17.223-.05,25.835-.018,1.92.007,3.84.188,5.525.276.692.692,1.565,1.157,1.569,1.629.08,9.262.06,18.525.06,27.989-1.214,1.271-2.639,2.629-3.87,4.144-.324.399-.049,1.285-.049,1.948Z" fill="#6a9e3a"/>
      <path d="m828.049,288.025h-32c0-11.261-.016-22.523.053-33.784.003-.492.782-.979,1.199-1.469.559-.249,1.117-.713,1.678-.716,8.611-.046,17.223-.05,25.835-.018,1.92.007,3.84.188,5.525.276.692.692,1.565,1.157,1.569,1.629.08,9.262.06,18.525.06,27.989-1.214,1.271-2.639,2.629-3.87,4.144-.324.399-.049,1.285-.049,1.948Z" fill="#6a9e3a"/>
      <path d="m828.049,324.306h-32c0-11.261-.016-22.523.053-33.784.003-.492.782-.979,1.199-1.469.559-.249,1.117-.713,1.678-.716,8.611-.046,17.223-.05,25.835-.018,1.92.007,3.84.188,5.525.276.692.692,1.565,1.157,1.569,1.629.08,9.262.06,18.525.06,27.989-1.214,1.271-2.639,2.629-3.87,4.144-.324.399-.049,1.285-.049,1.948Z" fill="#6a9e3a"/>
      <path d="m684.001,792.048h-32c0-11.261-.016-22.523.053-33.784.003-.492.782-.979,1.199-1.469.559-.249,1.117-.713,1.678-.716,8.611-.046,17.223-.05,25.835-.018,1.92.007,3.84.188,5.525.276.692.692,1.565,1.157,1.569,1.629.08,9.262.06,18.525.06,27.989-1.214,1.271-2.639,2.629-3.87,4.144-.324.399-.049,1.285-.049,1.948Z" fill="#6a9e3a"/>
      <path d="m719.924,756.041h-32c0-11.261-.016-22.523.053-33.784.003-.492.782-.979,1.199-1.469.559-.249,1.117-.713,1.678-.716,8.611-.046,17.223-.05,25.835-.018,1.92.007,3.84.188,5.525.276.692.692,1.565,1.157,1.569,1.629.08,9.262.06,18.525.06,27.989-1.214,1.271-2.639,2.629-3.87,4.144-.324.399-.049,1.285-.049,1.948Z" fill="#6a9e3a"/>
      <path d="m756.203,720.01h-32c0-11.261-.016-22.523.053-33.784.003-.492.782-.979,1.199-1.469.559-.249,1.117-.713,1.678-.716,8.611-.046,17.223-.05,25.835-.018,1.92.007,3.84.188,5.525.276.692.692,1.565,1.157,1.569,1.629.08,9.262.06,18.525.06,27.989-1.214,1.271-2.639,2.629-3.87,4.144-.324.399-.049,1.285-.049,1.948Z" fill="#6a9e3a"/>
      <path d="m788.878,684.005h-24.962c-2.093,0-3.79-1.697-3.791-3.79-.002-9.998-.008-19.996.053-29.993.003-.492.782-.979,1.199-1.469.559-.249,1.117-.713,1.678-.716,8.611-.046,17.223-.05,25.835-.018,1.458.005,2.916.111,4.271.2.788.052,1.541.348,2.15.85.379.313.671.583.673.855.076,8.758.062,17.517.06,26.445,0,.992-.386,1.945-1.08,2.653-.931.948-1.91,1.951-2.79,3.035-.003.004-.006.008-.01.012-.83,1.085-1.921,1.935-3.287,1.935Z" fill="#6a9e3a"/>
      <path d="m788.878,648.003h-24.962c-2.093,0-3.79-1.697-3.791-3.79-.002-9.998-.008-19.996.053-29.993.003-.492.782-.979,1.199-1.469.559-.249,1.117-.713,1.678-.716,8.611-.046,17.223-.05,25.835-.018,1.458.005,2.916.111,4.271.2.788.052,1.541.348,2.15.85.379.313.671.583.673.855.076,8.758.062,17.517.06,26.445,0,.992-.386,1.945-1.08,2.653-.931.948-1.91,1.951-2.79,3.035-.003.004-.006.008-.01.012-.83,1.085-1.921,1.935-3.287,1.935Z" fill="#6a9e3a"/>
      <path d="m824.801,612.012h-24.962c-2.093,0-3.79-1.697-3.791-3.79-.002-9.998-.008-19.996.053-29.993.003-.492.782-.979,1.199-1.469.559-.249,1.117-.713,1.678-.716,8.611-.046,17.223-.05,25.835-.018,1.458.005,2.916.111,4.271.2.788.052,1.541.348,2.15.85.379.313.671.583.673.855.076,8.758.062,17.517.06,26.445,0,.992-.386,1.945-1.08,2.653-.931.948-1.91,1.951-2.79,3.035-.003.004-.006.008-.01.012-.83,1.085-1.921,1.935-3.287,1.935Z" fill="#6a9e3a"/>
      <path d="m824.801,576.012h-24.962c-2.093,0-3.79-1.697-3.791-3.79-.002-9.998-.008-19.996.053-29.993.003-.492.782-.979,1.199-1.469.559-.249,1.117-.713,1.678-.716,8.611-.046,17.223-.05,25.835-.018,1.458.005,2.916.111,4.271.2.788.052,1.541.348,2.15.85.379.313.671.583.673.855.076,8.758.062,17.517.06,26.445,0,.992-.386,1.945-1.08,2.653-.931.948-1.91,1.951-2.79,3.035-.003.004-.006.008-.01.012-.83,1.085-1.921,1.935-3.287,1.935Z" fill="#6a9e3a"/>
      <path d="m860.754,540.012h-24.962c-2.093,0-3.79-1.697-3.791-3.79-.002-9.998-.008-19.996.053-29.993.003-.492.782-.979,1.199-1.469.559-.249,1.117-.713,1.678-.716,8.611-.046,17.223-.05,25.835-.018,1.458.005,2.916.111,4.271.2.788.052,1.541.348,2.15.85.379.313.671.583.673.855.076,8.758.062,17.517.06,26.445,0,.992-.386,1.945-1.08,2.653-.931.948-1.91,1.951-2.79,3.035-.003.004-.006.008-.01.012-.83,1.085-1.921,1.935-3.287,1.935Z" fill="#6a9e3a"/>
      <path d="m860.754,504.012h-24.962c-2.093,0-3.79-1.697-3.791-3.79-.002-9.998-.008-19.996.053-29.993.003-.492.782-.979,1.199-1.469.559-.249,1.117-.713,1.678-.716,8.611-.046,17.223-.05,25.835-.018,1.458.005,2.916.111,4.271.2.788.052,1.541.348,2.15.85.379.313.671.583.673.855.076,8.758.062,17.517.06,26.445,0,.992-.386,1.945-1.08,2.653-.931.948-1.91,1.951-2.79,3.035-.003.004-.006.008-.01.012-.83,1.085-1.921,1.935-3.287,1.935Z" fill="#6a9e3a"/>
      <path d="m860.754,468.012h-24.962c-2.093,0-3.79-1.697-3.791-3.79-.002-9.998-.008-19.996.053-29.993.003-.492.782-.979,1.199-1.469.559-.249,1.117-.713,1.678-.716,8.611-.046,17.223-.05,25.835-.018,1.458.005,2.916.111,4.271.2.788.052,1.541.348,2.15.85.379.313.671.583.673.855.076,8.758.062,17.517.06,26.445,0,.992-.386,1.945-1.08,2.653-.931.948-1.91,1.951-2.79,3.035-.003.004-.006.008-.01.012-.83,1.085-1.921,1.935-3.287,1.935Z" fill="#6a9e3a"/>
      <path d="m860.754,432.012h-24.962c-2.093,0-3.79-1.697-3.791-3.79-.002-9.998-.008-19.996.053-29.993.003-.492.782-.979,1.199-1.469.559-.249,1.117-.713,1.678-.716,8.611-.046,17.223-.05,25.835-.018,1.458.005,2.916.111,4.271.2.788.052,1.541.348,2.15.85.379.313.671.583.673.855.076,8.758.062,17.517.06,26.445,0,.992-.386,1.945-1.08,2.653-.931.948-1.91,1.951-2.79,3.035-.003.004-.006.008-.01.012-.83,1.085-1.921,1.935-3.287,1.935Z" fill="#6a9e3a"/>
      <path d="m860.754,396.012h-24.962c-2.093,0-3.79-1.697-3.791-3.79-.002-9.998-.008-19.996.053-29.993.003-.492.782-.979,1.199-1.469.559-.249,1.117-.713,1.678-.716,8.611-.046,17.223-.05,25.835-.018,1.458.005,2.916.111,4.271.2.788.052,1.541.348,2.15.85.379.313.671.583.673.855.076,8.758.062,17.517.06,26.445,0,.992-.386,1.945-1.08,2.653-.931.948-1.91,1.951-2.79,3.035-.003.004-.006.008-.01.012-.83,1.085-1.921,1.935-3.287,1.935Z" fill="#6a9e3a"/>
      <path d="m860.754,360.012h-24.962c-2.093,0-3.79-1.697-3.791-3.79-.002-9.998-.008-19.996.053-29.993.003-.492.782-.979,1.199-1.469.559-.249,1.117-.713,1.678-.716,8.611-.046,17.223-.05,25.835-.018,1.458.005,2.916.111,4.271.2.788.052,1.541.348,2.15.85.379.313.671.583.673.855.076,8.758.062,17.517.06,26.445,0,.992-.386,1.945-1.08,2.653-.931.948-1.91,1.951-2.79,3.035-.003.004-.006.008-.01.012-.83,1.085-1.921,1.935-3.287,1.935Z" fill="#6a9e3a"/>
      <path d="m3.999,428c0-33.967,0-67.933,0-101.901,1.022-.7,2.034-1.987,3.07-2.006,8.655-.163,17.315-.106,25.973-.061.566.003,1.129.459,1.694.704.421.491,1.212.983,1.212,1.474.055,71.263.052,142.527.052,213.79-9.919,0-19.837.018-29.756-.052-.494-.003-.983-.768-1.475-1.178-.257-.555-.737-1.11-.738-1.665-.035-36.368-.032-72.737-.032-109.105Z" fill="#689d38"/>
      <path d="m399.999,864c-23.244,0-46.488.008-69.731-.051-.497-.001-.992-.762-1.488-1.168-.26-.556-.744-1.111-.748-1.669-.051-7.305-.056-14.61-.019-21.915.01-1.921.201-3.841.318-5.924,5.098-2.78,10.448-.829,15.564-1.19,5.287-.372,10.62-.083,15.933-.083h147.432c5.313,0,10.632-.165,15.937.047,5.202.207,10.476-.872,15.442.551.564.706,1.305,1.202,1.31,1.705.073,7.948.051,15.897.051,23.614-.954,1.493-2.027,2.087-3.366,2.087-42.503-.004-85.006-.014-127.509.022-2.574.002-5.192.154-7.706.653-1.493.297-1.887,1.799-1.42,3.321Z" fill="#679c36"/>
      <path d="m322.844,796c.723,1.928,1.124,2.503,1.127,3.079.04,8.644.041,17.289-.003,25.933-.003.568-.444,1.133-.682,1.7-.487.429-.974,1.233-1.462,1.234-33.248.059-66.496.054-99.745.054-.694-1.026-1.972-2.043-1.989-3.082-.157-9.214-.091-18.433-.091-27.004,1.2-1.057,1.686-1.861,2.174-1.862,33.248-.059,66.496-.053,100.671-.053Z" fill="#689d37"/>
      <path d="m71.999,648c-9.914,0-19.828.018-29.741-.052-.495-.003-.985-.761-1.478-1.167-.26-.553-.748-1.106-.748-1.659-.036-33.707-.032-67.414-.032-101.121,10.348-3.583,20.777-1.9,33.798-.884-.734,35.222,2.408,70.025-1.798,104.884Z" fill="#699d38"/>
      <path d="m71.999,648c0-33.707.004-67.414-.032-101.121,0-.553-.488-1.106-.748-1.659-.493-.406-.983-1.164-1.478-1.167-9.913-.069-19.827-.052-29.741-.052-3.191-.524-3.476-.81-4-4h4c11.294,0,22.589,0,33.884,0,.706,1.013,2.023,2.025,2.027,3.042.11,29.896.089,59.793.089,89.69v13.413c3.943,3.208,8.028,1.515,11.817,1.792,3.965.29,7.968.065,11.954.065h10.883c.828,1.78,1.309,2.336,1.312,2.895.047,9.301.054,18.602.009,27.903-.006,1.253-.343,2.505-.529,3.757-.471.469-.938,1.346-1.411,1.349-10.624.078-21.249.06-31.852.06-.744,1.034-2.085,2.029-2.092,3.033-.124,19.266-.071,38.533-.112,57.8-.007,3.249.383,6.535-.353,9.671-3.659,2.828-7.728,1.205-11.524,1.47-3.967.277-7.979-.125-11.951.116-3.819.232-7.844-1.184-11.429,1.172-.921,16.776-1.007,47.053-.2,69.297.47.47.938,1.349,1.409,1.351,21.25.068,42.501.059,63.949.059,1.284-1.224,2.645-2.651,4.165-3.884.401-.325,1.289-.049,1.953-.049,1.024.889,1.364,1.778,1.024,2.667-.34.889-.681,1.333-1.024,1.333v4c-24,9.704-48,9.706-72,0-3.19-.524-3.476-.81-4-4-9.705-24-9.705-48,0-72v-4c7.107-7.171,17.843-4.023,26.67-9.494,9.51-17.97-3.499-40.493,9.33-58.506,0-.655-.279-1.593.049-1.917,1.381-1.367,2.943-2.551,3.951-3.394v-25.378c-1.009-.844-2.57-2.028-3.951-3.395-.328-.324-.049-1.261-.049-1.917Z" fill="#6c9f3d"/>
      <path d="m35.999,756v72c-11.306,0-22.612,0-33.919,0-.694-1.026-1.987-2.05-1.993-3.081-.117-21.946-.093-43.893-.061-65.84,0-.576.404-1.151.62-1.727.478-.451.954-1.292,1.435-1.296,11.306-.074,22.612-.057,33.918-.057Z" fill="#699d39"/>
      <path d="m71.999,684v66.221c-1.376,1.027-1.878,1.728-2.383,1.731-11.205.062-22.411.048-33.617.048v-66.221c1.376-1.027,1.878-1.728,2.383-1.731,11.205-.062,22.411-.048,33.617-.048Z" fill="#6a9e39"/>
      <path d="m39.999,832h72c0,9.974,0,19.949,0,29.924-1.028.693-2.053,1.982-3.086,1.988-21.943.116-43.887.093-65.83.061-.576,0-1.152-.402-1.728-.617-.452-.478-1.295-.952-1.299-1.434-.076-9.974-.058-19.948-.058-29.923Z" fill="#679c37"/>
      <path d="m111.999,828v-32c23.287,0,46.575,0,69.863,0,.713,1.008,2.023,2.006,2.043,3.028.165,8.646.107,17.297.065,25.947-.003.572-.428,1.141-.657,1.712-.484.438-.967,1.258-1.452,1.259-23.287.063-46.575.055-69.862.055Z" fill="#679c36"/>
      <path d="m543.999,824v-28c21.953,0,43.907,0,65.861,0,.714,1.008,2.019,2.001,2.044,3.026.178,7.313.11,14.633.065,21.951-.004.572-.429,1.141-.658,1.711-.484.438-.967,1.256-1.452,1.257-21.953.063-43.907.055-65.86.055Z" fill="#689d37"/>
      <path d="m183.999,788c0-9.817-.015-19.634.043-29.451.003-.518.624-1.033.957-1.549.516-.333,1.031-.954,1.549-.957,9.817-.058,19.634-.043,29.451-.043,0,11.278,0,22.556,0,33.834-.995.723-1.999,2.08-2.985,2.067-9.205-.12-18.444.796-27.605-.574-1.479-.221-1.878-1.807-1.411-3.327Z" fill="#6a9e3a"/>
      <path d="m615.999,788v4h-4c.524-3.19.81-3.476,4-4Z" fill="#7aba41"/>
      <path d="m107.999,247.135c-6.504,1.557-11.775.634-16.998.83-4.562.171-9.136.036-13.054.036-1.061-1.151-1.891-1.63-1.892-2.112-.064-21.259-.056-42.517-.056-63.777,1.015-.704,2.019-1.998,3.048-2.018,8.633-.163,17.271-.106,25.907-.064.573.003,1.144.418,1.716.641.443.481,1.273.96,1.274,1.442.064,21.258.056,42.517.056,65.022Z" fill="#6a9e39"/>
      <path d="m70.885,252c.7,1.958,1.087,2.537,1.087,3.116.031,20.594.031,41.189,0,61.783,0,.578-.394,1.155-.457,1.328-.697.786-1.131,1.707-1.573,1.711-9.3.083-18.601.063-27.903.063-.681-1.038-1.948-2.074-1.954-3.117-.116-21.173-.087-42.347-.087-62.565,1.18-1.331,1.614-2.252,2.056-2.256,9.3-.083,18.601-.063,28.83-.063Z" fill="#6a9e39"/>
      <path d="m251.999,102.856c-1.936.717-2.511,1.116-3.088,1.117-20.594.032-41.189.032-61.783.001-.58,0-1.16-.381-1.556-.52-.61-.575-1.508-1.025-1.512-1.483-.082-9.3-.062-18.601-.062-27.903,1.029-.69,2.055-1.975,3.089-1.981,21.176-.117,42.352-.088,62.758-.088,1.19,1.12,2.088,1.571,2.092,2.029.082,9.3.061,18.601.061,28.827Z" fill="#699d39"/>
      <path d="m322.795,36c.751,1.891,1.172,2.46,1.175,3.032.042,8.636.042,17.273,0,25.909-.003.574-.412,1.146-.632,1.72-.479.447-.957,1.282-1.438,1.284-21.258.065-42.517.056-63.777.057-.709-1.01-2.012-2.01-2.031-3.034-.164-8.633-.106-17.271-.066-25.907.003-.574.412-1.147.632-1.72.479-.447.958-1.283,1.438-1.284,21.259-.065,42.517-.056,64.698-.056Z" fill="#699d39"/>
      <path d="m143.999,174.854c-1.934.719-2.508,1.116-3.083,1.118-8.619.04-17.237.04-25.856,0-.573-.003-1.145-.409-1.717-.628-.448-.477-1.283-.952-1.287-1.433-.077-9.281-.057-18.563-.058-27.846,1.027-.689,2.045-1.955,3.085-1.974,8.616-.161,17.236-.104,25.854-.063.573.003,1.145.409,1.717.628.448.477,1.283.952,1.287,1.433.077,9.281.057,18.563.057,28.765Z" fill="#6c9f3c"/>
      <path d="m179.999,138.807c-1.898.746-2.468,1.162-3.039,1.165-8.619.042-17.237.041-25.856.002-.578-.003-1.154-.39-1.422-.487-.708-.644-1.617-1.084-1.621-1.531-.083-9.281-.062-18.563-.063-27.846,1.013-.704,2.015-1.997,3.041-2.017,8.616-.163,17.236-.105,25.854-.066.578.003,1.154.39,1.422.487.708.644,1.617,1.084,1.621,1.531.083,9.281.062,18.563.062,28.762Z" fill="#6c9f3c"/>
      <path d="m759.999,538.963c-5.217,1.598-9.18.88-13.092,1.013-3.328.114-6.663.024-9.994.024h-11.043c-1.047,1.26-1.818,1.754-1.819,2.251-.06,22.635-.052,45.269-.052,67.66-.962,1.513-2.039,2.095-3.388,2.094-9.329-.01-18.658.037-27.986-.049-1.47-.013-2.666.043-3.596,1.015-.343.524-.982,1.047-.985,1.573-.058,10.611-.044,21.223-.044,31.543-3.782,3.374-7.913,1.543-11.7,1.842-3.973.314-8-.104-11.986.12-3.842.215-7.861-1.1-11.514,1.1-1.512,3.839-.6,7.811-.77,11.7-.146,3.325.054,6.665-.052,9.993-.124,3.918.542,7.879-.533,11.673-.523.533-.986,1.42-1.455,1.423-10.661.078-21.323.06-31.985.059-.669,1.054-1.899,2.1-1.917,3.166-.152,9.326-.059,18.657-.124,27.985-.009,1.223-.503,2.442-.774,3.662-.505.396-1.006,1.137-1.51,1.138-22.628.057-45.256.05-67.557.05-1.612,1.003-2.138,2.088-2.135,3.457.022,9.329-.033,18.658.057,27.986.014,1.477-.046,2.666-1.065,3.577-.531.327-1.062.94-1.593.94-70.583.043-141.166.04-211.47.04-3.393-3.762-1.545-7.897-1.847-11.683-.317-3.973.101-8-.12-11.986-.213-3.843,1.089-7.86-1.064-11.477-.617-.306-1.145-.696-1.73-.822-.636-.138-1.326-.031-1.992-.031-33.318,0-66.635.003-99.953-.023-.59,0-1.179-.348-1.769-.533-.471-.471-1.35-.939-1.353-1.414-.078-10.657-.06-21.314-.06-31.956-1.066-.704-2.095-1.966-3.144-1.983-9.326-.155-18.657-.062-27.985-.125-1.228-.008-2.452-.48-3.677-.739-.408-.5-1.169-.995-1.172-1.495-.069-10.637-.052-21.274-.052-31.627-.982-1.561-2.063-2.116-3.422-2.114-9.329.016-18.658-.035-27.986.053-1.473.014-2.666-.044-3.586-1.039-.335-.528-.963-1.055-.963-1.583-.046-34.599-.042-69.198-.042-103.51-3.781-3.375-7.912-1.543-11.7-1.842-3.973-.314-8,.103-11.986-.12-3.842-.215-7.861,1.1-11.472-1.075-.302-.62-.802-1.171-.809-1.729-.548-40.199-.158-193.859.5-211.678.471-.471.94-1.35,1.414-1.354,10.653-.078,21.307-.06,31.928-.06.732-1.079,2.031-2.102,2.036-3.133.119-20.656.078-41.313.107-61.97.003-1.905.266-3.809.385-5.405.828-.707,1.318-1.49,1.813-1.494,10.642-.07,21.284-.053,31.703-.053,1.488-.951,2.085-2.027,2.084-3.371-.007-9.329.038-18.658-.046-27.986-.013-1.468.043-2.666,1.001-3.602.523-.347,1.043-.994,1.568-.997,10.613-.059,21.226-.044,31.555-.044,3.393-3.761,1.546-7.897,1.847-11.682.317-3.973-.101-8,.12-11.986.213-3.843-1.088-7.86,1.089-11.52,3.834-1.535,7.806-.608,11.694-.781,3.325-.148,6.662-.031,9.994-.031h11.174c1.051-1.052,1.93-1.52,1.934-1.994.078-10.66.06-21.321.06-31.981,1.054-.677,2.099-1.932,3.152-1.938,20.656-.116,41.313-.074,61.97-.106,1.899-.003,3.798-.282,5.38-.408.695-.858,1.449-1.355,1.452-1.857.068-10.635.052-21.271.052-31.602.992-1.586,2.075-2.123,3.439-2.123,69.967.011,139.933.007,209.9.048.536,0,1.071.592,1.607.907.351.521,1.006,1.04,1.009,1.563.06,10.614.045,21.229.045,31.243,1.129,1.931,2.233,2.281,3.663,2.278,21.323-.044,42.646-.007,63.969-.08,1.493-.005,2.666.05,3.583,1.287,1.529,3.702.575,7.676.753,11.561.152,3.325-.047,6.664.052,9.993.116,3.923-.509,7.884.515,11.744.492.492.96,1.371,1.435,1.374,10.657.078,21.314.06,31.955.06.704,1.066,1.967,2.095,1.984,3.143.155,9.326.062,18.656.125,27.985.008,1.228.48,2.452.739,3.678.499.408.994,1.169,1.494,1.172,10.637.069,21.274.052,31.628.052,1.56.982,2.116,2.063,2.113,3.421-.016,9.329.035,18.658-.053,27.986-.014,1.473.044,2.666,1.039,3.587.527.335,1.053.96,1.583.963,10.608.057,21.217.043,31.126.043,2.044,1.171,2.336,2.281,2.333,3.732-.053,21.323-.012,42.646-.088,63.969-.005,1.5.052,2.666,1.336,3.558,3.721,1.443,7.691.544,11.582.711,3.326.143,6.665-.056,9.993.052,3.917.126,7.878-.553,11.569.514.607.575,1.511,1.032,1.511,1.489.063,70.633.06,141.267.06,212.938Z" fill="#76b43f"/>
      <path d="m579.999,644c-3.191.524-3.476.81-4,4-3.751,4.418-8.999,5.562-14.287,5.772-25.086.997-50.184,1.005-75.271.006-5.392-.215-10.339-2.074-14.441-5.778,0-11.001.004-22.003-.005-33.004-.001-1.627-1.224-2.52-3.995-2.996-22.667,9.742-45.333,9.739-68,0,0-11.001.005-22.003-.005-33.004-.001-1.627-1.224-2.52-3.995-2.996-10.667,7.587-21.333,7.583-32,0,0-11.001.004-22.003-.005-33.004-.001-1.627-1.224-2.52-3.995-2.996-10.667,7.587-21.333,7.583-32,0,0-11.001.005-22.003-.005-33.004-.001-1.627-1.224-2.52-3.995-2.996-10.667,7.587-21.333,7.583-32,0,0-11.001.004-22.003-.005-33.004-.001-1.627-1.224-2.52-3.995-2.996-10.667,7.587-21.333,7.583-32,0,0-22.974.002-45.947-.005-68.921,0-1.725-1.213-2.634-3.995-3.079-10.667,7.587-21.333,7.583-32,0v-106.859c5.108-1.772,9.068-.964,12.965-1.114,3.323-.128,6.657.066,9.981-.051,3.905-.137,7.863.599,11.684-.603.474-.507,1.311-.984,1.314-1.467.075-10.644.057-21.289.057-31.92,1.084-.673,2.141-1.897,3.203-1.903,21.962-.111,43.923-.089,65.885-.052.56,0,1.119.479,1.679.735.411.495,1.177.988,1.181,1.486.069,10.629.052,21.258.052,31.668.948,1.48,2.022,2.082,3.362,2.081,9.317-.005,18.635-.036,27.951.038,1.206.01,2.408.572,3.61.878,1.723,14.31,1.866,31.765.868,105.29-.799,1.285-1.882,1.807-3.251,1.804-9.317-.023-18.635.031-27.951-.056-1.471-.014-2.662.044-3.582,1.037-.336.526-.962,1.051-.964,1.58-.057,10.599-.043,21.198-.043,31.428.836.836,1.301,1.711,1.778,1.717,10.616.152,21.234.192,31.851.331.512.007,1.014.718,1.562,1.132,1.558,3.749.599,7.718.778,11.598.153,3.32-.042,6.656.051,9.981.109,3.922-.477,7.878.484,11.744.49.49.958,1.368,1.432,1.371,10.638.078,21.277.06,31.873.06.761,1.07,2.083,2.067,2.099,3.083.156,9.98.083,19.964.123,29.946.002.573.424,1.144.65,1.715.483.44.964,1.262,1.45,1.265,10.641.073,21.282.056,31.895.056.679,1.112,1.874,2.166,1.891,3.239.148,9.315.055,18.633.122,27.95.009,1.218.517,2.432.797,3.648.507.387,1.01,1.111,1.517,1.114,10.62.066,21.24.049,31.523.049,1.62-1.007,2.142-2.09,2.139-3.459-.023-9.317.031-18.635-.056-27.951-.014-1.471.044-2.662,1.037-3.582,15.144-1.539,48.154-1.767,105.326-.73,3.244,3.34,1.286,7.501,1.606,11.271.337,3.964-.079,7.988.12,11.971.192,3.853-.98,7.846.961,11.509.592.346,1.127.929,1.664.932,10.59.054,21.18.04,31.331.04.904.904,1.785,1.374,1.786,1.846.068,21.275.059,42.55.059,64.12-1.135,1.192-2.563,2.556-3.797,4.078-.326.402-.049,1.291-.049,1.957-6.154,6.869-16.254,3.7-22.171,7.998-6.594,7.619-2.567,18.023-9.829,24.002Z" fill="#f0f8e9"/>
      <path d="m471.999,648h104c0,.664-.276,1.552.049,1.953,1.232,1.519,2.659,2.88,3.878,4.158v27.921c-.879,1.374-1.951,1.972-3.289,1.971-33.87-.004-67.741,0-101.611-.031-.57,0-1.14-.427-1.71-.655-.439-.482-1.258-.962-1.261-1.447-.072-11.29-.056-22.58-.056-33.87Z" fill="#619333"/>
      <path d="m215.999,394.849c-1.93.721-2.505,1.121-3.082,1.124-8.645.04-17.29.041-25.935-.003-.567-.003-1.133-.447-1.699-.685-.428-.488-1.23-.975-1.231-1.463-.059-34.58-.053-69.161-.054-103.742,1.027-.693,2.045-1.969,3.084-1.987,9.215-.157,18.433-.091,27.004-.091,1.056,1.204,1.858,1.691,1.859,2.179.059,34.58.053,69.161.053,104.669Z" fill="#629334"/>
      <path d="m399.999,612h68c0,11.305,0,22.61,0,33.917-1.025.695-2.048,1.989-3.078,1.995-20.615.119-41.23.094-61.845.062-.576,0-1.151-.406-1.726-.622-.45-.479-1.291-.954-1.294-1.436-.074-11.305-.057-22.61-.057-33.915Z" fill="#619334"/>
      <path d="m219.999,396h32c0,23.287,0,46.575,0,69.863-1.008.713-2.006,2.023-3.028,2.043-8.646.165-17.297.107-25.947.065-.572-.003-1.141-.428-1.712-.657-.438-.484-1.258-.967-1.259-1.452-.063-23.287-.055-46.574-.055-69.862Z" fill="#629435"/>
      <path d="m579.999,644c0-9.817-.015-19.634.043-29.451.003-.518.624-1.033.957-1.549.516-.333,1.031-.954,1.549-.957,9.817-.058,19.634-.043,29.451-.043,0,.661-.275,1.545.049,1.942,1.23,1.511,2.653,2.865,3.945,4.215v27.848c-.474.474-.908,1.308-1.413,1.354-11.06,1.005-22.134,1.092-33.183-.053-1.451-.15-1.86-1.794-1.397-3.307Z" fill="#629433"/>
      <path d="m291.999,504h32c0,11.295,0,22.59,0,33.887-1.014.705-2.018,2.001-3.046,2.02-8.635.164-17.273.106-25.911.064-.573-.003-1.144-.419-1.715-.643-.443-.481-1.269-.96-1.272-1.443-.073-11.295-.056-22.59-.056-33.885Z" fill="#649537"/>
      <path d="m363.999,576h32c0,11.295,0,22.59,0,33.887-1.014.705-2.018,2.001-3.046,2.02-8.635.164-17.273.106-25.911.064-.573-.003-1.144-.419-1.715-.643-.443-.481-1.269-.96-1.272-1.443-.073-11.295-.056-22.59-.056-33.885Z" fill="#649537"/>
      <path d="m255.999,468h32c0,11.295,0,22.59,0,33.887-1.014.705-2.018,2.001-3.046,2.02-8.635.164-17.273.106-25.911.064-.573-.003-1.144-.419-1.715-.643-.443-.481-1.269-.96-1.272-1.443-.073-11.295-.056-22.59-.056-33.885Z" fill="#649537"/>
      <path d="m327.999,540h32c0,11.295,0,22.59,0,33.887-1.014.705-2.018,2.001-3.046,2.02-8.635.164-17.273.106-25.911.064-.573-.003-1.144-.419-1.715-.643-.443-.481-1.269-.96-1.272-1.443-.073-11.295-.056-22.59-.056-33.885Z" fill="#649537"/>
      <path d="m251.999,282.879c-1.952.705-2.528,1.092-3.105,1.095-8.619.039-17.237.04-25.856-.002-.571-.003-1.141-.419-1.711-.643-.443-.48-1.268-.956-1.272-1.439-.076-9.281-.057-18.563-.057-27.846,1.035-.682,2.06-1.934,3.108-1.953,8.616-.16,17.236-.103,25.854-.061.571.003,1.141.419,1.711.643.443.48,1.268.956,1.272,1.439.076,9.281.057,18.563.057,28.767Z" fill="#659538"/>
    </g>
  </g>
</svg>