<?xml version="1.0" encoding="UTF-8"?>
<svg id="b" data-name="Layer 2" xmlns="http://www.w3.org/2000/svg" width="976.341" height="720.316" viewBox="0 0 976.341 720.316">
  <g id="c" data-name="LOSANGO SOCIAL NETWORK ICONS">
    <g>
      <path d="m39.998,540.142c0-119.181-.001-238.361.045-357.542,0-.516.681-1.031,1.044-1.547.54-.304,1.079-.87,1.62-.873,10.59-.052,21.18-.039,31.292-.039.942-.942,1.576-1.338,1.837-1.906.253-.551.157-1.278.158-1.928.006-21.972-.003-43.944.056-65.915.001-.497.772-.991,1.212-1.521,3.783-1.403,7.748-.542,11.64-.702,3.323-.137,6.66.059,9.985-.051,3.912-.129,7.87.566,11.431-.489.701-.639,1.615-1.082,1.618-1.532.079-11.319.062-22.637.062-33.956,23.323,0,46.645,0,69.969,0,.678-1.045,1.924-2.083,1.942-3.14.154-9.327.06-18.657.124-27.985.008-1.225.491-2.447.757-3.67.502-.402,1.002-1.156,1.502-1.156,202.572-.051,405.144-.05,607.713-.05.667,1.065,1.888,2.115,1.906,3.184.151,9.327.058,18.657.124,27.985.009,1.221.511,2.438.787,3.657.507.391,1.01,1.124,1.515,1.125,22.626.057,45.253.049,67.662.049.688.688,1.533,1.128,1.575,1.635.912,11.113.116,22.301.495,32.816,1.496.905,2.028,1.505,2.562,1.508,10.603.055,21.207.041,31.029.041,2.139,1.204,2.384,2.321,2.38,3.787-.06,21.323-.016,42.647-.095,63.97-.005,1.506.053,2.666,1.376,3.537,3.736,1.372,7.704.519,11.6.677,3.326.136,6.666-.063,9.993.052,3.911.135,7.874-.59,11.703.594.477.506,1.324.985,1.325,1.464.059,59.306.056,118.612.056,177.918s.003,118.384-.046,177.576c0,.512-.695,1.023-1.097,1.578-3.731,1.628-7.701.625-11.573.812-3.318.16-6.649.033-9.975.033h-11.309c-.939.939-1.819,1.408-1.821,1.879-.068,21.265-.059,42.531-.059,63.8-1.411,1.481-2.839,2.844-4.072,4.365-.325.401-.049,1.29-.049,1.955-6.153,6.869-16.255,3.699-22.171,7.998-6.594,7.618-2.566,18.022-9.829,24.002-3.19.524-3.476.81-4,4-9.63,8.366-21.385,5.047-32.372,5.813-8.503.593-17.276-1.167-25.278,3.038-6.638,6.363-3.118,17.16-10.35,23.149-3.191.524-3.476.81-4,4-7.467,7.484-17.182,6.32-26.32,6.36-186.816.82-373.629-.986-560.445-.779-5.97.007-11.992.127-17.704-2.01-13.908-6.28-3.423-24.205-15.113-31.522-11.785-3.817-23.878-1.493-35.786-2.093-8.615-.434-17.469.377-24.632-5.956,0-11.001.004-22.003-.005-33.004-.001-1.627-1.224-2.52-3.995-2.996-10.667,7.587-21.333,7.583-32,0,0-22.974.002-45.947-.005-68.921,0-1.725-1.213-2.634-3.995-3.079-10.667,7.587-21.333,7.583-32,0Z" fill="#fcf3f4"/>
      <path d="m183.998,684.142h608c0,.664-.276,1.552.049,1.952,1.232,1.518,2.659,2.879,3.883,4.163v27.916c-.875,1.362-1.946,1.972-3.279,1.971-6.639-.004-13.278-.002-19.916-.002h-340.736c-3.837-6.474-1.223-14.592-5.309-24.068-77.164-1.936-154.323-2.391-229.231-1.184-9.026,8.545-6.931,19.008-13.46,25.252-1.478.444-2.728.055-3.287-1.349-.443-1.114-.678-2.385-.684-3.589-.051-10.354-.029-20.708-.029-31.062.667-.511,1.333-1.023,2-1.535.667.511,1.333,1.023,2,1.535Z" fill="#8b2323"/>
      <path d="m795.998,680.142c0-9.883-.017-19.766.049-29.648.003-.503.717-1.001,1.1-1.501.542-.284,1.082-.814,1.624-.815,21.742-.042,43.484-.036,65.227-.036,0,.663-.275,1.549.049,1.948,1.231,1.516,2.656,2.873,3.908,4.184v27.933c-1.103.662-2.162,1.849-3.227,1.854-21.865.108-43.73.084-65.595.076-1.793,0-2.709-1.2-3.135-3.995Z" fill="#8c2424"/>
      <path d="m867.998,644.142c0-9.817-.015-19.634.043-29.451.003-.518.624-1.033.957-1.549.516-.333,1.031-.954,1.549-.958,9.817-.057,19.634-.042,29.451-.042,0,.661-.275,1.545.049,1.942,1.23,1.511,2.653,2.865,3.945,4.216v27.849c-.473.473-.907,1.307-1.413,1.353-11.06,1.005-22.134,1.093-33.184-.053-1.451-.15-1.86-1.794-1.397-3.307Z" fill="#8d2424"/>
      <path d="m904.173,608.15c0-9.817-.015-19.634.043-29.451.003-.518.624-1.033.957-1.549.516-.333,1.031-.954,1.549-.958,9.817-.057,19.634-.042,29.451-.042,0,.661-.275,1.545.049,1.942,1.23,1.511,2.653,2.865,3.945,4.216v27.849c-.473.473-.907,1.307-1.413,1.353-11.06,1.005-22.134,1.093-33.184-.053-1.451-.15-1.86-1.794-1.397-3.307Z" fill="#8d2424"/>
      <path d="m904.173,572.326c0-9.817-.015-19.634.043-29.451.003-.518.624-1.033.957-1.549.516-.333,1.031-.954,1.549-.958,9.817-.057,19.634-.042,29.451-.042,0,.661-.275,1.545.049,1.942,1.23,1.511,2.653,2.865,3.945,4.216v27.849c-.473.473-.907,1.307-1.413,1.353-11.06,1.005-22.134,1.093-33.184-.053-1.451-.15-1.86-1.794-1.397-3.307Z" fill="#8d2424"/>
      <path d="m940.348,536.147c0-9.817-.015-19.634.043-29.451.003-.518.624-1.033.957-1.549.516-.333,1.031-.954,1.549-.958,9.817-.057,19.634-.042,29.451-.042,0,.661-.275,1.545.049,1.942,1.23,1.511,2.653,2.865,3.945,4.216v27.849c-.473.473-.907,1.307-1.413,1.353-11.06,1.005-22.134,1.093-33.184-.053-1.451-.15-1.86-1.794-1.397-3.307Z" fill="#8d2424"/>
      <path d="m940.348,500.142c0-9.817-.015-19.634.043-29.451.003-.518.624-1.033.957-1.549.516-.333,1.031-.954,1.549-.958,9.817-.057,19.634-.042,29.451-.042,0,.661-.275,1.545.049,1.942,1.23,1.511,2.653,2.865,3.945,4.216v27.849c-.473.473-.907,1.307-1.413,1.353-11.06,1.005-22.134,1.093-33.184-.053-1.451-.15-1.86-1.794-1.397-3.307Z" fill="#8d2424"/>
      <path d="m940.348,464.137c0-9.817-.015-19.634.043-29.451.003-.518.624-1.033.957-1.549.516-.333,1.031-.954,1.549-.958,9.817-.057,19.634-.042,29.451-.042,0,.661-.275,1.545.049,1.942,1.23,1.511,2.653,2.865,3.945,4.216v27.849c-.473.473-.907,1.307-1.413,1.353-11.06,1.005-22.134,1.093-33.184-.053-1.451-.15-1.86-1.794-1.397-3.307Z" fill="#8d2424"/>
      <path d="m940.348,428.133c0-9.817-.015-19.634.043-29.451.003-.518.624-1.033.957-1.549.516-.333,1.031-.954,1.549-.958,9.817-.057,19.634-.042,29.451-.042,0,.661-.275,1.545.049,1.942,1.23,1.511,2.653,2.865,3.945,4.216v27.849c-.473.473-.907,1.307-1.413,1.353-11.06,1.005-22.134,1.093-33.184-.053-1.451-.15-1.86-1.794-1.397-3.307Z" fill="#8d2424"/>
      <path d="m940.348,392.128c0-9.817-.015-19.634.043-29.451.003-.518.624-1.033.957-1.549.516-.333,1.031-.954,1.549-.958,9.817-.057,19.634-.042,29.451-.042,0,.661-.275,1.545.049,1.942,1.23,1.511,2.653,2.865,3.945,4.216v27.849c-.473.473-.907,1.307-1.413,1.353-11.06,1.005-22.134,1.093-33.184-.053-1.451-.15-1.86-1.794-1.397-3.307Z" fill="#8d2424"/>
      <path d="m940.348,356.123c0-9.817-.015-19.634.043-29.451.003-.518.624-1.033.957-1.549.516-.333,1.031-.954,1.549-.958,9.817-.057,19.634-.042,29.451-.042,0,.661-.275,1.545.049,1.942,1.23,1.511,2.653,2.865,3.945,4.216v27.849c-.473.473-.907,1.307-1.413,1.353-11.06,1.005-22.134,1.093-33.184-.053-1.451-.15-1.86-1.794-1.397-3.307Z" fill="#8d2424"/>
      <path d="m940.348,320.118c0-9.817-.015-19.634.043-29.451.003-.518.624-1.033.957-1.549.516-.333,1.031-.954,1.549-.958,9.817-.057,19.634-.042,29.451-.042,0,.661-.275,1.545.049,1.942,1.23,1.511,2.653,2.865,3.945,4.216v27.849c-.473.473-.907,1.307-1.413,1.353-11.06,1.005-22.134,1.093-33.184-.053-1.451-.15-1.86-1.794-1.397-3.307Z" fill="#8d2424"/>
      <path d="m940.348,284.113c0-9.817-.015-19.634.043-29.451.003-.518.624-1.033.957-1.549.516-.333,1.031-.954,1.549-.958,9.817-.057,19.634-.042,29.451-.042,0,.661-.275,1.545.049,1.942,1.23,1.511,2.653,2.865,3.945,4.216v27.849c-.473.473-.907,1.307-1.413,1.353-11.06,1.005-22.134,1.093-33.184-.053-1.451-.15-1.86-1.794-1.397-3.307Z" fill="#8d2424"/>
      <path d="m940.348,248.108c0-9.817-.015-19.634.043-29.451.003-.518.624-1.033.957-1.549.516-.333,1.031-.954,1.549-.958,9.817-.057,19.634-.042,29.451-.042,0,.661-.275,1.545.049,1.942,1.23,1.511,2.653,2.865,3.945,4.216v27.849c-.473.473-.907,1.307-1.413,1.353-11.06,1.005-22.134,1.093-33.184-.053-1.451-.15-1.86-1.794-1.397-3.307Z" fill="#8d2424"/>
      <path d="m940.348,212.103c0-9.817-.015-19.634.043-29.451.003-.518.624-1.033.957-1.549.516-.333,1.031-.954,1.549-.958,9.817-.057,19.634-.042,29.451-.042,0,.661-.275,1.545.049,1.942,1.23,1.511,2.653,2.865,3.945,4.216v27.849c-.473.473-.907,1.307-1.413,1.353-11.06,1.005-22.134,1.093-33.184-.053-1.451-.15-1.86-1.794-1.397-3.307Z" fill="#8d2424"/>
      <path d="m760.002,32.002c0-9.817-.015-19.634.043-29.451.003-.518.624-1.033.957-1.549.516-.333,1.031-.954,1.549-.958,9.817-.057,19.634-.042,29.451-.042,0,.661-.275,1.545.049,1.942,1.23,1.511,2.653,2.865,3.945,4.216v27.849c-.473.473-.907,1.307-1.413,1.353-11.06,1.005-22.134,1.093-33.184-.053-1.451-.15-1.86-1.794-1.397-3.307Z" fill="#8d2424"/>
      <path d="m796.111,68.143c0-9.817-.015-19.634.043-29.451.003-.518.624-1.033.957-1.549.516-.333,1.031-.954,1.549-.958,9.817-.057,19.634-.042,29.451-.042,0,.661-.275,1.545.049,1.942,1.23,1.511,2.653,2.865,3.945,4.216v27.849c-.473.473-.907,1.307-1.413,1.353-11.06,1.005-22.134,1.093-33.184-.053-1.451-.15-1.86-1.794-1.397-3.307Z" fill="#8d2424"/>
      <path d="m832.286,68.143c0-9.817-.015-19.634.043-29.451.003-.518.624-1.033.957-1.549.516-.333,1.031-.954,1.549-.958,9.817-.057,19.634-.042,29.451-.042,0,.661-.275,1.545.049,1.942,1.23,1.511,2.653,2.865,3.945,4.216v27.849c-.473.473-.907,1.307-1.413,1.353-11.06,1.005-22.134,1.093-33.184-.053-1.451-.15-1.86-1.794-1.397-3.307Z" fill="#8d2424"/>
      <path d="m868.461,104.285c0-9.817-.015-19.634.043-29.451.003-.518.624-1.033.957-1.549.516-.333,1.031-.954,1.549-.958,9.817-.057,19.634-.042,29.451-.042,0,.661-.275,1.545.049,1.942,1.23,1.511,2.653,2.865,3.945,4.216v27.849c-.473.473-.907,1.307-1.413,1.353-11.06,1.005-22.134,1.093-33.184-.053-1.451-.15-1.86-1.794-1.397-3.307Z" fill="#8d2424"/>
      <path d="m904.635,140.427c0-9.817-.015-19.634.043-29.451.003-.518.624-1.033.957-1.549.516-.333,1.031-.954,1.549-.958,9.817-.057,19.634-.042,29.451-.042,0,.661-.275,1.545.049,1.942,1.23,1.511,2.653,2.865,3.945,4.216v27.849c-.473.473-.907,1.307-1.413,1.353-11.06,1.005-22.134,1.093-33.184-.053-1.451-.15-1.86-1.794-1.397-3.307Z" fill="#8d2424"/>
      <path d="m904.635,176.568c0-9.817-.015-19.634.043-29.451.003-.518.624-1.033.957-1.549.516-.333,1.031-.954,1.549-.958,9.817-.057,19.634-.042,29.451-.042,0,.661-.275,1.545.049,1.942,1.23,1.511,2.653,2.865,3.945,4.216v27.849c-.473.473-.907,1.307-1.413,1.353-11.06,1.005-22.134,1.093-33.184-.053-1.451-.15-1.86-1.794-1.397-3.307Z" fill="#8d2424"/>
      <path d="m723.827,32.002c0-9.817-.015-19.634.043-29.451.003-.518.624-1.033.957-1.549.516-.333,1.031-.954,1.549-.958,9.817-.057,19.634-.042,29.451-.042,0,.661-.275,1.545.049,1.942,1.23,1.511,2.653,2.865,3.945,4.216v27.849c-.473.473-.907,1.307-1.413,1.353-11.06,1.005-22.134,1.093-33.184-.053-1.451-.15-1.86-1.794-1.397-3.307Z" fill="#8d2424"/>
      <path d="m687.653,32.002c0-9.817-.015-19.634.043-29.451.003-.518.624-1.033.957-1.549.516-.333,1.031-.954,1.549-.958,9.817-.057,19.634-.042,29.451-.042,0,.661-.275,1.545.049,1.942,1.23,1.511,2.653,2.865,3.945,4.216v27.849c-.473.473-.907,1.307-1.413,1.353-11.06,1.005-22.134,1.093-33.184-.053-1.451-.15-1.86-1.794-1.397-3.307Z" fill="#8d2424"/>
      <path d="m651.478,32.002c0-9.817-.015-19.634.043-29.451.003-.518.624-1.033.957-1.549.516-.333,1.031-.954,1.549-.958,9.817-.057,19.634-.042,29.451-.042,0,.661-.275,1.545.049,1.942,1.23,1.511,2.653,2.865,3.945,4.216v27.849c-.473.473-.907,1.307-1.413,1.353-11.06,1.005-22.134,1.093-33.184-.053-1.451-.15-1.86-1.794-1.397-3.307Z" fill="#8d2424"/>
      <path d="m615.303,32.002c0-9.817-.015-19.634.043-29.451.003-.518.624-1.033.957-1.549.516-.333,1.031-.954,1.549-.958,9.817-.057,19.634-.042,29.451-.042,0,.661-.275,1.545.049,1.942,1.23,1.511,2.653,2.865,3.945,4.216v27.849c-.473.473-.907,1.307-1.413,1.353-11.06,1.005-22.134,1.093-33.184-.053-1.451-.15-1.86-1.794-1.397-3.307Z" fill="#8d2424"/>
      <path d="m579.128,32.002c0-9.817-.015-19.634.043-29.451.003-.518.624-1.033.957-1.549.516-.333,1.031-.954,1.549-.958,9.817-.057,19.634-.042,29.451-.042,0,.661-.275,1.545.049,1.942,1.23,1.511,2.653,2.865,3.945,4.216v27.849c-.473.473-.907,1.307-1.413,1.353-11.06,1.005-22.134,1.093-33.184-.053-1.451-.15-1.86-1.794-1.397-3.307Z" fill="#8d2424"/>
      <path d="m542.953,32.002c0-9.817-.015-19.634.043-29.451.003-.518.624-1.033.957-1.549.516-.333,1.031-.954,1.549-.958,9.817-.057,19.634-.042,29.451-.042,0,.661-.275,1.545.049,1.942,1.23,1.511,2.653,2.865,3.945,4.216v27.849c-.473.473-.907,1.307-1.413,1.353-11.06,1.005-22.134,1.093-33.184-.053-1.451-.15-1.86-1.794-1.397-3.307Z" fill="#8d2424"/>
      <path d="m506.779,32.002c0-9.817-.015-19.634.043-29.451.003-.518.624-1.033.957-1.549.516-.333,1.031-.954,1.549-.958,9.817-.057,19.634-.042,29.451-.042,0,.661-.275,1.545.049,1.942,1.23,1.511,2.653,2.865,3.945,4.216v27.849c-.473.473-.907,1.307-1.413,1.353-11.06,1.005-22.134,1.093-33.184-.053-1.451-.15-1.86-1.794-1.397-3.307Z" fill="#8d2424"/>
      <path d="m470.604,32.002c0-9.817-.015-19.634.043-29.451.003-.518.624-1.033.957-1.549.516-.333,1.031-.954,1.549-.958,9.817-.057,19.634-.042,29.451-.042,0,.661-.275,1.545.049,1.942,1.23,1.511,2.653,2.865,3.945,4.216v27.849c-.473.473-.907,1.307-1.413,1.353-11.06,1.005-22.134,1.093-33.184-.053-1.451-.15-1.86-1.794-1.397-3.307Z" fill="#8d2424"/>
      <path d="m434.429,32.002c0-9.817-.015-19.634.043-29.451.003-.518.624-1.033.957-1.549.516-.333,1.031-.954,1.549-.958,9.817-.057,19.634-.042,29.451-.042,0,.661-.275,1.545.049,1.942,1.23,1.511,2.653,2.865,3.945,4.216v27.849c-.473.473-.907,1.307-1.413,1.353-11.06,1.005-22.134,1.093-33.184-.053-1.451-.15-1.86-1.794-1.397-3.307Z" fill="#8d2424"/>
      <path d="m398.254,32.002c0-9.817-.015-19.634.043-29.451.003-.518.624-1.033.957-1.549.516-.333,1.031-.954,1.549-.958,9.817-.057,19.634-.042,29.451-.042,0,.661-.275,1.545.049,1.942,1.23,1.511,2.653,2.865,3.945,4.216v27.849c-.473.473-.907,1.307-1.413,1.353-11.06,1.005-22.134,1.093-33.184-.053-1.451-.15-1.86-1.794-1.397-3.307Z" fill="#8d2424"/>
      <path d="m362.079,32.002c0-9.817-.015-19.634.043-29.451.003-.518.624-1.033.957-1.549.516-.333,1.031-.954,1.549-.958,9.817-.057,19.634-.042,29.451-.042,0,.661-.275,1.545.049,1.942,1.23,1.511,2.653,2.865,3.945,4.216v27.849c-.473.473-.907,1.307-1.413,1.353-11.06,1.005-22.134,1.093-33.184-.053-1.451-.15-1.86-1.794-1.397-3.307Z" fill="#8d2424"/>
      <path d="m325.904,32.002c0-9.817-.015-19.634.043-29.451.003-.518.624-1.033.957-1.549.516-.333,1.031-.954,1.549-.958,9.817-.057,19.634-.042,29.451-.042,0,.661-.275,1.545.049,1.942,1.23,1.511,2.653,2.865,3.945,4.216v27.849c-.473.473-.907,1.307-1.413,1.353-11.06,1.005-22.134,1.093-33.184-.053-1.451-.15-1.86-1.794-1.397-3.307Z" fill="#8d2424"/>
      <path d="m289.73,32.002c0-9.817-.015-19.634.043-29.451.003-.518.624-1.033.957-1.549.516-.333,1.031-.954,1.549-.958,9.817-.057,19.634-.042,29.451-.042,0,.661-.275,1.545.049,1.942,1.23,1.511,2.653,2.865,3.945,4.216v27.849c-.473.473-.907,1.307-1.413,1.353-11.06,1.005-22.134,1.093-33.184-.053-1.451-.15-1.86-1.794-1.397-3.307Z" fill="#8d2424"/>
      <path d="m253.555,32.002c0-9.817-.015-19.634.043-29.451.003-.518.624-1.033.957-1.549.516-.333,1.031-.954,1.549-.958,9.817-.057,19.634-.042,29.451-.042,0,.661-.275,1.545.049,1.942,1.23,1.511,2.653,2.865,3.945,4.216v27.849c-.473.473-.907,1.307-1.413,1.353-11.06,1.005-22.134,1.093-33.184-.053-1.451-.15-1.86-1.794-1.397-3.307Z" fill="#8d2424"/>
      <path d="m217.38,32.002c0-9.817-.015-19.634.043-29.451.003-.518.624-1.033.957-1.549.516-.333,1.031-.954,1.549-.958C229.746-.013,239.563.002,249.38.002c0,.661-.275,1.545.049,1.942,1.23,1.511,2.653,2.865,3.945,4.216v27.849c-.473.473-.907,1.307-1.413,1.353-11.06,1.005-22.134,1.093-33.184-.053-1.451-.15-1.86-1.794-1.397-3.307Z" fill="#8d2424"/>
      <path d="m181.205,32.002c0-9.817-.015-19.634.043-29.451.003-.518.624-1.033.957-1.549.516-.333,1.031-.954,1.549-.958C193.571-.013,203.388.002,213.205.002c0,.661-.275,1.545.049,1.942,1.23,1.511,2.653,2.865,3.945,4.216v27.849c-.473.473-.907,1.307-1.413,1.353-11.06,1.005-22.134,1.093-33.184-.053-1.451-.15-1.86-1.794-1.397-3.307Z" fill="#8d2424"/>
      <path d="m148.018,68.143c0-9.817-.015-19.634.043-29.451.003-.518.624-1.033.957-1.549.516-.333,1.031-.954,1.549-.958,9.817-.057,19.634-.042,29.451-.042,0,.661-.275,1.545.049,1.942,1.23,1.511,2.653,2.865,3.945,4.216v27.849c-.473.473-.907,1.307-1.413,1.353-11.06,1.005-22.134,1.093-33.184-.053-1.451-.15-1.86-1.794-1.397-3.307Z" fill="#8d2424"/>
      <path d="m111.736,68.143c0-9.817-.015-19.634.043-29.451.003-.518.624-1.033.957-1.549.516-.333,1.031-.954,1.549-.958,9.817-.057,19.634-.042,29.451-.042,0,.661-.275,1.545.049,1.942,1.23,1.511,2.653,2.865,3.945,4.216v27.849c-.473.473-.907,1.307-1.413,1.353-11.06,1.005-22.134,1.093-33.184-.053-1.451-.15-1.86-1.794-1.397-3.307Z" fill="#8d2424"/>
      <path d="m183.998,720.142c0-9.978,0-19.957,0-29.936,1.032-.689,2.062-1.97,3.099-1.976,19.956-.119,39.913-.088,59.869-.088h187.032c.866.866,1.741,1.332,1.746,1.807.085,7.955.061,15.911.061,24.201-1.096,1.151-2.524,2.514-3.758,4.035-.325.402-.049,1.291-.049,1.956h-248Z" fill="#751e1e"/>
      <path d="m3.998,184.142c-.47-1.526-.068-3.114,1.421-3.337,9.784-1.467,19.581-.183,28.643-.777,1.133,1.409,1.886,1.908,1.886,2.408.052,71.235.05,142.471.05,213.706-5.99,5.742-14.765,5.378-21.121,9.165-6.01,8.051-4.623,16.877-4.686,25.299-.208,27.726.037,55.454-.141,83.18-.059,9.184.683,18.658-6.051,26.356-1.521.468-2.803.055-3.355-1.42-.434-1.157-.619-2.473-.62-3.718-.03-45.807-.028-91.615-.009-137.422,0-1.275.239-2.55.367-3.824.94-.939,1.879-1.878,2.818-2.816.266-.554.766-1.107.766-1.661.035-68.379.033-136.759.033-205.138Z" fill="#8c2525"/>
      <path d="m3.998,540.142c0-47.018-.003-94.036.031-141.055,0-.561.46-1.121.706-1.682.488-.421.973-1.207,1.464-1.21,9.933-.072,19.867-.054,29.8-.054v144H3.998Z" fill="#772020"/>
      <path d="m111.998,648.142h68c3.059,12,3.08,24,0,36-21.752,0-43.504.006-65.256-.037-.539,0-1.077-.545-1.616-.836-.376-.504-1.077-1.005-1.08-1.511-.063-11.205-.048-22.411-.048-33.617Z" fill="#762020"/>
      <path d="m39.998,540.142h32c0,23.287,0,46.575,0,69.863-1.008.713-2.007,2.025-3.028,2.043-9.223.16-18.45.094-27.038.094-1.059-1.17-1.879-1.653-1.88-2.138-.063-23.287-.055-46.574-.055-69.862Z" fill="#722"/>
      <path d="m75.998,612.142h32c0,11.295,0,22.591,0,33.887-1.014.705-2.018,2.001-3.046,2.02-8.635.163-17.273.106-25.911.064-.573-.003-1.144-.419-1.715-.643-.443-.481-1.269-.96-1.272-1.443-.073-11.295-.056-22.59-.056-33.885Z" fill="#792323"/>
      <path d="m71.998,175.028c-1.958.7-2.536,1.084-3.116,1.086-8.636.039-17.273.041-25.909-.004-.566-.003-1.13-.449-1.695-.688-.427-.488-1.226-.974-1.227-1.463-.062-21.258-.054-42.517-.054-63.777,1.038-.681,2.067-1.932,3.118-1.951,8.633-.16,17.271-.104,25.907-.059.566.003,1.13.449,1.695.689.427.488,1.226.974,1.227,1.463.062,21.258.053,42.517.053,64.704Z" fill="#8d2727"/>
      <path d="m106.876,72.142c.705,1.952,1.092,2.528,1.095,3.105.039,8.619.04,17.237-.002,25.856-.003.572-.419,1.141-.643,1.711-.48.443-.956,1.268-1.439,1.271-9.281.076-18.563.057-27.846.057-.682-1.035-1.934-2.06-1.953-3.108-.16-8.616-.103-17.236-.061-25.854.003-.572.419-1.141.643-1.711.48-.443.956-1.267,1.439-1.271,9.281-.076,18.563-.057,28.767-.057Z" fill="#8f2a2a"/>
      <path d="m615.998,396.142c0,11.312,0,22.623,0,33.936-1.032.689-2.062,1.97-3.099,1.976-19.961.119-39.923.062-59.884.119-2.567.007-5.228-.627-7.682.632-.458.505-1.276.986-1.279,1.473-.073,10.638-.056,21.277-.056,31.888-1.113.679-2.172,1.887-3.238,1.893-20.626.112-41.253.071-61.88.102-1.897.003-3.793.281-5.374.406-.697.854-1.454,1.349-1.457,1.848-.068,10.625-.052,21.251-.052,31.641-.957,1.5-2.032,2.089-3.376,2.089-33.934-.005-67.869,0-101.803-.039-.551,0-1.101-.519-1.652-.796-.39-.504-1.12-1.008-1.121-1.512-.051-59.219-.048-118.438-.048-177.657,11.613-8.431,23.486-7.121,34.609-1.763,8.266,7.748,6.018,18.446,11.101,26.841,7.666,6.302,17.301,4.492,26.365,4.521,60.447.193,120.895-.018,181.342.19,10.439.036,21.409-1.47,30.917,6.386,2.864,10.102,1.828,20.508.622,31.033-10.504,6.458-22.692-.767-32.956,4.792Z" fill="#a22828"/>
      <path d="m615.998,396.142c-.467-1.52-.074-2.927,1.419-3.331,1.828-.493,3.795-.624,5.704-.642,7.297-.068,14.596-.011,21.893-.058.567-.004,1.13-.444,1.696-.682.429-.486,1.229-.968,1.233-1.457.074-9.284.055-18.569.055-27.843-1.077-.672-2.128-1.899-3.186-1.904-23.22-.109-46.441-.083-69.661-.083-57.719,0-115.438,0-173.158,0-.666-1.053-1.893-2.097-1.908-3.158-.144-10.521-.087-21.044-.087-30.922-1.194-1.059-1.677-1.862-2.165-1.865-11.278-.071-22.557-.055-33.835-.055,0-35.302,0-70.603,0-105.905,1.024-.699,2.046-2.003,3.073-2.007,33.969-.106,67.938-.092,101.908-.059.571,0,1.141.433,1.712.663.436.485,1.25.968,1.253,1.457.073,10.645.055,21.291.055,31.889,1.151.687,2.216,1.875,3.287,1.881,20.647.11,41.296.069,61.943.103,1.889.003,3.778.309,6.001.504,1.805,11.401.002,22.626,1.025,33.734.793,1.303,1.885,1.761,3.276,1.759,21.314-.026,42.628.002,63.942-.063,1.477-.005,2.664.045,3.565,1.086.319.534.915,1.066.918,1.601.055,10.599.041,21.198.041,31.474,3.876,3.283,7.986,1.529,11.779,1.816,3.974.3,7.998-.114,11.981.119,3.834.224,7.861-1.146,11.476,1.136.981,16.508,1.052,48.826.161,69.286-.521.557-.972,1.461-1.429,1.464-11.322.079-22.645.062-33.968.062Z" fill="#c03232"/>
      <path d="m179.998,684.142v-36c1.478-.444,2.728-.055,3.287,1.349.443,1.114.678,2.385.684,3.588.051,10.354.029,20.708.029,31.062h-4Z" fill="#982727"/>
    </g>
  </g>
</svg>